<svg width="166" height="166" viewBox="0 0 166 166" fill="none" xmlns="http://www.w3.org/2000/svg">
<path d="M83 10.375C102.261 10.375 120.734 18.0265 134.354 31.6464C147.973 45.2662 155.625 63.7387 155.625 83C155.625 102.261 147.973 120.734 134.354 134.354C120.734 147.973 102.261 155.625 83 155.625C63.7387 155.625 45.2662 147.973 31.6464 134.354C18.0265 120.734 10.375 102.261 10.375 83C10.375 63.7387 18.0265 45.2662 31.6464 31.6464C45.2662 18.0265 63.7387 10.375 83 10.375ZM73.953 97.3279L57.8199 81.1844C57.2415 80.606 56.5549 80.1472 55.7992 79.8342C55.0435 79.5212 54.2336 79.3601 53.4157 79.3601C52.5978 79.3601 51.7878 79.5212 51.0322 79.8342C50.2765 80.1472 49.5899 80.606 49.0115 81.1844C47.8434 82.3524 47.1872 83.9367 47.1872 85.5886C47.1872 87.2405 47.8434 88.8247 49.0115 89.9927L69.554 110.535C70.1307 111.117 70.8168 111.578 71.5727 111.893C72.3286 112.208 73.1393 112.37 73.9582 112.37C74.777 112.37 75.5878 112.208 76.3437 111.893C77.0996 111.578 77.7857 111.117 78.3624 110.535L120.9 67.9874C121.486 67.4114 121.952 66.7251 122.272 65.968C122.591 65.211 122.758 64.3981 122.762 63.5764C122.765 62.7547 122.606 61.9403 122.294 61.1803C121.982 60.4203 121.522 59.7297 120.941 59.1483C120.36 58.5669 119.67 58.1062 118.911 57.7929C118.151 57.4795 117.337 57.3196 116.515 57.3225C115.693 57.3253 114.88 57.4909 114.123 57.8095C113.365 58.1281 112.679 58.5936 112.102 59.179L73.953 97.3279Z" fill="#5FC92E"/>
</svg>
