<svg width="22" height="22" viewBox="0 0 22 22" fill="none" xmlns="http://www.w3.org/2000/svg">
<path opacity="0.4" d="M18.6633 11.6691C18.3242 11.6691 18.04 11.4124 18.0033 11.0733C17.7833 9.05661 16.7017 7.24161 15.0333 6.08661C14.7308 5.87578 14.6575 5.46328 14.8683 5.16078C15.0792 4.85828 15.4917 4.78494 15.7942 4.99578C17.7833 6.37994 19.0667 8.54328 19.3325 10.9358C19.3692 11.3024 19.1033 11.6324 18.7367 11.6691C18.7092 11.6691 18.6908 11.6691 18.6633 11.6691Z" fill="#3F86FA"/>
<path opacity="0.4" d="M3.42852 11.7149C3.41018 11.7149 3.38268 11.7149 3.36435 11.7149C2.99768 11.6783 2.73185 11.3483 2.76852 10.9816C3.01602 8.58911 4.28102 6.42577 6.25185 5.03244C6.54518 4.82161 6.96685 4.89494 7.17768 5.18827C7.38852 5.49077 7.31518 5.90327 7.02185 6.11411C5.37185 7.28744 4.29935 9.10244 4.09768 11.1099C4.06102 11.4583 3.76768 11.7149 3.42852 11.7149Z" fill="#3F86FA"/>
<path opacity="0.4" d="M14.6577 19.3416C13.5302 19.8825 12.3202 20.1575 11.0552 20.1575C9.73521 20.1575 8.47938 19.8641 7.30605 19.2683C6.97605 19.1125 6.84771 18.7091 7.01271 18.3791C7.16855 18.0491 7.57188 17.9208 7.90188 18.0766C8.47938 18.37 9.09355 18.5716 9.71688 18.6908C10.5602 18.8558 11.4219 18.865 12.2652 18.7183C12.8885 18.6083 13.5027 18.4158 14.071 18.1408C14.4102 17.985 14.8135 18.1133 14.9602 18.4525C15.1252 18.7825 14.9969 19.1858 14.6577 19.3416Z" fill="#3F86FA"/>
<path d="M11.0459 1.84229C9.62511 1.84229 8.46094 2.99729 8.46094 4.42728C8.46094 5.85729 9.61594 7.01229 11.0459 7.01229C12.4759 7.01229 13.6309 5.85729 13.6309 4.42728C13.6309 2.99729 12.4759 1.84229 11.0459 1.84229Z" fill="#3F86FA"/>
<path d="M4.62895 12.7144C3.20811 12.7144 2.04395 13.8694 2.04395 15.2994C2.04395 16.7294 3.19895 17.8844 4.62895 17.8844C6.05895 17.8844 7.21395 16.7294 7.21395 15.2994C7.21395 13.8694 6.04978 12.7144 4.62895 12.7144Z" fill="#3F86FA"/>
<path d="M17.3706 12.7144C15.9498 12.7144 14.7856 13.8694 14.7856 15.2994C14.7856 16.7294 15.9406 17.8844 17.3706 17.8844C18.8006 17.8844 19.9556 16.7294 19.9556 15.2994C19.9556 13.8694 18.8006 12.7144 17.3706 12.7144Z" fill="#3F86FA"/>
</svg>
