<svg width="13" height="13" viewBox="0 0 13 13" fill="none" xmlns="http://www.w3.org/2000/svg">
<path d="M6.21859 3.60547C7.94125 3.60547 9.36313 5.02734 9.36313 6.75C9.36313 8.5 7.94125 9.89453 6.21859 9.89453C4.46859 9.89453 3.07406 8.5 3.07406 6.75C3.07406 5.02734 4.46859 3.60547 6.21859 3.60547ZM6.21859 8.80078C7.33969 8.80078 8.24203 7.89844 8.24203 6.75C8.24203 5.62891 7.33969 4.72656 6.21859 4.72656C5.07016 4.72656 4.16781 5.62891 4.16781 6.75C4.16781 7.89844 5.0975 8.80078 6.21859 8.80078ZM10.2108 3.49609C10.2108 3.90625 9.88266 4.23438 9.4725 4.23438C9.06234 4.23438 8.73422 3.90625 8.73422 3.49609C8.73422 3.08594 9.06234 2.75781 9.4725 2.75781C9.88266 2.75781 10.2108 3.08594 10.2108 3.49609ZM12.2889 4.23438C12.3436 5.24609 12.3436 8.28125 12.2889 9.29297C12.2342 10.2773 12.0155 11.125 11.3045 11.8633C10.5936 12.5742 9.71859 12.793 8.73422 12.8477C7.7225 12.9023 4.68734 12.9023 3.67563 12.8477C2.69125 12.793 1.84359 12.5742 1.10531 11.8633C0.394375 11.125 0.175625 10.2773 0.120938 9.29297C0.0662503 8.28125 0.0662503 5.24609 0.120938 4.23438C0.175625 3.25 0.394375 2.375 1.10531 1.66406C1.84359 0.953125 2.69125 0.734375 3.67563 0.679688C4.68734 0.625 7.7225 0.625 8.73422 0.679688C9.71859 0.734375 10.5936 0.953125 11.3045 1.66406C12.0155 2.375 12.2342 3.25 12.2889 4.23438ZM10.9764 10.3594C11.3045 9.56641 11.2225 7.65234 11.2225 6.75C11.2225 5.875 11.3045 3.96094 10.9764 3.14062C10.7577 2.62109 10.3475 2.18359 9.82797 1.99219C9.00766 1.66406 7.09359 1.74609 6.21859 1.74609C5.31625 1.74609 3.40219 1.66406 2.60922 1.99219C2.06234 2.21094 1.65219 2.62109 1.43344 3.14062C1.10531 3.96094 1.18734 5.875 1.18734 6.75C1.18734 7.65234 1.10531 9.56641 1.43344 10.3594C1.65219 10.9062 2.06234 11.3164 2.60922 11.5352C3.40219 11.8633 5.31625 11.7812 6.21859 11.7812C7.09359 11.7812 9.00766 11.8633 9.82797 11.5352C10.3475 11.3164 10.785 10.9062 10.9764 10.3594Z" fill="white"/>
</svg>
