<svg width="13" height="13" viewBox="0 0 13 13" fill="none" xmlns="http://www.w3.org/2000/svg">
<path d="M3.03359 13H0.490625V4.82422H3.03359V13ZM1.74844 3.73047C0.955469 3.73047 0.299219 3.04688 0.299219 2.22656C0.299219 1.43359 0.955469 0.777344 1.74844 0.777344C2.56875 0.777344 3.225 1.43359 3.225 2.22656C3.225 3.04688 2.56875 3.73047 1.74844 3.73047ZM12.5219 13H10.0062V9.03516C10.0062 8.07812 9.97891 6.875 8.66641 6.875C7.35391 6.875 7.1625 7.88672 7.1625 8.95312V13H4.61953V4.82422H7.05312V5.94531H7.08047C7.43594 5.31641 8.25625 4.63281 9.48672 4.63281C12.057 4.63281 12.5492 6.32812 12.5492 8.51562V13H12.5219Z" fill="white"/>
</svg>
