<svg width="14" height="12" viewBox="0 0 14 12" fill="none" xmlns="http://www.w3.org/2000/svg">
<path d="M12.586 2.90625C12.586 3.04297 12.586 3.15234 12.586 3.28906C12.586 7.08984 9.71488 11.4375 4.43753 11.4375C2.79691 11.4375 1.293 10.9727 0.0351877 10.1523C0.253938 10.1797 0.472688 10.207 0.718781 10.207C2.05863 10.207 3.28909 9.74219 4.27347 8.97656C3.01566 8.94922 1.94925 8.12891 1.59378 6.98047C1.78519 7.00781 1.94925 7.03516 2.14066 7.03516C2.38675 7.03516 2.66019 6.98047 2.87894 6.92578C1.56644 6.65234 0.582063 5.50391 0.582063 4.10938V4.08203C0.964875 4.30078 1.42972 4.41016 1.89456 4.4375C1.10159 3.91797 0.609406 3.04297 0.609406 2.05859C0.609406 1.51172 0.746125 1.01953 0.992219 0.609375C2.41409 2.33203 4.54691 3.48047 6.92581 3.61719C6.87113 3.39844 6.84378 3.17969 6.84378 2.96094C6.84378 1.375 8.12894 0.0898438 9.71488 0.0898438C10.5352 0.0898438 11.2735 0.417969 11.8203 0.992188C12.4493 0.855469 13.0782 0.609375 13.625 0.28125C13.4063 0.964844 12.9688 1.51172 12.3672 1.86719C12.9414 1.8125 13.5157 1.64844 14.0078 1.42969C13.625 2.00391 13.1328 2.49609 12.586 2.90625Z" fill="white"/>
</svg>
