<svg width="23" height="23" viewBox="0 0 23 23" fill="none" xmlns="http://www.w3.org/2000/svg">
<path d="M9.25084 0.75C10.8663 0.749822 12.4484 1.21001 13.8117 2.07665C15.175 2.94329 16.2632 4.1805 16.9487 5.64333C17.6341 7.10617 17.8885 8.73405 17.6821 10.3363C17.4854 11.8629 16.878 13.3059 15.9269 14.5124L21.4546 20.0402C21.5844 20.1619 21.6794 20.3162 21.7296 20.487C21.7803 20.6594 21.7836 20.8422 21.7391 21.0163C21.6946 21.1904 21.6039 21.3493 21.4767 21.4762C21.3495 21.6031 21.1904 21.6933 21.0162 21.7374M9.25084 0.75L20.9549 21.495M9.25084 0.75C7.88578 0.75018 6.54085 1.07912 5.32981 1.709C4.11876 2.33887 3.07723 3.25115 2.29332 4.36867C1.50941 5.48619 1.00617 6.77606 0.826173 8.1292C0.646178 9.48233 0.794723 10.8589 1.25924 12.1425C1.72376 13.4261 2.49059 14.5789 3.49486 15.5035C4.49913 16.428 5.7113 17.0971 7.02884 17.4541C8.34638 17.8112 9.73052 17.8456 11.0642 17.5546C12.3234 17.2798 13.5026 16.7225 14.5133 15.926M9.25084 0.75L14.5133 15.926M21.0162 21.7374L20.9549 21.495M21.0162 21.7374C21.0164 21.7373 21.0166 21.7373 21.0167 21.7372L20.9549 21.495M21.0162 21.7374C20.8425 21.7816 20.6601 21.7784 20.4881 21.728C20.3174 21.678 20.1632 21.5834 20.0412 21.4539M20.9549 21.495C20.8245 21.5283 20.6875 21.5259 20.5584 21.4881C20.4293 21.4503 20.3127 21.3784 20.2209 21.28M20.0412 21.4539L20.0441 21.4568L20.2209 21.28M20.0412 21.4539L14.5133 15.926M20.0412 21.4539C20.0402 21.4528 20.0391 21.4517 20.0381 21.4506L20.2209 21.28M20.2209 21.28L14.5133 15.926M3.24565 11.7374C2.91899 10.9488 2.75087 10.1036 2.75087 9.25C2.75087 7.52609 3.43568 5.87279 4.65467 4.65381C5.87366 3.43482 7.52696 2.75 9.25087 2.75C10.9748 2.75 12.6281 3.43482 13.8471 4.65381C15.066 5.87279 15.7509 7.52609 15.7509 9.25C15.7509 10.1036 15.5827 10.9488 15.2561 11.7374C14.9294 12.5261 14.4506 13.2426 13.8471 13.8462C13.2435 14.4498 12.5269 14.9286 11.7383 15.2552C10.9497 15.5819 10.1045 15.75 9.25087 15.75C8.39727 15.75 7.55204 15.5819 6.76342 15.2552C5.97481 14.9286 5.25825 14.4498 4.65467 13.8462C4.05109 13.2426 3.5723 12.5261 3.24565 11.7374Z" fill="#ACB4B3" stroke="#ACB4B3" stroke-width="0.5"/>
</svg>
