<svg width="176" height="48" viewBox="0 0 176 48" fill="none" xmlns="http://www.w3.org/2000/svg">
<g clip-path="url(#clip0_2214_31558)">
<g clip-path="url(#clip1_2214_31558)">
<path fill-rule="evenodd" clip-rule="evenodd" d="M15 32C13.6739 32 12.4021 31.4732 11.4645 30.5355C10.5268 29.5979 10 28.3261 10 27V4H0V27C0 35.284 6.716 42 15 42H26V32H15ZM45 14C43.8181 14 42.6478 14.2328 41.5558 14.6851C40.4639 15.1374 39.4718 15.8003 38.636 16.636C37.8003 17.4718 37.1374 18.4639 36.6851 19.5558C36.2328 20.6478 36 21.8181 36 23C36 24.1819 36.2328 25.3522 36.6851 26.4442C37.1374 27.5361 37.8003 28.5282 38.636 29.364C39.4718 30.1997 40.4639 30.8626 41.5558 31.3149C42.6478 31.7672 43.8181 32 45 32C47.3869 32 49.6761 31.0518 51.364 29.364C53.0518 27.6761 54 25.3869 54 23C54 20.6131 53.0518 18.3239 51.364 16.636C49.6761 14.9482 47.3869 14 45 14ZM26 23C26 12.507 34.507 4 45 4C55.493 4 64 12.507 64 23C64 33.493 55.493 42 45 42C34.507 42 26 33.493 26 23ZM153 14C150.613 14 148.324 14.9482 146.636 16.636C144.948 18.3239 144 20.6131 144 23C144 25.3869 144.948 27.6761 146.636 29.364C148.324 31.0518 150.613 32 153 32C155.387 32 157.676 31.0518 159.364 29.364C161.052 27.6761 162 25.3869 162 23C162 20.6131 161.052 18.3239 159.364 16.636C157.676 14.9482 155.387 14 153 14ZM134 23C134 12.507 142.507 4 153 4C163.493 4 172 12.507 172 23C172 33.493 163.493 42 153 42C142.507 42 134 33.493 134 23ZM85 4C74.507 4 66 12.507 66 23C66 33.493 74.507 42 85 42H113C114.969 42 116.868 41.7 118.654 41.144L124 44L129.768 33.196C131.233 30.4457 132 27.3773 132 24.261V23C132 12.507 123.493 4 113 4H85ZM122 23C122 20.6131 121.052 18.3239 119.364 16.636C117.676 14.9482 115.387 14 113 14H85C83.8181 14 82.6478 14.2328 81.5558 14.6851C80.4639 15.1374 79.4718 15.8003 78.636 16.636C77.8003 17.4718 77.1374 18.4639 76.6851 19.5558C76.2328 20.6478 76 21.8181 76 23C76 24.1819 76.2328 25.3522 76.6851 26.4442C77.1374 27.5361 77.8003 28.5282 78.636 29.364C79.4718 30.1997 80.4639 30.8626 81.5558 31.3149C82.6478 31.7672 83.8181 32 85 32H113C115.375 32.0001 117.654 31.0615 119.339 29.3888C121.025 27.716 121.982 25.4448 122 23.07V23Z" fill="#3F86FA"/>
<path d="M176 6.5C176 7.16304 175.737 7.79893 175.268 8.26777C174.799 8.73661 174.163 9 173.5 9C172.837 9 172.201 8.73661 171.732 8.26777C171.263 7.79893 171 7.16304 171 6.5C171 5.83696 171.263 5.20107 171.732 4.73223C172.201 4.26339 172.837 4 173.5 4C174.163 4 174.799 4.26339 175.268 4.73223C175.737 5.20107 176 5.83696 176 6.5Z" fill="#3F86FA"/>
</g>
</g>
<defs>
<clipPath id="clip0_2214_31558">
<rect width="176" height="48" fill="white"/>
</clipPath>
<clipPath id="clip1_2214_31558">
<rect width="176" height="40" fill="white" transform="translate(0 4)"/>
</clipPath>
</defs>
</svg>
