<svg width="98" height="77" viewBox="0 0 98 77" fill="none" xmlns="http://www.w3.org/2000/svg">
<mask id="mask0_1503_30243" style="mask-type:luminance" maskUnits="userSpaceOnUse" x="15" y="0" width="63" height="59">
<path d="M15.8945 0.575195H77.7119V58.3353H15.8945V0.575195Z" fill="white"/>
</mask>
<g mask="url(#mask0_1503_30243)">
<path d="M46.6806 0.436523L15.9023 26.5691L18.7749 29.9422L46.6806 6.2482L68.8251 25.0543V53.7214H59.9678V58.1513H71.0401C71.3329 58.1513 71.6151 58.0954 71.8867 57.9809C72.1582 57.8691 72.3978 57.7094 72.6055 57.5017C72.8131 57.2941 72.9729 57.0545 73.0874 56.7829C73.1992 56.5114 73.2551 56.2292 73.2551 55.9363V28.8081L74.5862 29.9422L77.4588 26.5691L46.6806 0.436523ZM37.8233 22.7967L15.913 41.3259L18.7669 44.707L20.106 43.5755V58.1513H55.5378V43.5755L56.8796 44.707L59.7335 41.3259L37.8233 22.7967ZM37.8233 28.6004L51.1105 39.8298V53.7214H24.536V39.8298L37.8233 28.6004Z" fill="#52AFAF"/>
</g>
<mask id="mask1_1503_30243" style="mask-type:luminance" maskUnits="userSpaceOnUse" x="31" y="46" width="5" height="5">
<path d="M31.7383 46.6509H35.8381V50.7507H31.7383V46.6509Z" fill="white"/>
</mask>
<g mask="url(#mask1_1503_30243)">
<path d="M31.7383 46.6509H35.8381V50.7507H31.7383V46.6509Z" fill="#52AFAF"/>
</g>
<mask id="mask2_1503_30243" style="mask-type:luminance" maskUnits="userSpaceOnUse" x="38" y="46" width="5" height="5">
<path d="M38.8262 46.6509H42.926V50.7507H38.8262V46.6509Z" fill="white"/>
</mask>
<g mask="url(#mask2_1503_30243)">
<path d="M38.8262 46.6509H42.926V50.7507H38.8262V46.6509Z" fill="#52AFAF"/>
</g>
<mask id="mask3_1503_30243" style="mask-type:luminance" maskUnits="userSpaceOnUse" x="31" y="40" width="5" height="5">
<path d="M31.7383 40.2935H35.8381V44.3933H31.7383V40.2935Z" fill="white"/>
</mask>
<g mask="url(#mask3_1503_30243)">
<path d="M31.7383 40.2935H35.8381V44.3933H31.7383V40.2935Z" fill="#52AFAF"/>
</g>
<mask id="mask4_1503_30243" style="mask-type:luminance" maskUnits="userSpaceOnUse" x="38" y="40" width="5" height="5">
<path d="M38.8262 40.2935H42.926V44.3933H38.8262V40.2935Z" fill="white"/>
</mask>
<g mask="url(#mask4_1503_30243)">
<path d="M38.8262 40.2935H42.926V44.3933H38.8262V40.2935Z" fill="#52AFAF"/>
</g>
<mask id="mask5_1503_30243" style="mask-type:luminance" maskUnits="userSpaceOnUse" x="68" y="0" width="6" height="10">
<path d="M68.665 0.575195H73.0711V9.26476H68.665V0.575195Z" fill="white"/>
</mask>
<g mask="url(#mask5_1503_30243)">
<path d="M68.665 0.575195H73.0711V9.26742H68.665V0.575195Z" fill="#52AFAF"/>
</g>
<path d="M0.894869 72.6978V62.2576H4.62349C5.19024 62.2576 5.7023 62.3993 6.15968 62.6827C6.62203 62.9661 6.98743 63.3464 7.25589 63.8236C7.52435 64.3009 7.65859 64.8254 7.65859 65.3971C7.65859 65.9838 7.51938 66.5157 7.24098 66.993C6.96755 67.4653 6.59966 67.8431 6.13731 68.1265C5.67496 68.4049 5.17035 68.5441 4.62349 68.5441H2.71444V72.6978H0.894869ZM2.71444 66.7245H4.4296C4.68812 66.7245 4.92426 66.6599 5.13804 66.5306C5.35181 66.4014 5.52084 66.2274 5.64513 66.0086C5.77439 65.7899 5.83902 65.5463 5.83902 65.2778C5.83902 65.0044 5.77439 64.7583 5.64513 64.5395C5.52084 64.3208 5.35181 64.1468 5.13804 64.0175C4.92426 63.8883 4.68812 63.8236 4.4296 63.8236H2.71444V66.7245ZM9.34314 72.6978L9.33569 65.2405H11.1553L11.1627 65.9042C11.4163 65.6357 11.7195 65.4245 12.0725 65.2703C12.4255 65.1113 12.8058 65.0317 13.2135 65.0317C13.4869 65.0317 13.7603 65.0715 14.0337 65.151L13.3179 66.9855C13.1289 66.9109 12.94 66.8736 12.7511 66.8736C12.4578 66.8736 12.1893 66.9457 11.9457 67.0899C11.7071 67.2291 11.5157 67.4205 11.3715 67.6641C11.2323 67.9027 11.1627 68.1687 11.1627 68.462V72.6978H9.34314ZM18.3195 72.8916C17.6334 72.8916 17.007 72.7152 16.4403 72.3622C15.8785 72.0092 15.4286 71.5369 15.0905 70.9453C14.7574 70.3487 14.5909 69.69 14.5909 68.9691C14.5909 68.4223 14.6878 67.9127 14.8817 67.4404C15.0756 66.9631 15.3416 66.5455 15.6796 66.1876C16.0227 65.8247 16.4204 65.5413 16.8728 65.3375C17.3252 65.1336 17.8074 65.0317 18.3195 65.0317C19.0055 65.0317 19.6295 65.2082 20.1913 65.5612C20.758 65.9142 21.2079 66.3889 21.541 66.9855C21.8791 67.5821 22.0481 68.2433 22.0481 68.9691C22.0481 69.511 21.9512 70.0181 21.7573 70.4904C21.5634 70.9627 21.2949 71.3803 20.9519 71.7432C20.6138 72.1012 20.2186 72.3821 19.7662 72.5859C19.3188 72.7897 18.8365 72.8916 18.3195 72.8916ZM18.3195 71.0721C18.6824 71.0721 19.008 70.9751 19.2964 70.7812C19.5847 70.5874 19.8109 70.3313 19.975 70.0131C20.144 69.695 20.2285 69.347 20.2285 68.9691C20.2285 68.5814 20.1415 68.2284 19.9675 67.9102C19.7985 67.5871 19.5673 67.331 19.274 67.1421C18.9857 66.9482 18.6675 66.8513 18.3195 66.8513C17.9615 66.8513 17.6384 66.9482 17.35 67.1421C17.0617 67.336 16.833 67.5945 16.664 67.9177C16.4949 68.2408 16.4104 68.5913 16.4104 68.9691C16.4104 69.3619 16.4974 69.7173 16.6714 70.0355C16.8454 70.3537 17.0766 70.6072 17.365 70.7962C17.6583 70.9801 17.9765 71.0721 18.3195 71.0721ZM25.5463 76.4264H23.7267V65.2405H25.5463V66.1876C25.7899 65.8495 26.0882 65.5761 26.4412 65.3673C26.7991 65.1535 27.2167 65.0466 27.694 65.0466C28.2408 65.0466 28.7504 65.1485 29.2227 65.3524C29.695 65.5562 30.1101 65.8396 30.4681 66.2025C30.831 66.5604 31.1119 66.9756 31.3107 67.4479C31.5146 67.9201 31.6165 68.4272 31.6165 68.9691C31.6165 69.511 31.5146 70.0206 31.3107 70.4979C31.1119 70.9751 30.831 71.3952 30.4681 71.7581C30.1101 72.1161 29.695 72.397 29.2227 72.6008C28.7504 72.8046 28.2408 72.9066 27.694 72.9066C27.2167 72.9066 26.7991 72.8022 26.4412 72.5934C26.0882 72.3796 25.7899 72.1037 25.5463 71.7656V76.4264ZM27.6716 66.7991C27.2938 66.7991 26.9557 66.8985 26.6574 67.0974C26.3591 67.2913 26.1255 67.5523 25.9564 67.8804C25.7874 68.2085 25.7029 68.5714 25.7029 68.9691C25.7029 69.3669 25.7874 69.7323 25.9564 70.0653C26.1255 70.3935 26.3591 70.657 26.6574 70.8558C26.9557 71.0497 27.2938 71.1466 27.6716 71.1466C28.0544 71.1466 28.4049 71.0497 28.7231 70.8558C29.0412 70.6619 29.2948 70.4009 29.4837 70.0728C29.6726 69.7397 29.7671 69.3718 29.7671 68.9691C29.7671 68.5714 29.6726 68.2085 29.4837 67.8804C29.2948 67.5523 29.0412 67.2913 28.7231 67.0974C28.4099 66.8985 28.0594 66.7991 27.6716 66.7991ZM36.6139 72.8916C35.9279 72.8916 35.3014 72.7152 34.7347 72.3622C34.1729 72.0092 33.723 71.5344 33.3849 70.9378C33.0518 70.3413 32.8853 69.6825 32.8853 68.9617C32.8853 68.4198 32.9822 67.9127 33.1761 67.4404C33.37 66.9631 33.636 66.5455 33.9741 66.1876C34.3171 65.8247 34.7148 65.5413 35.1672 65.3375C35.6196 65.1336 36.1019 65.0317 36.6139 65.0317C37.1956 65.0317 37.7275 65.156 38.2098 65.4046C38.697 65.6482 39.1096 65.9838 39.4477 66.4113C39.7857 66.8388 40.0318 67.3261 40.1859 67.8729C40.3401 68.4198 40.3749 68.9915 40.2903 69.5881H34.8391C34.9087 69.8665 35.023 70.1175 35.1821 70.3413C35.3412 70.56 35.5426 70.7365 35.7862 70.8707C36.0298 71 36.3057 71.0671 36.6139 71.0721C36.9321 71.077 37.2204 71.0025 37.479 70.8484C37.7424 70.6893 37.9612 70.4755 38.1352 70.207L39.992 70.6396C39.6888 71.3008 39.2364 71.8427 38.6348 72.2652C38.0333 72.6828 37.3596 72.8916 36.6139 72.8916ZM34.7794 68.2234H38.4484C38.3937 67.9251 38.2769 67.6567 38.0979 67.418C37.9239 67.1744 37.7076 66.9805 37.4491 66.8364C37.1906 66.6922 36.9122 66.6201 36.6139 66.6201C36.3156 66.6201 36.0397 66.6922 35.7862 66.8364C35.5326 66.9756 35.3164 67.167 35.1374 67.4106C34.9634 67.6492 34.8441 67.9201 34.7794 68.2234ZM42.0286 72.6978L42.0212 65.2405H43.8407L43.8482 65.9042C44.1017 65.6357 44.405 65.4245 44.758 65.2703C45.1109 65.1113 45.4913 65.0317 45.8989 65.0317C46.1723 65.0317 46.4458 65.0715 46.7192 65.151L46.0033 66.9855C45.8144 66.9109 45.6255 66.8736 45.4366 66.8736C45.1432 66.8736 44.8748 66.9457 44.6312 67.0899C44.3926 67.2291 44.2012 67.4205 44.057 67.6641C43.9178 67.9027 43.8482 68.1687 43.8482 68.462V72.6978H42.0286ZM52.2743 67.0601H50.8276V72.6978H49.008V67.0601H47.9044V65.2405H49.008V62.8989H50.8276V65.2405H52.2743V67.0601ZM58.9644 65.2405H60.8959L56.8167 76.4264H54.8853L56.2351 72.6978L53.5505 65.2405H55.5416L57.1449 70.207L58.9644 65.2405ZM73.1465 62.2576H74.9661V72.6978H73.1465V68.0146H68.8213V72.6978H67.0018V62.2576H68.8213V66.195H73.1465V62.2576ZM77.2778 65.2405H79.0973V72.6978H77.2778V65.2405ZM78.2025 64.2785C77.934 64.2785 77.7078 64.1915 77.5239 64.0175C77.3399 63.8386 77.2479 63.6148 77.2479 63.3464C77.2479 63.0829 77.3399 62.8617 77.5239 62.6827C77.7078 62.5037 77.9315 62.4142 78.195 62.4142C78.4585 62.4142 78.6797 62.5037 78.8587 62.6827C79.0427 62.8617 79.1346 63.0829 79.1346 63.3464C79.1346 63.6148 79.0451 63.8386 78.8662 64.0175C78.6872 64.1915 78.466 64.2785 78.2025 64.2785ZM85.7904 72.6978H83.4413L80.7269 65.2331H82.6658L84.6196 70.6023L86.5659 65.2331H88.5048L85.7904 72.6978ZM93.1148 72.8916C92.4287 72.8916 91.8023 72.7152 91.2356 72.3622C90.6738 72.0092 90.2239 71.5344 89.8858 70.9378C89.5527 70.3413 89.3862 69.6825 89.3862 68.9617C89.3862 68.4198 89.4831 67.9127 89.677 67.4404C89.8709 66.9631 90.1369 66.5455 90.475 66.1876C90.818 65.8247 91.2157 65.5413 91.6681 65.3375C92.1205 65.1336 92.6027 65.0317 93.1148 65.0317C93.6965 65.0317 94.2284 65.156 94.7107 65.4046C95.1979 65.6482 95.6105 65.9838 95.9486 66.4113C96.2866 66.8388 96.5327 67.3261 96.6868 67.8729C96.8409 68.4198 96.8757 68.9915 96.7912 69.5881H91.34C91.4096 69.8665 91.5239 70.1175 91.683 70.3413C91.8421 70.56 92.0435 70.7365 92.2871 70.8707C92.5307 71 92.8066 71.0671 93.1148 71.0721C93.433 71.077 93.7213 71.0025 93.9799 70.8484C94.2433 70.6893 94.4621 70.4755 94.6361 70.207L96.4929 70.6396C96.1897 71.3008 95.7373 71.8427 95.1357 72.2652C94.5342 72.6828 93.8605 72.8916 93.1148 72.8916ZM91.2803 68.2234H94.9493C94.8946 67.9251 94.7778 67.6567 94.5988 67.418C94.4248 67.1744 94.2085 66.9805 93.95 66.8364C93.6915 66.6922 93.4131 66.6201 93.1148 66.6201C92.8165 66.6201 92.5406 66.6922 92.2871 66.8364C92.0335 66.9756 91.8173 67.167 91.6383 67.4106C91.4643 67.6492 91.345 67.9201 91.2803 68.2234Z" fill="#52AFAF"/>
</svg>
