<svg width="635" height="405" viewBox="0 0 635 405" fill="none" xmlns="http://www.w3.org/2000/svg">
<g filter="url(#filter0_d_1503_29766)">
<rect x="79.5" y="62.6885" width="476" height="244.3" rx="8" fill="#FCFDFD"/>
<path d="M100.167 82.8238C101.127 82.8238 101.952 82.9929 102.642 83.331C103.345 83.6692 103.893 84.1493 104.285 84.7715C104.677 85.3937 104.874 86.1443 104.874 87.0234C104.874 87.8891 104.677 88.6397 104.285 89.2754C103.893 89.8976 103.345 90.3777 102.642 90.7158C101.952 91.054 101.127 91.223 100.167 91.223H97.1844V96.2139H95.0136V82.8238H100.167ZM99.8218 89.3566C100.782 89.3566 101.485 89.1604 101.932 88.7682C102.392 88.3624 102.622 87.7809 102.622 87.0234C102.622 86.2525 102.392 85.6709 101.932 85.2787C101.485 84.8729 100.782 84.67 99.8218 84.67H97.1844V89.3566H99.8218ZM106.584 96.2139V86.0699H108.43L108.633 87.8958C108.903 87.2331 109.302 86.7327 109.83 86.3945C110.371 86.0429 111.033 85.867 111.818 85.867C112.021 85.867 112.224 85.8873 112.426 85.9279C112.629 85.9549 112.798 86.0023 112.934 86.0699L112.629 87.977C112.481 87.9229 112.311 87.8823 112.122 87.8552C111.946 87.8147 111.703 87.7944 111.392 87.7944C110.972 87.7944 110.56 87.9094 110.154 88.1393C109.748 88.3557 109.41 88.6871 109.14 89.1334C108.883 89.5797 108.754 90.1478 108.754 90.8376V96.2139H106.584ZM118.284 85.867C119.271 85.867 120.143 86.0767 120.901 86.496C121.658 86.9152 122.246 87.5239 122.666 88.3219C123.099 89.1063 123.315 90.0463 123.315 91.1419C123.315 92.2374 123.099 93.1842 122.666 93.9822C122.246 94.7667 121.658 95.3685 120.901 95.7878C120.143 96.2071 119.271 96.4167 118.284 96.4167C117.296 96.4167 116.424 96.2071 115.666 95.7878C114.909 95.3685 114.314 94.7667 113.881 93.9822C113.448 93.1842 113.232 92.2374 113.232 91.1419C113.232 90.0463 113.448 89.1063 113.881 88.3219C114.314 87.5239 114.909 86.9152 115.666 86.496C116.424 86.0767 117.296 85.867 118.284 85.867ZM118.284 87.5712C117.675 87.5712 117.154 87.7132 116.721 87.9973C116.302 88.2678 115.978 88.6668 115.748 89.1943C115.518 89.7217 115.403 90.371 115.403 91.1419C115.403 91.8993 115.518 92.5485 115.748 93.0895C115.978 93.617 116.302 94.0228 116.721 94.3068C117.154 94.5773 117.675 94.7126 118.284 94.7126C118.892 94.7126 119.406 94.5773 119.825 94.3068C120.245 94.0228 120.569 93.617 120.799 93.0895C121.029 92.5485 121.144 91.8993 121.144 91.1419C121.144 90.371 121.029 89.7217 120.799 89.1943C120.569 88.6668 120.245 88.2678 119.825 87.9973C119.406 87.7132 118.892 87.5712 118.284 87.5712ZM125.201 100.474V86.0699H127.128L127.29 88.9102L127.006 88.5653C127.169 88.0378 127.419 87.5712 127.757 87.1655C128.095 86.7597 128.514 86.4419 129.015 86.2119C129.529 85.982 130.09 85.867 130.699 85.867C131.524 85.867 132.274 86.0767 132.951 86.496C133.627 86.9152 134.161 87.5171 134.553 88.3016C134.946 89.0725 135.142 90.0125 135.142 91.1216C135.142 92.2307 134.939 93.1842 134.533 93.9822C134.141 94.7667 133.6 95.3685 132.91 95.7878C132.234 96.2071 131.476 96.4167 130.638 96.4167C129.772 96.4167 129.035 96.1936 128.426 95.7472C127.818 95.2874 127.385 94.7058 127.128 94.0025L127.371 93.6576V100.474H125.201ZM130.171 94.6517C131.05 94.6517 131.733 94.3406 132.22 93.7185C132.721 93.0963 132.971 92.2374 132.971 91.1419C132.971 90.0463 132.727 89.1875 132.24 88.5653C131.754 87.9296 131.077 87.6118 130.212 87.6118C129.644 87.6118 129.143 87.7606 128.71 88.0581C128.291 88.3422 127.96 88.7479 127.716 89.2754C127.486 89.7894 127.371 90.4115 127.371 91.1419C127.371 91.8587 127.486 92.4809 127.716 93.0084C127.946 93.5359 128.271 93.9416 128.69 94.2257C129.109 94.5097 129.603 94.6517 130.171 94.6517ZM141.538 96.4167C140.524 96.4167 139.631 96.2071 138.86 95.7878C138.089 95.3685 137.487 94.7667 137.055 93.9822C136.635 93.1842 136.426 92.2374 136.426 91.1419C136.426 90.0463 136.635 89.1063 137.055 88.3219C137.487 87.5239 138.082 86.9152 138.84 86.496C139.597 86.0767 140.456 85.867 141.416 85.867C142.404 85.867 143.242 86.0699 143.932 86.4757C144.622 86.8814 145.149 87.436 145.515 88.1393C145.88 88.8426 146.062 89.6406 146.062 90.5333C146.062 90.7767 146.056 91.0066 146.042 91.223C146.029 91.4394 146.008 91.6288 145.981 91.7911H137.825V90.1275H145.028L143.952 90.4521C143.952 89.5324 143.722 88.8291 143.263 88.3422C142.803 87.8417 142.174 87.5915 141.376 87.5915C140.794 87.5915 140.287 87.7268 139.854 87.9973C139.421 88.2678 139.09 88.6735 138.86 89.2145C138.63 89.742 138.515 90.3912 138.515 91.1622C138.515 91.9196 138.637 92.562 138.88 93.0895C139.124 93.617 139.469 94.016 139.915 94.2865C140.361 94.557 140.889 94.6923 141.498 94.6923C142.174 94.6923 142.722 94.5638 143.141 94.3068C143.56 94.0498 143.892 93.6914 144.135 93.2315L145.859 94.0431C145.616 94.53 145.285 94.956 144.865 95.3212C144.46 95.6729 143.973 95.9434 143.405 96.1327C142.837 96.3221 142.214 96.4167 141.538 96.4167ZM147.958 96.2139V86.0699H149.805L150.008 87.8958C150.278 87.2331 150.677 86.7327 151.204 86.3945C151.746 86.0429 152.408 85.867 153.193 85.867C153.396 85.867 153.598 85.8873 153.801 85.9279C154.004 85.9549 154.173 86.0023 154.309 86.0699L154.004 87.977C153.855 87.9229 153.686 87.8823 153.497 87.8552C153.321 87.8147 153.078 87.7944 152.767 87.7944C152.347 87.7944 151.935 87.9094 151.529 88.1393C151.123 88.3557 150.785 88.6871 150.515 89.1334C150.258 89.5797 150.129 90.1478 150.129 90.8376V96.2139H147.958ZM157.98 83.0876V93.1707C157.98 93.6711 158.109 94.0363 158.366 94.2662C158.636 94.4962 158.995 94.6111 159.441 94.6111C159.806 94.6111 160.124 94.557 160.395 94.4488C160.665 94.3271 160.915 94.1648 161.145 93.9619L161.632 95.5444C161.321 95.8149 160.936 96.0313 160.476 96.1936C160.029 96.3424 159.529 96.4167 158.974 96.4167C158.393 96.4167 157.859 96.3221 157.372 96.1327C156.885 95.9434 156.506 95.639 156.236 95.2198C155.965 94.787 155.823 94.2257 155.809 93.5359V83.6962L157.98 83.0876ZM161.47 86.0699V87.7741H153.862V86.0699H161.47ZM163.867 84.3657C163.394 84.3657 163.028 84.2508 162.772 84.0208C162.528 83.7774 162.406 83.4392 162.406 83.0064C162.406 82.5736 162.528 82.2423 162.772 82.0123C163.028 81.7824 163.394 81.6674 163.867 81.6674C164.327 81.6674 164.679 81.7824 164.922 82.0123C165.179 82.2423 165.308 82.5736 165.308 83.0064C165.308 83.4392 165.179 83.7774 164.922 84.0208C164.679 84.2508 164.327 84.3657 163.867 84.3657ZM164.942 86.0699V96.2139H162.772V86.0699H164.942ZM171.957 96.4167C170.942 96.4167 170.05 96.2071 169.279 95.7878C168.508 95.3685 167.906 94.7667 167.473 93.9822C167.054 93.1842 166.844 92.2374 166.844 91.1419C166.844 90.0463 167.054 89.1063 167.473 88.3219C167.906 87.5239 168.501 86.9152 169.259 86.496C170.016 86.0767 170.875 85.867 171.835 85.867C172.822 85.867 173.661 86.0699 174.351 86.4757C175.041 86.8814 175.568 87.436 175.933 88.1393C176.298 88.8426 176.481 89.6406 176.481 90.5333C176.481 90.7767 176.474 91.0066 176.461 91.223C176.447 91.4394 176.427 91.6288 176.4 91.7911H168.244V90.1275H175.446L174.371 90.4521C174.371 89.5324 174.141 88.8291 173.681 88.3422C173.221 87.8417 172.592 87.5915 171.795 87.5915C171.213 87.5915 170.706 87.7268 170.273 87.9973C169.84 88.2678 169.509 88.6735 169.279 89.2145C169.049 89.742 168.934 90.3912 168.934 91.1622C168.934 91.9196 169.056 92.562 169.299 93.0895C169.543 93.617 169.887 94.016 170.334 94.2865C170.78 94.557 171.308 94.6923 171.916 94.6923C172.592 94.6923 173.14 94.5638 173.56 94.3068C173.979 94.0498 174.31 93.6914 174.554 93.2315L176.278 94.0431C176.035 94.53 175.703 94.956 175.284 95.3212C174.878 95.6729 174.391 95.9434 173.823 96.1327C173.255 96.3221 172.633 96.4167 171.957 96.4167ZM182.232 96.4167C181.217 96.4167 180.291 96.2206 179.452 95.8284C178.614 95.4362 177.951 94.8816 177.464 94.1648L178.965 92.8664C179.263 93.4209 179.689 93.8672 180.244 94.2054C180.812 94.53 181.488 94.6923 182.272 94.6923C182.895 94.6923 183.388 94.5841 183.753 94.3677C184.119 94.1513 184.301 93.8469 184.301 93.4547C184.301 93.1977 184.213 92.9746 184.037 92.7852C183.875 92.5823 183.557 92.4268 183.084 92.3186L180.954 91.8723C179.872 91.6559 179.101 91.311 178.641 90.8376C178.181 90.3507 177.951 89.7353 177.951 88.9914C177.951 88.4368 178.113 87.9229 178.438 87.4495C178.763 86.9761 179.236 86.5974 179.858 86.3134C180.494 86.0158 181.251 85.867 182.13 85.867C183.145 85.867 184.01 86.0496 184.727 86.4148C185.444 86.7665 185.992 87.2737 186.371 87.9364L184.869 89.1943C184.612 88.6532 184.234 88.2542 183.733 87.9973C183.233 87.7268 182.712 87.5915 182.171 87.5915C181.738 87.5915 181.366 87.6456 181.055 87.7538C180.744 87.862 180.507 88.0108 180.345 88.2001C180.183 88.3895 180.102 88.6127 180.102 88.8696C180.102 89.1402 180.203 89.3768 180.406 89.5797C180.609 89.7826 180.974 89.9381 181.501 90.0463L183.814 90.5333C184.788 90.7226 185.471 91.0472 185.863 91.5071C186.269 91.9534 186.472 92.5012 186.472 93.1504C186.472 93.7996 186.303 94.3744 185.965 94.8749C185.627 95.3618 185.14 95.7405 184.504 96.011C183.868 96.2815 183.111 96.4167 182.232 96.4167Z" fill="#242828"/>
<rect x="92.6027" y="124.079" width="166.76" height="163.149" rx="7.1853" stroke="#E5E8E7" stroke-width="0.845329"/>
<rect x="159.076" y="141.408" width="33.8132" height="33.8132" rx="16.9066" fill="#049AB6"/>
<path d="M170.064 154.935C168.661 154.935 167.528 156.067 167.528 157.471V164.233C167.528 165.636 168.661 166.769 170.064 166.769H171.332C172.262 166.769 173.023 166.008 173.023 165.079V156.625C173.023 155.695 172.262 154.935 171.332 154.935H170.064ZM170.91 162.543C170.91 162.889 170.622 163.177 170.276 163.177C169.929 163.177 169.642 162.889 169.642 162.543V159.161C169.642 158.815 169.929 158.527 170.276 158.527C170.622 158.527 170.91 158.815 170.91 159.161V162.543Z" fill="#ECFFFF"/>
<path d="M181.899 149.862H176.827C175.424 149.862 174.291 150.995 174.291 152.398V164.233C174.291 165.636 175.424 166.769 176.827 166.769H177.25C177.486 166.769 177.672 166.583 177.672 166.346V163.388C177.672 162.923 178.053 162.542 178.518 162.542H180.208C180.673 162.542 181.054 162.923 181.054 163.388V166.346C181.054 166.583 181.24 166.769 181.476 166.769H181.899C183.302 166.769 184.435 165.636 184.435 164.233V152.398C184.435 150.995 183.302 149.862 181.899 149.862ZM178.306 159.161C178.306 159.508 178.019 159.795 177.672 159.795C177.326 159.795 177.038 159.508 177.038 159.161V154.934C177.038 154.588 177.326 154.3 177.672 154.3C178.019 154.3 178.306 154.588 178.306 154.934V159.161ZM181.688 159.161C181.688 159.508 181.4 159.795 181.054 159.795C180.707 159.795 180.42 159.508 180.42 159.161V154.934C180.42 154.588 180.707 154.3 181.054 154.3C181.4 154.3 181.688 154.588 181.688 154.934V159.161Z" fill="#ECFFFF"/>
<path d="M139.945 186.942V188.342H136.506V196.984H134.878V188.342H131.439V186.942H139.945ZM142.955 189.224C143.696 189.224 144.35 189.381 144.918 189.696C145.486 190.01 145.928 190.467 146.242 191.065C146.567 191.654 146.729 192.359 146.729 193.18C146.729 194.002 146.567 194.712 146.242 195.311C145.928 195.899 145.486 196.35 144.918 196.665C144.35 196.979 143.696 197.137 142.955 197.137C142.215 197.137 141.561 196.979 140.993 196.665C140.424 196.35 139.978 195.899 139.654 195.311C139.329 194.712 139.167 194.002 139.167 193.18C139.167 192.359 139.329 191.654 139.654 191.065C139.978 190.467 140.424 190.01 140.993 189.696C141.561 189.381 142.215 189.224 142.955 189.224ZM142.955 190.502C142.499 190.502 142.108 190.609 141.784 190.822C141.469 191.025 141.226 191.324 141.053 191.72C140.881 192.115 140.795 192.602 140.795 193.18C140.795 193.748 140.881 194.235 141.053 194.641C141.226 195.037 141.469 195.341 141.784 195.554C142.108 195.757 142.499 195.858 142.955 195.858C143.412 195.858 143.797 195.757 144.112 195.554C144.426 195.341 144.67 195.037 144.842 194.641C145.015 194.235 145.101 193.748 145.101 193.18C145.101 192.602 145.015 192.115 144.842 191.72C144.67 191.324 144.426 191.025 144.112 190.822C143.797 190.609 143.412 190.502 142.955 190.502ZM150.472 187.14V194.702C150.472 195.077 150.568 195.351 150.761 195.524C150.964 195.696 151.233 195.782 151.568 195.782C151.841 195.782 152.08 195.742 152.283 195.661C152.486 195.569 152.673 195.448 152.846 195.295L153.211 196.482C152.978 196.685 152.688 196.847 152.344 196.969C152.009 197.081 151.633 197.137 151.218 197.137C150.781 197.137 150.381 197.066 150.016 196.924C149.65 196.781 149.366 196.553 149.163 196.239C148.961 195.914 148.854 195.493 148.844 194.976V187.596L150.472 187.14ZM153.089 189.376V190.655H147.383V189.376H153.089ZM158.719 192.1C158.719 191.593 158.577 191.202 158.293 190.928C158.019 190.644 157.638 190.502 157.151 190.502C156.695 190.502 156.304 190.609 155.98 190.822C155.655 191.035 155.417 191.38 155.265 191.857L153.895 191.278C154.088 190.66 154.463 190.163 155.021 189.787C155.589 189.412 156.32 189.224 157.212 189.224C157.821 189.224 158.359 189.326 158.825 189.529C159.292 189.721 159.657 190.015 159.921 190.411C160.195 190.807 160.332 191.314 160.332 191.933V195.326C160.332 195.701 160.519 195.889 160.895 195.889C161.077 195.889 161.255 195.863 161.427 195.813L161.336 196.939C161.103 197.05 160.808 197.106 160.453 197.106C160.129 197.106 159.835 197.05 159.571 196.939C159.317 196.817 159.114 196.639 158.962 196.406C158.82 196.163 158.749 195.863 158.749 195.508V195.402L159.084 195.387C158.993 195.782 158.805 196.112 158.521 196.376C158.237 196.629 157.907 196.822 157.532 196.954C157.157 197.076 156.776 197.137 156.391 197.137C155.914 197.137 155.483 197.06 155.097 196.908C154.722 196.756 154.423 196.528 154.2 196.224C153.987 195.909 153.88 195.524 153.88 195.067C153.88 194.499 154.063 194.032 154.428 193.667C154.803 193.302 155.331 193.054 156.01 192.922L158.962 192.344L158.947 193.485L156.802 193.926C156.375 194.007 156.056 194.124 155.843 194.276C155.63 194.428 155.523 194.651 155.523 194.945C155.523 195.229 155.63 195.458 155.843 195.63C156.066 195.792 156.36 195.874 156.725 195.874C156.979 195.874 157.222 195.843 157.456 195.782C157.699 195.721 157.917 195.625 158.11 195.493C158.303 195.351 158.45 195.174 158.551 194.961C158.663 194.737 158.719 194.474 158.719 194.169V192.1ZM164.159 185.953V194.854C164.159 195.229 164.225 195.488 164.357 195.63C164.489 195.772 164.707 195.843 165.011 195.843C165.194 195.843 165.346 195.833 165.468 195.813C165.599 195.782 165.762 195.732 165.954 195.661L165.772 196.878C165.599 196.959 165.402 197.02 165.178 197.06C164.955 197.111 164.732 197.137 164.509 197.137C163.829 197.137 163.327 196.964 163.003 196.619C162.688 196.264 162.531 195.721 162.531 194.991V185.953H164.159ZM172.556 185.953V194.854C172.556 195.229 172.622 195.488 172.754 195.63C172.886 195.772 173.104 195.843 173.408 195.843C173.591 195.843 173.743 195.833 173.865 195.813C173.997 195.782 174.159 195.732 174.352 195.661L174.169 196.878C173.997 196.959 173.799 197.02 173.576 197.06C173.352 197.111 173.129 197.137 172.906 197.137C172.226 197.137 171.724 196.964 171.4 196.619C171.085 196.264 170.928 195.721 170.928 194.991V185.953H172.556ZM176.113 188.098C175.758 188.098 175.484 188.012 175.291 187.84C175.109 187.657 175.017 187.403 175.017 187.079C175.017 186.754 175.109 186.506 175.291 186.333C175.484 186.161 175.758 186.075 176.113 186.075C176.458 186.075 176.721 186.161 176.904 186.333C177.097 186.506 177.193 186.754 177.193 187.079C177.193 187.403 177.097 187.657 176.904 187.84C176.721 188.012 176.458 188.098 176.113 188.098ZM176.919 189.376V196.984H175.291V189.376H176.919ZM181.935 197.137C181.174 197.137 180.479 196.989 179.85 196.695C179.221 196.401 178.724 195.985 178.359 195.448L179.485 194.474C179.708 194.89 180.028 195.224 180.444 195.478C180.87 195.721 181.377 195.843 181.965 195.843C182.432 195.843 182.802 195.762 183.076 195.6C183.35 195.437 183.487 195.209 183.487 194.915C183.487 194.722 183.421 194.555 183.289 194.413C183.167 194.261 182.929 194.144 182.574 194.063L180.976 193.728C180.165 193.566 179.587 193.307 179.242 192.952C178.897 192.587 178.724 192.125 178.724 191.568C178.724 191.152 178.846 190.766 179.09 190.411C179.333 190.056 179.688 189.772 180.155 189.559C180.631 189.336 181.199 189.224 181.859 189.224C182.62 189.224 183.269 189.361 183.806 189.635C184.344 189.899 184.755 190.279 185.039 190.776L183.913 191.72C183.72 191.314 183.436 191.015 183.061 190.822C182.686 190.619 182.295 190.518 181.889 190.518C181.565 190.518 181.286 190.558 181.052 190.639C180.819 190.72 180.642 190.832 180.52 190.974C180.398 191.116 180.337 191.283 180.337 191.476C180.337 191.679 180.413 191.857 180.565 192.009C180.718 192.161 180.992 192.278 181.387 192.359L183.122 192.724C183.852 192.866 184.364 193.109 184.659 193.454C184.963 193.789 185.115 194.2 185.115 194.687C185.115 195.174 184.988 195.605 184.735 195.98C184.481 196.345 184.116 196.629 183.639 196.832C183.162 197.035 182.594 197.137 181.935 197.137ZM188.897 187.14V194.702C188.897 195.077 188.993 195.351 189.186 195.524C189.388 195.696 189.657 195.782 189.992 195.782C190.266 195.782 190.504 195.742 190.707 195.661C190.91 195.569 191.098 195.448 191.27 195.295L191.635 196.482C191.402 196.685 191.113 196.847 190.768 196.969C190.433 197.081 190.058 197.137 189.642 197.137C189.206 197.137 188.805 197.066 188.44 196.924C188.075 196.781 187.791 196.553 187.588 196.239C187.385 195.914 187.279 195.493 187.268 194.976V187.596L188.897 187.14ZM191.514 189.376V190.655H185.808V189.376H191.514ZM193.523 188.098C193.168 188.098 192.894 188.012 192.701 187.84C192.519 187.657 192.427 187.403 192.427 187.079C192.427 186.754 192.519 186.506 192.701 186.333C192.894 186.161 193.168 186.075 193.523 186.075C193.868 186.075 194.132 186.161 194.314 186.333C194.507 186.506 194.603 186.754 194.603 187.079C194.603 187.403 194.507 187.657 194.314 187.84C194.132 188.012 193.868 188.098 193.523 188.098ZM194.329 189.376V196.984H192.701V189.376H194.329ZM196.454 196.984V189.376H197.9L198.006 191.354L197.793 191.141C197.935 190.705 198.138 190.345 198.402 190.061C198.676 189.767 198.995 189.554 199.36 189.422C199.736 189.29 200.131 189.224 200.547 189.224C201.085 189.224 201.567 189.331 201.993 189.544C202.429 189.747 202.774 190.056 203.027 190.472C203.281 190.888 203.408 191.415 203.408 192.054V196.984H201.78V192.557C201.78 191.806 201.622 191.289 201.308 191.005C201.004 190.71 200.618 190.563 200.152 190.563C199.817 190.563 199.492 190.644 199.178 190.807C198.863 190.959 198.599 191.207 198.386 191.552C198.184 191.897 198.082 192.359 198.082 192.937V196.984H196.454ZM212.147 187.779L212.406 189.057C212.375 189.057 212.345 189.057 212.315 189.057C212.284 189.047 212.254 189.042 212.223 189.042C211.736 189.042 211.366 189.148 211.113 189.361C210.859 189.564 210.732 189.863 210.732 190.259L209.941 189.894C209.941 189.488 210.027 189.128 210.2 188.813C210.372 188.489 210.615 188.235 210.93 188.053C211.255 187.87 211.62 187.779 212.025 187.779C212.046 187.779 212.066 187.779 212.086 187.779C212.107 187.779 212.127 187.779 212.147 187.779ZM209.743 195.798C210.514 195.798 211.113 195.97 211.539 196.315C211.965 196.65 212.178 197.116 212.178 197.715C212.178 198.242 212.01 198.694 211.676 199.069C211.341 199.454 210.884 199.749 210.306 199.951C209.738 200.154 209.084 200.256 208.343 200.256C207.096 200.256 206.172 200.063 205.574 199.678C204.975 199.292 204.676 198.81 204.676 198.232C204.676 197.826 204.818 197.471 205.102 197.167C205.396 196.863 205.888 196.69 206.578 196.65L206.487 196.893C206.061 196.802 205.716 196.639 205.452 196.406C205.199 196.163 205.072 195.823 205.072 195.387C205.072 194.951 205.239 194.58 205.574 194.276C205.909 193.972 206.38 193.794 206.989 193.743L207.841 194.154H207.659C207.192 194.195 206.862 194.301 206.669 194.474C206.477 194.646 206.38 194.839 206.38 195.052C206.38 195.306 206.472 195.493 206.654 195.615C206.847 195.737 207.116 195.798 207.461 195.798H209.743ZM208.343 199.039C208.901 199.039 209.358 198.983 209.713 198.871C210.078 198.77 210.347 198.633 210.519 198.46C210.702 198.298 210.793 198.115 210.793 197.913C210.793 197.679 210.697 197.492 210.504 197.35C210.321 197.208 209.987 197.137 209.5 197.137H207.05C206.766 197.137 206.527 197.208 206.335 197.35C206.142 197.502 206.046 197.705 206.046 197.958C206.046 198.293 206.248 198.557 206.654 198.749C207.06 198.942 207.623 199.039 208.343 199.039ZM208.282 189.224C208.952 189.224 209.53 189.331 210.017 189.544C210.514 189.757 210.894 190.056 211.158 190.442C211.432 190.827 211.569 191.278 211.569 191.796C211.569 192.313 211.432 192.764 211.158 193.15C210.894 193.535 210.514 193.835 210.017 194.048C209.53 194.261 208.952 194.367 208.282 194.367C207.227 194.367 206.416 194.134 205.848 193.667C205.29 193.191 205.011 192.567 205.011 191.796C205.011 191.278 205.148 190.827 205.422 190.442C205.696 190.056 206.076 189.757 206.563 189.544C207.06 189.331 207.633 189.224 208.282 189.224ZM208.282 190.365C207.816 190.365 207.425 190.497 207.111 190.761C206.806 191.015 206.654 191.36 206.654 191.796C206.654 192.232 206.806 192.582 207.111 192.846C207.425 193.109 207.816 193.241 208.282 193.241C208.759 193.241 209.15 193.109 209.454 192.846C209.768 192.582 209.926 192.232 209.926 191.796C209.926 191.36 209.768 191.015 209.454 190.761C209.15 190.497 208.759 190.365 208.282 190.365ZM216.138 197.137C215.377 197.137 214.682 196.989 214.053 196.695C213.424 196.401 212.927 195.985 212.562 195.448L213.688 194.474C213.911 194.89 214.231 195.224 214.647 195.478C215.073 195.721 215.58 195.843 216.168 195.843C216.635 195.843 217.005 195.762 217.279 195.6C217.553 195.437 217.69 195.209 217.69 194.915C217.69 194.722 217.624 194.555 217.492 194.413C217.37 194.261 217.132 194.144 216.777 194.063L215.179 193.728C214.368 193.566 213.789 193.307 213.445 192.952C213.1 192.587 212.927 192.125 212.927 191.568C212.927 191.152 213.049 190.766 213.292 190.411C213.536 190.056 213.891 189.772 214.357 189.559C214.834 189.336 215.402 189.224 216.062 189.224C216.822 189.224 217.472 189.361 218.009 189.635C218.547 189.899 218.958 190.279 219.242 190.776L218.116 191.72C217.923 191.314 217.639 191.015 217.264 190.822C216.888 190.619 216.498 190.518 216.092 190.518C215.767 190.518 215.489 190.558 215.255 190.639C215.022 190.72 214.844 190.832 214.723 190.974C214.601 191.116 214.54 191.283 214.54 191.476C214.54 191.679 214.616 191.857 214.768 192.009C214.92 192.161 215.194 192.278 215.59 192.359L217.325 192.724C218.055 192.866 218.567 193.109 218.861 193.454C219.166 193.789 219.318 194.2 219.318 194.687C219.318 195.174 219.191 195.605 218.937 195.98C218.684 196.345 218.319 196.629 217.842 196.832C217.365 197.035 216.797 197.137 216.138 197.137Z" fill="#4B5353"/>
<path d="M159.474 235.747V223.493C159.474 223.133 159.474 222.763 159.474 222.384C159.492 221.987 159.51 221.573 159.528 221.14C158.915 221.735 158.211 222.249 157.418 222.682C156.642 223.096 155.84 223.394 155.01 223.574L154.469 221.059C154.848 221.005 155.29 220.878 155.795 220.68C156.3 220.482 156.823 220.229 157.364 219.923C157.905 219.616 158.401 219.291 158.852 218.949C159.302 218.588 159.654 218.236 159.906 217.894H162.341V235.747H159.474ZM172.515 236.018C170.369 236.018 168.682 235.242 167.456 233.691C166.248 232.122 165.644 229.832 165.644 226.82C165.644 223.809 166.248 221.528 167.456 219.977C168.682 218.408 170.369 217.623 172.515 217.623C174.679 217.623 176.365 218.408 177.573 219.977C178.799 221.528 179.412 223.809 179.412 226.82C179.412 229.832 178.799 232.122 177.573 233.691C176.365 235.242 174.679 236.018 172.515 236.018ZM172.515 233.556C173.38 233.556 174.102 233.313 174.679 232.826C175.274 232.321 175.716 231.572 176.004 230.58C176.311 229.571 176.464 228.317 176.464 226.82C176.464 225.324 176.311 224.079 176.004 223.087C175.716 222.078 175.274 221.329 174.679 220.842C174.102 220.337 173.38 220.085 172.515 220.085C171.649 220.085 170.919 220.337 170.323 220.842C169.746 221.329 169.314 222.078 169.025 223.087C168.737 224.079 168.592 225.324 168.592 226.82C168.592 228.317 168.737 229.571 169.025 230.58C169.314 231.572 169.746 232.321 170.323 232.826C170.919 233.313 171.649 233.556 172.515 233.556ZM188.655 236.018C186.509 236.018 184.823 235.242 183.597 233.691C182.388 232.122 181.784 229.832 181.784 226.82C181.784 223.809 182.388 221.528 183.597 219.977C184.823 218.408 186.509 217.623 188.655 217.623C190.819 217.623 192.505 218.408 193.714 219.977C194.94 221.528 195.553 223.809 195.553 226.82C195.553 229.832 194.94 232.122 193.714 233.691C192.505 235.242 190.819 236.018 188.655 236.018ZM188.655 233.556C189.521 233.556 190.242 233.313 190.819 232.826C191.414 232.321 191.856 231.572 192.145 230.58C192.451 229.571 192.604 228.317 192.604 226.82C192.604 225.324 192.451 224.079 192.145 223.087C191.856 222.078 191.414 221.329 190.819 220.842C190.242 220.337 189.521 220.085 188.655 220.085C187.789 220.085 187.059 220.337 186.464 220.842C185.887 221.329 185.454 222.078 185.166 223.087C184.877 224.079 184.733 225.324 184.733 226.82C184.733 228.317 184.877 229.571 185.166 230.58C185.454 231.572 185.887 232.321 186.464 232.826C187.059 233.313 187.789 233.556 188.655 233.556Z" fill="#242828"/>
<rect x="123.457" y="250.51" width="105.051" height="23.7626" rx="11.8813" fill="#F3FAF9"/>
<path d="M137.752 266.891V265.79C138.462 265.309 139.061 264.875 139.551 264.488C140.048 264.094 140.446 263.731 140.746 263.399C141.054 263.06 141.274 262.741 141.409 262.441C141.551 262.141 141.622 261.841 141.622 261.541C141.622 261.178 141.511 260.883 141.29 260.654C141.069 260.417 140.758 260.299 140.355 260.299C139.913 260.299 139.566 260.449 139.314 260.748C139.069 261.048 138.935 261.474 138.911 262.027L137.503 261.494C137.543 260.958 137.685 260.504 137.929 260.133C138.182 259.754 138.521 259.466 138.947 259.269C139.381 259.064 139.878 258.961 140.438 258.961C140.919 258.961 141.334 259.028 141.681 259.163C142.036 259.297 142.328 259.482 142.557 259.719C142.793 259.948 142.971 260.212 143.089 260.512C143.207 260.812 143.267 261.123 143.267 261.447C143.267 261.952 143.14 262.429 142.888 262.879C142.643 263.328 142.265 263.774 141.752 264.216C141.239 264.658 140.588 265.123 139.799 265.612V265.624C139.917 265.616 140.059 265.609 140.225 265.601C140.399 265.593 140.576 265.589 140.758 265.589C140.939 265.581 141.097 265.577 141.231 265.577H143.385V266.891H137.752ZM150.972 263.115C150.972 262.776 150.873 262.512 150.676 262.322C150.486 262.133 150.234 262.038 149.918 262.038C149.626 262.038 149.37 262.113 149.149 262.263C148.928 262.413 148.766 262.662 148.664 263.009L147.279 262.583C147.413 262.062 147.705 261.644 148.155 261.328C148.613 261.013 149.224 260.855 149.989 260.855C150.51 260.855 150.964 260.938 151.35 261.103C151.737 261.261 152.037 261.502 152.25 261.825C152.471 262.149 152.581 262.555 152.581 263.044V265.447C152.581 265.747 152.723 265.897 153.007 265.897C153.141 265.897 153.268 265.877 153.386 265.837L153.291 266.843C153.086 266.946 152.83 266.997 152.522 266.997C152.246 266.997 151.997 266.95 151.776 266.855C151.555 266.76 151.382 266.618 151.256 266.429C151.129 266.232 151.066 265.987 151.066 265.695V265.648L151.35 265.601C151.303 265.9 151.173 266.157 150.96 266.37C150.747 266.575 150.486 266.733 150.179 266.843C149.879 266.954 149.567 267.009 149.244 267.009C148.841 267.009 148.494 266.95 148.202 266.831C147.91 266.705 147.686 266.524 147.528 266.287C147.37 266.05 147.291 265.758 147.291 265.411C147.291 264.969 147.433 264.61 147.717 264.334C148.001 264.05 148.407 263.857 148.936 263.754L151.161 263.305L151.149 264.311L149.729 264.595C149.461 264.65 149.256 264.725 149.114 264.82C148.979 264.906 148.912 265.052 148.912 265.257C148.912 265.455 148.983 265.605 149.125 265.707C149.275 265.81 149.453 265.861 149.658 265.861C149.824 265.861 149.985 265.841 150.143 265.802C150.301 265.762 150.443 265.699 150.569 265.612C150.695 265.526 150.794 265.407 150.865 265.257C150.936 265.108 150.972 264.926 150.972 264.713V263.115ZM156.185 267.009C155.696 267.009 155.258 266.887 154.872 266.642C154.493 266.398 154.193 266.046 153.972 265.589C153.759 265.131 153.653 264.583 153.653 263.944C153.653 263.289 153.767 262.733 153.996 262.275C154.225 261.81 154.532 261.459 154.919 261.222C155.314 260.977 155.755 260.855 156.245 260.855C156.765 260.855 157.195 261.005 157.534 261.305C157.874 261.604 158.095 261.991 158.197 262.464L158.043 262.654V258.382H159.665V266.891H158.209L158.103 265.092L158.304 265.186C158.249 265.557 158.122 265.881 157.925 266.157C157.728 266.425 157.479 266.634 157.179 266.784C156.88 266.934 156.548 267.009 156.185 267.009ZM156.659 265.766C156.943 265.766 157.187 265.695 157.392 265.553C157.598 265.403 157.755 265.186 157.866 264.902C157.984 264.618 158.043 264.279 158.043 263.885C158.043 263.506 157.988 263.186 157.878 262.926C157.767 262.658 157.609 262.453 157.404 262.311C157.199 262.169 156.959 262.098 156.682 262.098C156.241 262.098 155.893 262.255 155.641 262.571C155.396 262.879 155.274 263.332 155.274 263.932C155.274 264.532 155.396 264.989 155.641 265.305C155.886 265.612 156.225 265.766 156.659 265.766ZM163.182 267.009C162.693 267.009 162.255 266.887 161.869 266.642C161.49 266.398 161.19 266.046 160.969 265.589C160.756 265.131 160.65 264.583 160.65 263.944C160.65 263.289 160.764 262.733 160.993 262.275C161.222 261.81 161.53 261.459 161.916 261.222C162.311 260.977 162.752 260.855 163.242 260.855C163.762 260.855 164.192 261.005 164.532 261.305C164.871 261.604 165.092 261.991 165.194 262.464L165.04 262.654V258.382H166.662V266.891H165.206L165.1 265.092L165.301 265.186C165.246 265.557 165.119 265.881 164.922 266.157C164.725 266.425 164.476 266.634 164.177 266.784C163.877 266.934 163.545 267.009 163.182 267.009ZM163.656 265.766C163.94 265.766 164.184 265.695 164.39 265.553C164.595 265.403 164.752 265.186 164.863 264.902C164.981 264.618 165.04 264.279 165.04 263.885C165.04 263.506 164.985 263.186 164.875 262.926C164.764 262.658 164.607 262.453 164.401 262.311C164.196 262.169 163.956 262.098 163.679 262.098C163.238 262.098 162.891 262.255 162.638 262.571C162.393 262.879 162.271 263.332 162.271 263.932C162.271 264.532 162.393 264.989 162.638 265.305C162.883 265.612 163.222 265.766 163.656 265.766ZM170.688 267.009C170.065 267.009 169.521 266.887 169.055 266.642C168.598 266.398 168.243 266.046 167.99 265.589C167.738 265.131 167.611 264.579 167.611 263.932C167.611 263.285 167.738 262.733 167.99 262.275C168.243 261.818 168.594 261.466 169.043 261.222C169.501 260.977 170.022 260.855 170.606 260.855C171.205 260.855 171.714 260.977 172.132 261.222C172.55 261.459 172.87 261.786 173.091 262.204C173.312 262.614 173.422 263.084 173.422 263.612C173.422 263.77 173.418 263.92 173.41 264.062C173.402 264.204 173.391 264.33 173.375 264.441H168.653V263.317H172.665L171.884 263.601C171.884 263.104 171.769 262.721 171.54 262.453C171.32 262.184 171.004 262.05 170.594 262.05C170.294 262.05 170.034 262.121 169.813 262.263C169.6 262.405 169.438 262.618 169.327 262.902C169.217 263.179 169.162 263.53 169.162 263.956C169.162 264.374 169.221 264.721 169.339 264.997C169.465 265.265 169.639 265.467 169.86 265.601C170.089 265.735 170.361 265.802 170.677 265.802C171.024 265.802 171.304 265.735 171.517 265.601C171.73 265.467 171.896 265.281 172.014 265.044L173.304 265.541C173.178 265.849 172.984 266.113 172.724 266.334C172.471 266.555 172.168 266.725 171.813 266.843C171.466 266.954 171.091 267.009 170.688 267.009ZM176.61 267.009C176.121 267.009 175.683 266.887 175.297 266.642C174.918 266.398 174.618 266.046 174.397 265.589C174.184 265.131 174.078 264.583 174.078 263.944C174.078 263.289 174.192 262.733 174.421 262.275C174.65 261.81 174.957 261.459 175.344 261.222C175.738 260.977 176.18 260.855 176.669 260.855C177.19 260.855 177.62 261.005 177.959 261.305C178.299 261.604 178.52 261.991 178.622 262.464L178.468 262.654V258.382H180.09V266.891H178.634L178.527 265.092L178.729 265.186C178.673 265.557 178.547 265.881 178.35 266.157C178.153 266.425 177.904 266.634 177.604 266.784C177.305 266.934 176.973 267.009 176.61 267.009ZM177.084 265.766C177.368 265.766 177.612 265.695 177.817 265.553C178.023 265.403 178.18 265.186 178.291 264.902C178.409 264.618 178.468 264.279 178.468 263.885C178.468 263.506 178.413 263.186 178.303 262.926C178.192 262.658 178.034 262.453 177.829 262.311C177.624 262.169 177.383 262.098 177.107 262.098C176.666 262.098 176.318 262.255 176.066 262.571C175.821 262.879 175.699 263.332 175.699 263.932C175.699 264.532 175.821 264.989 176.066 265.305C176.31 265.612 176.65 265.766 177.084 265.766ZM186.521 259.163V264.962C186.521 265.246 186.592 265.455 186.734 265.589C186.884 265.715 187.086 265.778 187.338 265.778C187.535 265.778 187.709 265.751 187.859 265.695C188.009 265.632 188.143 265.549 188.261 265.447L188.521 266.524C188.332 266.674 188.095 266.792 187.811 266.879C187.527 266.966 187.228 267.009 186.912 267.009C186.517 267.009 186.166 266.95 185.859 266.831C185.559 266.713 185.322 266.524 185.149 266.263C184.983 266.003 184.9 265.656 184.9 265.222V259.612L186.521 259.163ZM188.415 260.973V262.18H183.811V260.973H188.415ZM191.788 260.855C192.387 260.855 192.912 260.977 193.362 261.222C193.819 261.466 194.174 261.818 194.427 262.275C194.687 262.733 194.817 263.285 194.817 263.932C194.817 264.571 194.687 265.123 194.427 265.589C194.174 266.046 193.819 266.398 193.362 266.642C192.912 266.887 192.387 267.009 191.788 267.009C191.196 267.009 190.671 266.887 190.214 266.642C189.756 266.398 189.397 266.046 189.137 265.589C188.884 265.123 188.758 264.571 188.758 263.932C188.758 263.285 188.884 262.733 189.137 262.275C189.397 261.818 189.756 261.466 190.214 261.222C190.671 260.977 191.196 260.855 191.788 260.855ZM191.788 262.062C191.488 262.062 191.231 262.133 191.018 262.275C190.813 262.409 190.655 262.614 190.545 262.891C190.434 263.167 190.379 263.514 190.379 263.932C190.379 264.35 190.434 264.697 190.545 264.973C190.655 265.25 190.813 265.459 191.018 265.601C191.231 265.735 191.488 265.802 191.788 265.802C192.079 265.802 192.328 265.735 192.533 265.601C192.746 265.459 192.908 265.25 193.018 264.973C193.129 264.697 193.184 264.35 193.184 263.932C193.184 263.514 193.129 263.167 193.018 262.891C192.908 262.614 192.746 262.409 192.533 262.275C192.328 262.133 192.079 262.062 191.788 262.062ZM197.988 267.009C197.499 267.009 197.061 266.887 196.674 266.642C196.296 266.398 195.996 266.046 195.775 265.589C195.562 265.131 195.455 264.583 195.455 263.944C195.455 263.289 195.57 262.733 195.798 262.275C196.027 261.81 196.335 261.459 196.722 261.222C197.116 260.977 197.558 260.855 198.047 260.855C198.568 260.855 198.998 261.005 199.337 261.305C199.676 261.604 199.897 261.991 200 262.464L199.846 262.654V258.382H201.467V266.891H200.012L199.905 265.092L200.106 265.186C200.051 265.557 199.925 265.881 199.728 266.157C199.53 266.425 199.282 266.634 198.982 266.784C198.682 266.934 198.351 267.009 197.988 267.009ZM198.461 265.766C198.745 265.766 198.99 265.695 199.195 265.553C199.4 265.403 199.558 265.186 199.668 264.902C199.787 264.618 199.846 264.279 199.846 263.885C199.846 263.506 199.791 263.186 199.68 262.926C199.57 262.658 199.412 262.453 199.207 262.311C199.002 262.169 198.761 262.098 198.485 262.098C198.043 262.098 197.696 262.255 197.443 262.571C197.199 262.879 197.077 263.332 197.077 263.932C197.077 264.532 197.199 264.989 197.443 265.305C197.688 265.612 198.027 265.766 198.461 265.766ZM206.121 263.115C206.121 262.776 206.022 262.512 205.825 262.322C205.636 262.133 205.383 262.038 205.068 262.038C204.776 262.038 204.519 262.113 204.299 262.263C204.078 262.413 203.916 262.662 203.813 263.009L202.429 262.583C202.563 262.062 202.855 261.644 203.304 261.328C203.762 261.013 204.374 260.855 205.139 260.855C205.66 260.855 206.113 260.938 206.5 261.103C206.886 261.261 207.186 261.502 207.399 261.825C207.62 262.149 207.731 262.555 207.731 263.044V265.447C207.731 265.747 207.873 265.897 208.157 265.897C208.291 265.897 208.417 265.877 208.535 265.837L208.441 266.843C208.236 266.946 207.979 266.997 207.671 266.997C207.395 266.997 207.147 266.95 206.926 266.855C206.705 266.76 206.531 266.618 206.405 266.429C206.279 266.232 206.216 265.987 206.216 265.695V265.648L206.5 265.601C206.452 265.9 206.322 266.157 206.109 266.37C205.896 266.575 205.636 266.733 205.328 266.843C205.028 266.954 204.717 267.009 204.393 267.009C203.991 267.009 203.644 266.95 203.352 266.831C203.06 266.705 202.835 266.524 202.677 266.287C202.519 266.05 202.441 265.758 202.441 265.411C202.441 264.969 202.583 264.61 202.867 264.334C203.151 264.05 203.557 263.857 204.086 263.754L206.31 263.305L206.299 264.311L204.878 264.595C204.61 264.65 204.405 264.725 204.263 264.82C204.129 264.906 204.062 265.052 204.062 265.257C204.062 265.455 204.133 265.605 204.275 265.707C204.425 265.81 204.602 265.861 204.807 265.861C204.973 265.861 205.135 265.841 205.293 265.802C205.45 265.762 205.592 265.699 205.719 265.612C205.845 265.526 205.944 265.407 206.015 265.257C206.086 265.108 206.121 264.926 206.121 264.713V263.115ZM214.314 260.973L211.923 267.257C211.734 267.794 211.521 268.22 211.284 268.536C211.055 268.851 210.787 269.08 210.479 269.222C210.179 269.364 209.82 269.435 209.402 269.435C209.095 269.435 208.811 269.396 208.55 269.317C208.298 269.246 208.077 269.151 207.887 269.033L208.231 267.861C208.381 267.979 208.538 268.062 208.704 268.11C208.87 268.165 209.059 268.192 209.272 268.192C209.493 268.192 209.682 268.145 209.84 268.05C210.006 267.956 210.144 267.766 210.254 267.482L210.456 266.973L209.805 265.435L207.994 260.973H209.793L210.917 264.524L211.225 265.707L211.592 264.453L212.669 260.973H214.314Z" fill="#049AB6"/>
<rect x="234.35" y="124.079" width="166.53" height="163.149" rx="7.1853" stroke="#E5E8E7" stroke-width="0.845329"/>
<rect x="300.708" y="141.408" width="33.8132" height="33.8132" rx="16.9066" fill="#0095FF"/>
<path d="M317.038 150.708H311.772C310.089 150.708 309.244 151.562 309.244 153.261V166.769H313.809V163.599C313.809 163.253 314.096 162.965 314.443 162.965C314.79 162.965 315.077 163.244 315.077 163.599V166.769H319.557V153.261C319.557 151.562 318.72 150.708 317.038 150.708ZM316.556 158.95H312.372C312.025 158.95 311.738 158.663 311.738 158.316C311.738 157.969 312.025 157.682 312.372 157.682H316.556C316.903 157.682 317.19 157.969 317.19 158.316C317.19 158.663 316.903 158.95 316.556 158.95ZM316.556 155.78H312.372C312.025 155.78 311.738 155.493 311.738 155.146C311.738 154.799 312.025 154.512 312.372 154.512H316.556C316.903 154.512 317.19 154.799 317.19 155.146C317.19 155.493 316.903 155.78 316.556 155.78Z" fill="#FCFDFD"/>
<path d="M326.912 166.136H324.993V163.6C325.796 163.338 326.379 162.585 326.379 161.698V160.007C326.379 158.9 325.475 157.995 324.367 157.995C323.26 157.995 322.356 158.9 322.356 160.007V161.698C322.356 162.577 322.93 163.321 323.717 163.591V166.136H308.315C307.968 166.136 307.681 166.423 307.681 166.77C307.681 167.116 307.968 167.404 308.315 167.404H324.317C324.334 167.404 324.342 167.412 324.359 167.412C324.376 167.412 324.384 167.404 324.401 167.404H326.912C327.258 167.404 327.546 167.116 327.546 166.77C327.546 166.423 327.258 166.136 326.912 166.136Z" fill="#FCFDFD"/>
<path d="M277.945 196.984H276.225L275.267 194.352H271.052L270.093 196.984H268.42L272.208 186.942H274.156L277.945 196.984ZM271.508 193.028H274.81L273.167 188.342L271.508 193.028ZM282.198 189.224C282.807 189.224 283.324 189.316 283.75 189.498C284.186 189.671 284.551 189.919 284.845 190.244C285.14 190.568 285.363 190.939 285.515 191.354L283.978 191.963C283.846 191.496 283.633 191.141 283.339 190.898C283.055 190.644 282.68 190.518 282.213 190.518C281.757 190.518 281.366 190.624 281.041 190.837C280.717 191.04 280.468 191.339 280.296 191.735C280.134 192.13 280.052 192.617 280.052 193.196C280.052 193.764 280.139 194.246 280.311 194.641C280.484 195.037 280.732 195.336 281.057 195.539C281.381 195.742 281.767 195.843 282.213 195.843C282.558 195.843 282.857 195.787 283.111 195.676C283.364 195.554 283.572 195.387 283.735 195.174C283.907 194.951 284.024 194.682 284.085 194.367L285.561 194.869C285.419 195.326 285.195 195.727 284.891 196.071C284.597 196.406 284.227 196.67 283.78 196.863C283.334 197.045 282.822 197.137 282.244 197.137C281.493 197.137 280.828 196.979 280.25 196.665C279.672 196.35 279.221 195.899 278.896 195.311C278.582 194.712 278.424 194.002 278.424 193.18C278.424 192.359 278.582 191.654 278.896 191.065C279.221 190.467 279.667 190.01 280.235 189.696C280.813 189.381 281.468 189.224 282.198 189.224ZM289.254 187.14V194.702C289.254 195.077 289.351 195.351 289.543 195.524C289.746 195.696 290.015 195.782 290.35 195.782C290.624 195.782 290.862 195.742 291.065 195.661C291.268 195.569 291.455 195.448 291.628 195.295L291.993 196.482C291.76 196.685 291.471 196.847 291.126 196.969C290.791 197.081 290.416 197.137 290 197.137C289.564 197.137 289.163 197.066 288.798 196.924C288.433 196.781 288.148 196.553 287.946 196.239C287.743 195.914 287.636 195.493 287.626 194.976V187.596L289.254 187.14ZM291.871 189.376V190.655H286.165V189.376H291.871ZM293.881 188.098C293.526 188.098 293.252 188.012 293.059 187.84C292.876 187.657 292.785 187.403 292.785 187.079C292.785 186.754 292.876 186.506 293.059 186.333C293.252 186.161 293.526 186.075 293.881 186.075C294.225 186.075 294.489 186.161 294.672 186.333C294.865 186.506 294.961 186.754 294.961 187.079C294.961 187.403 294.865 187.657 294.672 187.84C294.489 188.012 294.225 188.098 293.881 188.098ZM294.687 189.376V196.984H293.059V189.376H294.687ZM301.818 189.376H303.522L300.494 196.984H298.714L295.671 189.376H297.451L299.611 195.569L301.818 189.376ZM307.79 197.137C307.03 197.137 306.36 196.979 305.782 196.665C305.204 196.35 304.752 195.899 304.428 195.311C304.113 194.712 303.956 194.002 303.956 193.18C303.956 192.359 304.113 191.654 304.428 191.065C304.752 190.467 305.199 190.01 305.767 189.696C306.335 189.381 306.979 189.224 307.699 189.224C308.44 189.224 309.068 189.376 309.586 189.681C310.103 189.985 310.499 190.401 310.773 190.928C311.047 191.456 311.183 192.054 311.183 192.724C311.183 192.907 311.178 193.079 311.168 193.241C311.158 193.404 311.143 193.546 311.123 193.667H305.006V192.42H310.407L309.601 192.663C309.601 191.973 309.429 191.446 309.084 191.081C308.739 190.705 308.267 190.518 307.669 190.518C307.232 190.518 306.852 190.619 306.527 190.822C306.203 191.025 305.954 191.329 305.782 191.735C305.609 192.13 305.523 192.617 305.523 193.196C305.523 193.764 305.614 194.246 305.797 194.641C305.98 195.037 306.238 195.336 306.573 195.539C306.908 195.742 307.303 195.843 307.76 195.843C308.267 195.843 308.678 195.747 308.992 195.554C309.307 195.361 309.555 195.093 309.738 194.748L311.031 195.356C310.849 195.721 310.6 196.041 310.286 196.315C309.981 196.579 309.616 196.781 309.19 196.924C308.764 197.066 308.298 197.137 307.79 197.137ZM318.925 185.953V194.854C318.925 195.229 318.991 195.488 319.123 195.63C319.254 195.772 319.473 195.843 319.777 195.843C319.959 195.843 320.112 195.833 320.233 195.813C320.365 195.782 320.528 195.732 320.72 195.661L320.538 196.878C320.365 196.959 320.167 197.02 319.944 197.06C319.721 197.111 319.498 197.137 319.275 197.137C318.595 197.137 318.093 196.964 317.768 196.619C317.454 196.264 317.297 195.721 317.297 194.991V185.953H318.925ZM322.481 188.098C322.126 188.098 321.853 188.012 321.66 187.84C321.477 187.657 321.386 187.403 321.386 187.079C321.386 186.754 321.477 186.506 321.66 186.333C321.853 186.161 322.126 186.075 322.481 186.075C322.826 186.075 323.09 186.161 323.273 186.333C323.465 186.506 323.562 186.754 323.562 187.079C323.562 187.403 323.465 187.657 323.273 187.84C323.09 188.012 322.826 188.098 322.481 188.098ZM323.288 189.376V196.984H321.66V189.376H323.288ZM328.304 197.137C327.543 197.137 326.848 196.989 326.219 196.695C325.59 196.401 325.093 195.985 324.728 195.448L325.854 194.474C326.077 194.89 326.397 195.224 326.812 195.478C327.239 195.721 327.746 195.843 328.334 195.843C328.801 195.843 329.171 195.762 329.445 195.6C329.719 195.437 329.856 195.209 329.856 194.915C329.856 194.722 329.79 194.555 329.658 194.413C329.536 194.261 329.298 194.144 328.943 194.063L327.345 193.728C326.534 193.566 325.955 193.307 325.61 192.952C325.266 192.587 325.093 192.125 325.093 191.568C325.093 191.152 325.215 190.766 325.458 190.411C325.702 190.056 326.057 189.772 326.523 189.559C327 189.336 327.568 189.224 328.228 189.224C328.988 189.224 329.638 189.361 330.175 189.635C330.713 189.899 331.124 190.279 331.408 190.776L330.282 191.72C330.089 191.314 329.805 191.015 329.43 190.822C329.054 190.619 328.664 190.518 328.258 190.518C327.933 190.518 327.654 190.558 327.421 190.639C327.188 190.72 327.01 190.832 326.889 190.974C326.767 191.116 326.706 191.283 326.706 191.476C326.706 191.679 326.782 191.857 326.934 192.009C327.086 192.161 327.36 192.278 327.756 192.359L329.49 192.724C330.221 192.866 330.733 193.109 331.027 193.454C331.332 193.789 331.484 194.2 331.484 194.687C331.484 195.174 331.357 195.605 331.103 195.98C330.85 196.345 330.485 196.629 330.008 196.832C329.531 197.035 328.963 197.137 328.304 197.137ZM335.265 187.14V194.702C335.265 195.077 335.362 195.351 335.554 195.524C335.757 195.696 336.026 195.782 336.361 195.782C336.635 195.782 336.873 195.742 337.076 195.661C337.279 195.569 337.466 195.448 337.639 195.295L338.004 196.482C337.771 196.685 337.482 196.847 337.137 196.969C336.802 197.081 336.427 197.137 336.011 197.137C335.575 197.137 335.174 197.066 334.809 196.924C334.444 196.781 334.16 196.553 333.957 196.239C333.754 195.914 333.647 195.493 333.637 194.976V187.596L335.265 187.14ZM337.882 189.376V190.655H332.176V189.376H337.882ZM339.892 188.098C339.537 188.098 339.263 188.012 339.07 187.84C338.887 187.657 338.796 187.403 338.796 187.079C338.796 186.754 338.887 186.506 339.07 186.333C339.263 186.161 339.537 186.075 339.892 186.075C340.237 186.075 340.5 186.161 340.683 186.333C340.876 186.506 340.972 186.754 340.972 187.079C340.972 187.403 340.876 187.657 340.683 187.84C340.5 188.012 340.237 188.098 339.892 188.098ZM340.698 189.376V196.984H339.07V189.376H340.698ZM342.823 196.984V189.376H344.268L344.375 191.354L344.162 191.141C344.304 190.705 344.507 190.345 344.77 190.061C345.044 189.767 345.364 189.554 345.729 189.422C346.104 189.29 346.5 189.224 346.916 189.224C347.453 189.224 347.935 189.331 348.361 189.544C348.798 189.747 349.142 190.056 349.396 190.472C349.65 190.888 349.776 191.415 349.776 192.054V196.984H348.148V192.557C348.148 191.806 347.991 191.289 347.677 191.005C347.372 190.71 346.987 190.563 346.52 190.563C346.185 190.563 345.861 190.644 345.546 190.807C345.232 190.959 344.968 191.207 344.755 191.552C344.552 191.897 344.451 192.359 344.451 192.937V196.984H342.823ZM358.516 187.779L358.775 189.057C358.744 189.057 358.714 189.057 358.683 189.057C358.653 189.047 358.622 189.042 358.592 189.042C358.105 189.042 357.735 189.148 357.481 189.361C357.228 189.564 357.101 189.863 357.101 190.259L356.31 189.894C356.31 189.488 356.396 189.128 356.568 188.813C356.741 188.489 356.984 188.235 357.299 188.053C357.623 187.87 357.988 187.779 358.394 187.779C358.414 187.779 358.435 187.779 358.455 187.779C358.475 187.779 358.496 187.779 358.516 187.779ZM356.112 195.798C356.883 195.798 357.481 195.97 357.907 196.315C358.333 196.65 358.546 197.116 358.546 197.715C358.546 198.242 358.379 198.694 358.044 199.069C357.709 199.454 357.253 199.749 356.675 199.951C356.107 200.154 355.452 200.256 354.712 200.256C353.464 200.256 352.541 200.063 351.943 199.678C351.344 199.292 351.045 198.81 351.045 198.232C351.045 197.826 351.187 197.471 351.471 197.167C351.765 196.863 352.257 196.69 352.947 196.65L352.856 196.893C352.43 196.802 352.085 196.639 351.821 196.406C351.567 196.163 351.44 195.823 351.44 195.387C351.44 194.951 351.608 194.58 351.943 194.276C352.277 193.972 352.749 193.794 353.358 193.743L354.21 194.154H354.027C353.561 194.195 353.231 194.301 353.038 194.474C352.845 194.646 352.749 194.839 352.749 195.052C352.749 195.306 352.84 195.493 353.023 195.615C353.216 195.737 353.484 195.798 353.829 195.798H356.112ZM354.712 199.039C355.27 199.039 355.726 198.983 356.081 198.871C356.447 198.77 356.715 198.633 356.888 198.46C357.07 198.298 357.162 198.115 357.162 197.913C357.162 197.679 357.065 197.492 356.873 197.35C356.69 197.208 356.355 197.137 355.868 197.137H353.419C353.135 197.137 352.896 197.208 352.703 197.35C352.511 197.502 352.414 197.705 352.414 197.958C352.414 198.293 352.617 198.557 353.023 198.749C353.429 198.942 353.992 199.039 354.712 199.039ZM354.651 189.224C355.321 189.224 355.899 189.331 356.386 189.544C356.883 189.757 357.263 190.056 357.527 190.442C357.801 190.827 357.938 191.278 357.938 191.796C357.938 192.313 357.801 192.764 357.527 193.15C357.263 193.535 356.883 193.835 356.386 194.048C355.899 194.261 355.321 194.367 354.651 194.367C353.596 194.367 352.785 194.134 352.217 193.667C351.659 193.191 351.38 192.567 351.38 191.796C351.38 191.278 351.517 190.827 351.79 190.442C352.064 190.056 352.445 189.757 352.932 189.544C353.429 189.331 354.002 189.224 354.651 189.224ZM354.651 190.365C354.184 190.365 353.794 190.497 353.479 190.761C353.175 191.015 353.023 191.36 353.023 191.796C353.023 192.232 353.175 192.582 353.479 192.846C353.794 193.109 354.184 193.241 354.651 193.241C355.128 193.241 355.518 193.109 355.823 192.846C356.137 192.582 356.294 192.232 356.294 191.796C356.294 191.36 356.137 191.015 355.823 190.761C355.518 190.497 355.128 190.365 354.651 190.365ZM362.506 197.137C361.746 197.137 361.051 196.989 360.422 196.695C359.793 196.401 359.296 195.985 358.931 195.448L360.057 194.474C360.28 194.89 360.599 195.224 361.015 195.478C361.441 195.721 361.949 195.843 362.537 195.843C363.004 195.843 363.374 195.762 363.648 195.6C363.922 195.437 364.058 195.209 364.058 194.915C364.058 194.722 363.993 194.555 363.861 194.413C363.739 194.261 363.501 194.144 363.146 194.063L361.548 193.728C360.736 193.566 360.158 193.307 359.813 192.952C359.468 192.587 359.296 192.125 359.296 191.568C359.296 191.152 359.418 190.766 359.661 190.411C359.905 190.056 360.26 189.772 360.726 189.559C361.203 189.336 361.771 189.224 362.43 189.224C363.191 189.224 363.84 189.361 364.378 189.635C364.916 189.899 365.326 190.279 365.61 190.776L364.485 191.72C364.292 191.314 364.008 191.015 363.632 190.822C363.257 190.619 362.867 190.518 362.461 190.518C362.136 190.518 361.857 190.558 361.624 190.639C361.391 190.72 361.213 190.832 361.091 190.974C360.97 191.116 360.909 191.283 360.909 191.476C360.909 191.679 360.985 191.857 361.137 192.009C361.289 192.161 361.563 192.278 361.959 192.359L363.693 192.724C364.424 192.866 364.936 193.109 365.23 193.454C365.534 193.789 365.687 194.2 365.687 194.687C365.687 195.174 365.56 195.605 365.306 195.98C365.053 196.345 364.687 196.629 364.211 196.832C363.734 197.035 363.166 197.137 362.506 197.137Z" fill="#4B5353"/>
<path d="M302.643 217.894H316.25V220.301C314.753 221.852 313.545 223.448 312.625 225.089C311.705 226.712 311.038 228.407 310.623 230.175C310.226 231.924 310.028 233.781 310.028 235.747H307.106C307.106 233.763 307.35 231.834 307.837 229.958C308.342 228.065 309.099 226.261 310.109 224.548C311.137 222.817 312.426 221.194 313.977 219.679L314.518 220.409H302.643V217.894ZM324.242 236.018C322.096 236.018 320.41 235.242 319.184 233.691C317.975 232.122 317.371 229.832 317.371 226.82C317.371 223.809 317.975 221.528 319.184 219.977C320.41 218.408 322.096 217.623 324.242 217.623C326.406 217.623 328.092 218.408 329.3 219.977C330.527 221.528 331.14 223.809 331.14 226.82C331.14 229.832 330.527 232.122 329.3 233.691C328.092 235.242 326.406 236.018 324.242 236.018ZM324.242 233.556C325.108 233.556 325.829 233.313 326.406 232.826C327.001 232.321 327.443 231.572 327.731 230.58C328.038 229.571 328.191 228.317 328.191 226.82C328.191 225.324 328.038 224.079 327.731 223.087C327.443 222.078 327.001 221.329 326.406 220.842C325.829 220.337 325.108 220.085 324.242 220.085C323.376 220.085 322.646 220.337 322.051 220.842C321.474 221.329 321.041 222.078 320.752 223.087C320.464 224.079 320.32 225.324 320.32 226.82C320.32 228.317 320.464 229.571 320.752 230.58C321.041 231.572 321.474 232.321 322.051 232.826C322.646 233.313 323.376 233.556 324.242 233.556Z" fill="#242828"/>
<rect x="258.09" y="250.51" width="119.051" height="23.7626" rx="11.8813" fill="#E6F3FF"/>
<path d="M275 267.009C274.314 267.009 273.734 266.867 273.26 266.583C272.795 266.299 272.412 265.865 272.112 265.281L273.58 264.547C273.682 264.895 273.844 265.175 274.065 265.388C274.286 265.601 274.609 265.707 275.035 265.707C275.327 265.707 275.576 265.656 275.781 265.553C275.986 265.451 276.144 265.301 276.254 265.104C276.373 264.906 276.432 264.666 276.432 264.382C276.432 264.098 276.377 263.861 276.266 263.672C276.164 263.474 276.014 263.328 275.817 263.234C275.619 263.131 275.371 263.08 275.071 263.08C274.866 263.08 274.673 263.1 274.491 263.139C274.317 263.179 274.16 263.242 274.018 263.328C273.876 263.407 273.749 263.514 273.639 263.648L272.361 263.411L272.846 259.08H277.568V260.393H274.077L273.84 262.299L273.805 262.453H273.828C273.994 262.263 274.219 262.117 274.503 262.015C274.795 261.912 275.126 261.861 275.497 261.861C276.01 261.861 276.448 261.963 276.811 262.169C277.174 262.374 277.454 262.662 277.651 263.033C277.848 263.395 277.947 263.814 277.947 264.287C277.947 264.737 277.872 265.135 277.722 265.482C277.572 265.822 277.359 266.106 277.083 266.334C276.815 266.555 276.503 266.725 276.148 266.843C275.793 266.954 275.41 267.009 275 267.009ZM285.571 259.08C286.171 259.08 286.684 259.182 287.11 259.387C287.536 259.585 287.863 259.873 288.092 260.251C288.329 260.622 288.447 261.072 288.447 261.601C288.447 262.129 288.329 262.583 288.092 262.962C287.863 263.332 287.536 263.62 287.11 263.825C286.684 264.023 286.171 264.121 285.571 264.121H283.926V266.891H282.293V259.08H285.571ZM285.323 262.831C285.812 262.831 286.179 262.729 286.423 262.524C286.668 262.311 286.79 262.003 286.79 261.601C286.79 261.19 286.668 260.883 286.423 260.677C286.179 260.472 285.812 260.37 285.323 260.37H283.926V262.831H285.323ZM292.729 263.115C292.729 262.776 292.63 262.512 292.433 262.322C292.243 262.133 291.991 262.038 291.675 262.038C291.383 262.038 291.127 262.113 290.906 262.263C290.685 262.413 290.523 262.662 290.421 263.009L289.036 262.583C289.17 262.062 289.462 261.644 289.912 261.328C290.37 261.013 290.981 260.855 291.746 260.855C292.267 260.855 292.721 260.938 293.107 261.103C293.494 261.261 293.794 261.502 294.007 261.825C294.228 262.149 294.338 262.555 294.338 263.044V265.447C294.338 265.747 294.48 265.897 294.764 265.897C294.898 265.897 295.025 265.877 295.143 265.837L295.048 266.843C294.843 266.946 294.587 266.997 294.279 266.997C294.003 266.997 293.754 266.95 293.533 266.855C293.312 266.76 293.139 266.618 293.013 266.429C292.886 266.232 292.823 265.987 292.823 265.695V265.648L293.107 265.601C293.06 265.9 292.93 266.157 292.717 266.37C292.504 266.575 292.243 266.733 291.936 266.843C291.636 266.954 291.324 267.009 291.001 267.009C290.598 267.009 290.251 266.95 289.959 266.831C289.667 266.705 289.443 266.524 289.285 266.287C289.127 266.05 289.048 265.758 289.048 265.411C289.048 264.969 289.19 264.61 289.474 264.334C289.758 264.05 290.164 263.857 290.693 263.754L292.918 263.305L292.906 264.311L291.486 264.595C291.218 264.65 291.013 264.725 290.871 264.82C290.736 264.906 290.669 265.052 290.669 265.257C290.669 265.455 290.74 265.605 290.882 265.707C291.032 265.81 291.21 265.861 291.415 265.861C291.581 265.861 291.742 265.841 291.9 265.802C292.058 265.762 292.2 265.699 292.326 265.612C292.452 265.526 292.551 265.407 292.622 265.257C292.693 265.108 292.729 264.926 292.729 264.713V263.115ZM297.788 267.009C297.393 267.009 297.038 266.938 296.723 266.796C296.407 266.654 296.155 266.429 295.965 266.121C295.784 265.806 295.693 265.399 295.693 264.902V260.973H297.315V264.512C297.315 264.969 297.409 265.289 297.599 265.47C297.788 265.644 298.06 265.731 298.415 265.731C298.581 265.731 298.743 265.703 298.9 265.648C299.058 265.585 299.196 265.49 299.315 265.364C299.441 265.238 299.539 265.076 299.61 264.879C299.682 264.674 299.717 264.433 299.717 264.157V260.973H301.338V266.891H299.895L299.835 265.861C299.638 266.256 299.366 266.547 299.019 266.737C298.68 266.918 298.269 267.009 297.788 267.009ZM304.989 267.009C304.389 267.009 303.841 266.902 303.344 266.689C302.855 266.476 302.456 266.177 302.148 265.79L303.083 264.843C303.273 265.127 303.525 265.36 303.841 265.541C304.156 265.723 304.531 265.814 304.965 265.814C305.273 265.814 305.517 265.77 305.699 265.683C305.888 265.589 305.983 265.443 305.983 265.246C305.983 265.119 305.939 265.013 305.853 264.926C305.766 264.831 305.592 264.756 305.332 264.701L304.29 264.488C303.604 264.346 303.115 264.133 302.823 263.849C302.539 263.557 302.397 263.182 302.397 262.725C302.397 262.401 302.492 262.098 302.681 261.814C302.878 261.53 303.17 261.301 303.557 261.127C303.943 260.946 304.425 260.855 305.001 260.855C305.592 260.855 306.105 260.95 306.539 261.139C306.981 261.32 307.328 261.593 307.581 261.956L306.61 262.902C306.437 262.626 306.208 262.417 305.924 262.275C305.648 262.125 305.356 262.05 305.048 262.05C304.827 262.05 304.638 262.074 304.48 262.121C304.322 262.169 304.204 262.236 304.125 262.322C304.046 262.401 304.006 262.504 304.006 262.63C304.006 262.756 304.062 262.867 304.172 262.962C304.283 263.048 304.484 263.123 304.776 263.186L305.983 263.435C306.567 263.553 306.985 263.754 307.237 264.038C307.49 264.315 307.616 264.65 307.616 265.044C307.616 265.423 307.513 265.762 307.308 266.062C307.111 266.354 306.815 266.587 306.421 266.76C306.034 266.926 305.557 267.009 304.989 267.009ZM311.209 267.009C310.586 267.009 310.041 266.887 309.576 266.642C309.118 266.398 308.763 266.046 308.511 265.589C308.258 265.131 308.132 264.579 308.132 263.932C308.132 263.285 308.258 262.733 308.511 262.275C308.763 261.818 309.114 261.466 309.564 261.222C310.021 260.977 310.542 260.855 311.126 260.855C311.726 260.855 312.234 260.977 312.653 261.222C313.071 261.459 313.39 261.786 313.611 262.204C313.832 262.614 313.943 263.084 313.943 263.612C313.943 263.77 313.939 263.92 313.931 264.062C313.923 264.204 313.911 264.33 313.895 264.441H309.173V263.317H313.185L312.404 263.601C312.404 263.104 312.29 262.721 312.061 262.453C311.84 262.184 311.524 262.05 311.114 262.05C310.814 262.05 310.554 262.121 310.333 262.263C310.12 262.405 309.958 262.618 309.848 262.902C309.737 263.179 309.682 263.53 309.682 263.956C309.682 264.374 309.741 264.721 309.86 264.997C309.986 265.265 310.159 265.467 310.38 265.601C310.609 265.735 310.881 265.802 311.197 265.802C311.544 265.802 311.824 265.735 312.037 265.601C312.25 265.467 312.416 265.281 312.534 265.044L313.824 265.541C313.698 265.849 313.505 266.113 313.244 266.334C312.992 266.555 312.688 266.725 312.333 266.843C311.986 266.954 311.611 267.009 311.209 267.009ZM317.131 267.009C316.642 267.009 316.204 266.887 315.817 266.642C315.438 266.398 315.139 266.046 314.918 265.589C314.705 265.131 314.598 264.583 314.598 263.944C314.598 263.289 314.712 262.733 314.941 262.275C315.17 261.81 315.478 261.459 315.864 261.222C316.259 260.977 316.701 260.855 317.19 260.855C317.711 260.855 318.141 261.005 318.48 261.305C318.819 261.604 319.04 261.991 319.143 262.464L318.989 262.654V258.382H320.61V266.891H319.154L319.048 265.092L319.249 265.186C319.194 265.557 319.068 265.881 318.87 266.157C318.673 266.425 318.425 266.634 318.125 266.784C317.825 266.934 317.494 267.009 317.131 267.009ZM317.604 265.766C317.888 265.766 318.133 265.695 318.338 265.553C318.543 265.403 318.701 265.186 318.811 264.902C318.93 264.618 318.989 264.279 318.989 263.885C318.989 263.506 318.933 263.186 318.823 262.926C318.713 262.658 318.555 262.453 318.35 262.311C318.145 262.169 317.904 262.098 317.628 262.098C317.186 262.098 316.839 262.255 316.586 262.571C316.342 262.879 316.219 263.332 316.219 263.932C316.219 264.532 316.342 264.989 316.586 265.305C316.831 265.612 317.17 265.766 317.604 265.766ZM326.683 258.382V265.068C326.683 265.344 326.731 265.538 326.825 265.648C326.92 265.758 327.078 265.814 327.299 265.814C327.433 265.814 327.543 265.806 327.63 265.79C327.717 265.766 327.827 265.735 327.962 265.695L327.82 266.76C327.685 266.839 327.516 266.899 327.311 266.938C327.113 266.985 326.916 267.009 326.719 267.009C326.143 267.009 325.721 266.871 325.453 266.595C325.192 266.311 325.062 265.861 325.062 265.246V258.382H326.683ZM329.259 260.121C328.92 260.121 328.667 260.05 328.502 259.908C328.336 259.758 328.253 259.541 328.253 259.257C328.253 258.965 328.336 258.748 328.502 258.606C328.667 258.456 328.92 258.382 329.259 258.382C329.598 258.382 329.851 258.456 330.016 258.606C330.182 258.748 330.265 258.965 330.265 259.257C330.265 259.541 330.182 259.758 330.016 259.908C329.851 260.05 329.598 260.121 329.259 260.121ZM330.064 260.973V266.891H328.442V260.973H330.064ZM333.727 267.009C333.127 267.009 332.579 266.902 332.082 266.689C331.592 266.476 331.194 266.177 330.886 265.79L331.821 264.843C332.011 265.127 332.263 265.36 332.579 265.541C332.894 265.723 333.269 265.814 333.703 265.814C334.011 265.814 334.255 265.77 334.437 265.683C334.626 265.589 334.721 265.443 334.721 265.246C334.721 265.119 334.677 265.013 334.591 264.926C334.504 264.831 334.33 264.756 334.07 264.701L333.028 264.488C332.342 264.346 331.853 264.133 331.561 263.849C331.277 263.557 331.135 263.182 331.135 262.725C331.135 262.401 331.23 262.098 331.419 261.814C331.616 261.53 331.908 261.301 332.295 261.127C332.681 260.946 333.163 260.855 333.738 260.855C334.33 260.855 334.843 260.95 335.277 261.139C335.719 261.32 336.066 261.593 336.318 261.956L335.348 262.902C335.174 262.626 334.946 262.417 334.662 262.275C334.385 262.125 334.094 262.05 333.786 262.05C333.565 262.05 333.376 262.074 333.218 262.121C333.06 262.169 332.942 262.236 332.863 262.322C332.784 262.401 332.744 262.504 332.744 262.63C332.744 262.756 332.8 262.867 332.91 262.962C333.021 263.048 333.222 263.123 333.514 263.186L334.721 263.435C335.305 263.553 335.723 263.754 335.975 264.038C336.228 264.315 336.354 264.65 336.354 265.044C336.354 265.423 336.251 265.762 336.046 266.062C335.849 266.354 335.553 266.587 335.159 266.76C334.772 266.926 334.295 267.009 333.727 267.009ZM339.319 259.163V264.962C339.319 265.246 339.39 265.455 339.532 265.589C339.682 265.715 339.883 265.778 340.136 265.778C340.333 265.778 340.506 265.751 340.656 265.695C340.806 265.632 340.94 265.549 341.059 265.447L341.319 266.524C341.13 266.674 340.893 266.792 340.609 266.879C340.325 266.966 340.025 267.009 339.709 267.009C339.315 267.009 338.964 266.95 338.656 266.831C338.356 266.713 338.12 266.524 337.946 266.263C337.78 266.003 337.698 265.656 337.698 265.222V259.612L339.319 259.163ZM341.212 260.973V262.18H336.609V260.973H341.212ZM342.703 260.121C342.364 260.121 342.112 260.05 341.946 259.908C341.78 259.758 341.697 259.541 341.697 259.257C341.697 258.965 341.78 258.748 341.946 258.606C342.112 258.456 342.364 258.382 342.703 258.382C343.043 258.382 343.295 258.456 343.461 258.606C343.626 258.748 343.709 258.965 343.709 259.257C343.709 259.541 343.626 259.758 343.461 259.908C343.295 260.05 343.043 260.121 342.703 260.121ZM343.508 260.973V266.891H341.887V260.973H343.508ZM344.804 266.891V260.973H346.26L346.354 262.749L346.153 262.559C346.248 262.173 346.398 261.853 346.603 261.601C346.808 261.348 347.057 261.163 347.349 261.044C347.648 260.918 347.976 260.855 348.331 260.855C348.741 260.855 349.104 260.934 349.42 261.092C349.743 261.249 349.996 261.49 350.177 261.814C350.366 262.129 350.461 262.528 350.461 263.009V266.891H348.84V263.47C348.84 262.965 348.741 262.618 348.544 262.429C348.347 262.232 348.09 262.133 347.775 262.133C347.554 262.133 347.337 262.188 347.124 262.299C346.919 262.401 346.749 262.571 346.615 262.808C346.489 263.044 346.425 263.36 346.425 263.754V266.891H344.804ZM357.164 259.565L357.354 260.725C357.322 260.725 357.287 260.725 357.247 260.725C357.216 260.717 357.18 260.713 357.141 260.713C356.778 260.713 356.506 260.796 356.324 260.961C356.143 261.119 356.052 261.34 356.052 261.624L355.389 261.352C355.389 261.036 355.452 260.745 355.579 260.476C355.705 260.2 355.89 259.979 356.135 259.814C356.387 259.648 356.687 259.565 357.034 259.565C357.05 259.565 357.07 259.565 357.093 259.565C357.117 259.565 357.141 259.565 357.164 259.565ZM355.224 265.778C355.863 265.778 356.356 265.916 356.703 266.192C357.05 266.469 357.224 266.855 357.224 267.352C357.224 267.802 357.093 268.181 356.833 268.488C356.573 268.804 356.206 269.041 355.732 269.198C355.267 269.356 354.727 269.435 354.111 269.435C353.093 269.435 352.348 269.293 351.874 269.009C351.409 268.725 351.176 268.354 351.176 267.897C351.176 267.573 351.298 267.301 351.543 267.08C351.795 266.859 352.21 266.737 352.786 266.713L352.726 266.902C352.316 266.831 352.001 266.697 351.78 266.5C351.567 266.295 351.46 266.015 351.46 265.66C351.46 265.297 351.598 265.001 351.874 264.772C352.158 264.536 352.541 264.397 353.022 264.358L353.732 264.689H353.567C353.227 264.713 352.987 264.784 352.845 264.902C352.711 265.013 352.644 265.139 352.644 265.281C352.644 265.447 352.707 265.573 352.833 265.66C352.967 265.739 353.156 265.778 353.401 265.778H355.224ZM354.123 268.323C354.533 268.323 354.869 268.287 355.129 268.216C355.397 268.145 355.594 268.054 355.721 267.944C355.855 267.833 355.922 267.711 355.922 267.577C355.922 267.427 355.863 267.305 355.744 267.21C355.626 267.123 355.413 267.08 355.105 267.08H353.105C352.916 267.08 352.758 267.127 352.632 267.222C352.513 267.317 352.454 267.447 352.454 267.613C352.454 267.833 352.6 268.007 352.892 268.133C353.192 268.259 353.602 268.323 354.123 268.323ZM354.135 260.855C354.687 260.855 355.164 260.938 355.567 261.103C355.977 261.261 356.289 261.49 356.502 261.79C356.723 262.09 356.833 262.449 356.833 262.867C356.833 263.277 356.723 263.632 356.502 263.932C356.289 264.232 355.977 264.465 355.567 264.63C355.164 264.788 354.687 264.867 354.135 264.867C353.259 264.867 352.588 264.689 352.123 264.334C351.665 263.971 351.437 263.482 351.437 262.867C351.437 262.449 351.543 262.09 351.756 261.79C351.977 261.49 352.289 261.261 352.691 261.103C353.093 260.938 353.575 260.855 354.135 260.855ZM354.135 261.873C353.819 261.873 353.559 261.96 353.354 262.133C353.149 262.307 353.046 262.547 353.046 262.855C353.046 263.163 353.149 263.407 353.354 263.589C353.559 263.762 353.819 263.849 354.135 263.849C354.45 263.849 354.707 263.762 354.904 263.589C355.109 263.407 355.212 263.163 355.212 262.855C355.212 262.547 355.109 262.307 354.904 262.133C354.707 261.96 354.45 261.873 354.135 261.873ZM360.148 267.009C359.549 267.009 359 266.902 358.503 266.689C358.014 266.476 357.616 266.177 357.308 265.79L358.243 264.843C358.432 265.127 358.685 265.36 359 265.541C359.316 265.723 359.691 265.814 360.124 265.814C360.432 265.814 360.677 265.77 360.858 265.683C361.048 265.589 361.142 265.443 361.142 265.246C361.142 265.119 361.099 265.013 361.012 264.926C360.925 264.831 360.752 264.756 360.491 264.701L359.45 264.488C358.763 264.346 358.274 264.133 357.982 263.849C357.698 263.557 357.556 263.182 357.556 262.725C357.556 262.401 357.651 262.098 357.84 261.814C358.038 261.53 358.33 261.301 358.716 261.127C359.103 260.946 359.584 260.855 360.16 260.855C360.752 260.855 361.265 260.95 361.698 261.139C362.14 261.32 362.487 261.593 362.74 261.956L361.769 262.902C361.596 262.626 361.367 262.417 361.083 262.275C360.807 262.125 360.515 262.05 360.207 262.05C359.986 262.05 359.797 262.074 359.639 262.121C359.481 262.169 359.363 262.236 359.284 262.322C359.205 262.401 359.166 262.504 359.166 262.63C359.166 262.756 359.221 262.867 359.332 262.962C359.442 263.048 359.643 263.123 359.935 263.186L361.142 263.435C361.726 263.553 362.144 263.754 362.397 264.038C362.649 264.315 362.775 264.65 362.775 265.044C362.775 265.423 362.673 265.762 362.468 266.062C362.27 266.354 361.975 266.587 361.58 266.76C361.194 266.926 360.716 267.009 360.148 267.009Z" fill="#0095FF"/>
<rect x="375.867" y="124.079" width="166.53" height="164.141" rx="7.1853" stroke="#E5E8E7" stroke-width="0.845329"/>
<rect x="442.226" y="141.408" width="33.8132" height="33.8132" rx="16.9066" fill="#5FC92E"/>
<path d="M457.7 152.852L457.7 152.852L457.703 152.853C457.937 152.968 458.198 153.208 458.404 153.533C458.61 153.859 458.708 154.19 458.708 154.436V165.924H452.436C451.906 165.924 451.498 165.5 451.498 165.019V152.475C451.498 151.572 451.826 151.09 452.172 150.88C452.522 150.668 453.122 150.593 453.956 151.002C453.957 151.002 453.957 151.002 453.958 151.002L457.7 152.852ZM453.636 160.641H456.57C457.399 160.641 458.049 159.967 458.049 159.161C458.049 158.348 457.383 157.682 456.57 157.682H453.636C452.823 157.682 452.157 158.348 452.157 159.161C452.157 159.975 452.823 160.641 453.636 160.641ZM453.636 157.259H456.57C457.399 157.259 458.049 156.586 458.049 155.78C458.049 154.966 457.383 154.301 456.57 154.301H453.636C452.823 154.301 452.157 154.966 452.157 155.78C452.157 156.593 452.823 157.259 453.636 157.259Z" fill="#F1FBEA" stroke="#F1FBEA" stroke-width="1.69066"/>
<path d="M467.585 163.422V164.656C467.585 165.823 466.638 166.769 465.472 166.769H461.642C461.186 166.769 460.822 166.406 460.822 165.949V164.123C461.727 164.233 462.682 163.971 463.367 163.422C463.942 163.887 464.677 164.166 465.48 164.166C466.266 164.166 467.002 163.887 467.585 163.422Z" fill="#F1FBEA"/>
<path d="M467.585 160.894V160.903C467.517 162.01 466.613 162.898 465.48 162.898C464.305 162.898 463.367 161.942 463.367 160.784C463.367 162.078 462.175 163.117 460.822 162.855V158.316C460.822 157.775 461.321 157.369 461.854 157.487L463.367 157.826L463.772 157.919L465.497 158.307C465.911 158.392 466.292 158.536 466.621 158.747C466.621 158.755 466.63 158.755 466.63 158.755C466.714 158.815 466.799 158.882 466.875 158.958C467.264 159.347 467.517 159.914 467.576 160.742C467.576 160.793 467.585 160.843 467.585 160.894Z" fill="#F1FBEA"/>
<path d="M410.989 186.942C411.709 186.942 412.328 187.069 412.845 187.322C413.373 187.576 413.783 187.936 414.078 188.403C414.372 188.869 414.519 189.432 414.519 190.092C414.519 190.741 414.372 191.304 414.078 191.781C413.783 192.247 413.373 192.607 412.845 192.861C412.328 193.114 411.709 193.241 410.989 193.241H408.752V196.984H407.124V186.942H410.989ZM410.73 191.841C411.45 191.841 411.978 191.694 412.313 191.4C412.657 191.096 412.83 190.66 412.83 190.092C412.83 189.513 412.657 189.077 412.313 188.783C411.978 188.479 411.45 188.327 410.73 188.327H408.752V191.841H410.73ZM416.013 196.984V189.376H417.397L417.55 190.746C417.752 190.249 418.052 189.873 418.447 189.62C418.853 189.356 419.35 189.224 419.938 189.224C420.091 189.224 420.243 189.239 420.395 189.27C420.547 189.29 420.674 189.326 420.775 189.376L420.547 190.807C420.436 190.766 420.309 190.736 420.167 190.715C420.035 190.685 419.852 190.67 419.619 190.67C419.304 190.67 418.995 190.756 418.691 190.928C418.386 191.091 418.133 191.339 417.93 191.674C417.737 192.009 417.641 192.435 417.641 192.952V196.984H416.013ZM424.999 189.224C425.74 189.224 426.394 189.381 426.962 189.696C427.53 190.01 427.971 190.467 428.286 191.065C428.61 191.654 428.773 192.359 428.773 193.18C428.773 194.002 428.61 194.712 428.286 195.311C427.971 195.899 427.53 196.35 426.962 196.665C426.394 196.979 425.74 197.137 424.999 197.137C424.259 197.137 423.604 196.979 423.036 196.665C422.468 196.35 422.022 195.899 421.697 195.311C421.373 194.712 421.21 194.002 421.21 193.18C421.21 192.359 421.373 191.654 421.697 191.065C422.022 190.467 422.468 190.01 423.036 189.696C423.604 189.381 424.259 189.224 424.999 189.224ZM424.999 190.502C424.543 190.502 424.152 190.609 423.827 190.822C423.513 191.025 423.27 191.324 423.097 191.72C422.925 192.115 422.838 192.602 422.838 193.18C422.838 193.748 422.925 194.235 423.097 194.641C423.27 195.037 423.513 195.341 423.827 195.554C424.152 195.757 424.543 195.858 424.999 195.858C425.456 195.858 425.841 195.757 426.156 195.554C426.47 195.341 426.713 195.037 426.886 194.641C427.058 194.235 427.145 193.748 427.145 193.18C427.145 192.602 427.058 192.115 426.886 191.72C426.713 191.324 426.47 191.025 426.156 190.822C425.841 190.609 425.456 190.502 424.999 190.502ZM430.398 200.18V189.376H431.844L431.965 191.507L431.752 191.248C431.874 190.852 432.062 190.502 432.315 190.198C432.569 189.894 432.883 189.655 433.259 189.483C433.644 189.31 434.065 189.224 434.522 189.224C435.141 189.224 435.703 189.381 436.211 189.696C436.718 190.01 437.119 190.462 437.413 191.05C437.707 191.628 437.854 192.333 437.854 193.165C437.854 193.997 437.702 194.712 437.398 195.311C437.103 195.899 436.698 196.35 436.18 196.665C435.673 196.979 435.105 197.137 434.476 197.137C433.827 197.137 433.274 196.969 432.818 196.634C432.361 196.29 432.036 195.853 431.844 195.326L432.026 195.067V200.18H430.398ZM434.126 195.813C434.785 195.813 435.298 195.579 435.663 195.113C436.038 194.646 436.226 194.002 436.226 193.18C436.226 192.359 436.043 191.715 435.678 191.248C435.313 190.771 434.806 190.533 434.157 190.533C433.73 190.533 433.355 190.644 433.031 190.868C432.716 191.081 432.468 191.385 432.285 191.781C432.113 192.166 432.026 192.633 432.026 193.18C432.026 193.718 432.113 194.185 432.285 194.58C432.457 194.976 432.701 195.28 433.015 195.493C433.33 195.706 433.7 195.813 434.126 195.813ZM442.863 197.137C442.102 197.137 441.432 196.979 440.854 196.665C440.276 196.35 439.825 195.899 439.5 195.311C439.186 194.712 439.028 194.002 439.028 193.18C439.028 192.359 439.186 191.654 439.5 191.065C439.825 190.467 440.271 190.01 440.839 189.696C441.407 189.381 442.051 189.224 442.771 189.224C443.512 189.224 444.141 189.376 444.658 189.681C445.176 189.985 445.571 190.401 445.845 190.928C446.119 191.456 446.256 192.054 446.256 192.724C446.256 192.907 446.251 193.079 446.241 193.241C446.231 193.404 446.215 193.546 446.195 193.667H440.078V192.42H445.48L444.673 192.663C444.673 191.973 444.501 191.446 444.156 191.081C443.811 190.705 443.339 190.518 442.741 190.518C442.305 190.518 441.924 190.619 441.6 190.822C441.275 191.025 441.027 191.329 440.854 191.735C440.682 192.13 440.596 192.617 440.596 193.196C440.596 193.764 440.687 194.246 440.869 194.641C441.052 195.037 441.311 195.336 441.645 195.539C441.98 195.742 442.376 195.843 442.832 195.843C443.339 195.843 443.75 195.747 444.065 195.554C444.379 195.361 444.628 195.093 444.81 194.748L446.104 195.356C445.921 195.721 445.673 196.041 445.358 196.315C445.054 196.579 444.689 196.781 444.263 196.924C443.837 197.066 443.37 197.137 442.863 197.137ZM447.889 196.984V189.376H449.274L449.426 190.746C449.629 190.249 449.928 189.873 450.324 189.62C450.73 189.356 451.227 189.224 451.815 189.224C451.967 189.224 452.119 189.239 452.271 189.27C452.424 189.29 452.55 189.326 452.652 189.376L452.424 190.807C452.312 190.766 452.185 190.736 452.043 190.715C451.911 190.685 451.729 190.67 451.495 190.67C451.181 190.67 450.872 190.756 450.567 190.928C450.263 191.091 450.009 191.339 449.806 191.674C449.614 192.009 449.517 192.435 449.517 192.952V196.984H447.889ZM455.617 187.14V194.702C455.617 195.077 455.713 195.351 455.906 195.524C456.109 195.696 456.378 195.782 456.713 195.782C456.986 195.782 457.225 195.742 457.428 195.661C457.631 195.569 457.818 195.448 457.991 195.295L458.356 196.482C458.123 196.685 457.833 196.847 457.489 196.969C457.154 197.081 456.778 197.137 456.363 197.137C455.926 197.137 455.526 197.066 455.161 196.924C454.795 196.781 454.511 196.553 454.308 196.239C454.106 195.914 453.999 195.493 453.989 194.976V187.596L455.617 187.14ZM458.234 189.376V190.655H452.528V189.376H458.234ZM460.243 188.098C459.888 188.098 459.614 188.012 459.422 187.84C459.239 187.657 459.148 187.403 459.148 187.079C459.148 186.754 459.239 186.506 459.422 186.333C459.614 186.161 459.888 186.075 460.243 186.075C460.588 186.075 460.852 186.161 461.035 186.333C461.227 186.506 461.324 186.754 461.324 187.079C461.324 187.403 461.227 187.657 461.035 187.84C460.852 188.012 460.588 188.098 460.243 188.098ZM461.05 189.376V196.984H459.422V189.376H461.05ZM466.522 197.137C465.761 197.137 465.092 196.979 464.514 196.665C463.935 196.35 463.484 195.899 463.159 195.311C462.845 194.712 462.688 194.002 462.688 193.18C462.688 192.359 462.845 191.654 463.159 191.065C463.484 190.467 463.93 190.01 464.498 189.696C465.066 189.381 465.711 189.224 466.431 189.224C467.171 189.224 467.8 189.376 468.318 189.681C468.835 189.985 469.23 190.401 469.504 190.928C469.778 191.456 469.915 192.054 469.915 192.724C469.915 192.907 469.91 193.079 469.9 193.241C469.89 193.404 469.875 193.546 469.854 193.667H463.738V192.42H469.139L468.333 192.663C468.333 191.973 468.16 191.446 467.815 191.081C467.47 190.705 466.999 190.518 466.4 190.518C465.964 190.518 465.584 190.619 465.259 190.822C464.935 191.025 464.686 191.329 464.514 191.735C464.341 192.13 464.255 192.617 464.255 193.196C464.255 193.764 464.346 194.246 464.529 194.641C464.711 195.037 464.97 195.336 465.305 195.539C465.64 195.742 466.035 195.843 466.492 195.843C466.999 195.843 467.41 195.747 467.724 195.554C468.039 195.361 468.287 195.093 468.47 194.748L469.763 195.356C469.58 195.721 469.332 196.041 469.017 196.315C468.713 196.579 468.348 196.781 467.922 196.924C467.496 197.066 467.029 197.137 466.522 197.137ZM474.44 197.137C473.679 197.137 472.984 196.989 472.355 196.695C471.726 196.401 471.229 195.985 470.864 195.448L471.99 194.474C472.213 194.89 472.533 195.224 472.948 195.478C473.374 195.721 473.882 195.843 474.47 195.843C474.937 195.843 475.307 195.762 475.581 195.6C475.855 195.437 475.992 195.209 475.992 194.915C475.992 194.722 475.926 194.555 475.794 194.413C475.672 194.261 475.434 194.144 475.079 194.063L473.481 193.728C472.669 193.566 472.091 193.307 471.746 192.952C471.401 192.587 471.229 192.125 471.229 191.568C471.229 191.152 471.351 190.766 471.594 190.411C471.838 190.056 472.193 189.772 472.659 189.559C473.136 189.336 473.704 189.224 474.364 189.224C475.124 189.224 475.774 189.361 476.311 189.635C476.849 189.899 477.26 190.279 477.544 190.776L476.418 191.72C476.225 191.314 475.941 191.015 475.566 190.822C475.19 190.619 474.8 190.518 474.394 190.518C474.069 190.518 473.79 190.558 473.557 190.639C473.324 190.72 473.146 190.832 473.025 190.974C472.903 191.116 472.842 191.283 472.842 191.476C472.842 191.679 472.918 191.857 473.07 192.009C473.222 192.161 473.496 192.278 473.892 192.359L475.626 192.724C476.357 192.866 476.869 193.109 477.163 193.454C477.468 193.789 477.62 194.2 477.62 194.687C477.62 195.174 477.493 195.605 477.239 195.98C476.986 196.345 476.621 196.629 476.144 196.832C475.667 197.035 475.099 197.137 474.44 197.137ZM486.596 197.137C485.835 197.137 485.141 196.989 484.512 196.695C483.883 196.401 483.386 195.985 483.02 195.448L484.146 194.474C484.37 194.89 484.689 195.224 485.105 195.478C485.531 195.721 486.038 195.843 486.627 195.843C487.093 195.843 487.463 195.762 487.737 195.6C488.011 195.437 488.148 195.209 488.148 194.915C488.148 194.722 488.082 194.555 487.95 194.413C487.829 194.261 487.59 194.144 487.235 194.063L485.638 193.728C484.826 193.566 484.248 193.307 483.903 192.952C483.558 192.587 483.386 192.125 483.386 191.568C483.386 191.152 483.507 190.766 483.751 190.411C483.994 190.056 484.349 189.772 484.816 189.559C485.293 189.336 485.861 189.224 486.52 189.224C487.281 189.224 487.93 189.361 488.468 189.635C489.005 189.899 489.416 190.279 489.7 190.776L488.574 191.72C488.381 191.314 488.097 191.015 487.722 190.822C487.347 190.619 486.956 190.518 486.551 190.518C486.226 190.518 485.947 190.558 485.714 190.639C485.48 190.72 485.303 190.832 485.181 190.974C485.059 191.116 484.998 191.283 484.998 191.476C484.998 191.679 485.075 191.857 485.227 192.009C485.379 192.161 485.653 192.278 486.048 192.359L487.783 192.724C488.513 192.866 489.026 193.109 489.32 193.454C489.624 193.789 489.776 194.2 489.776 194.687C489.776 195.174 489.649 195.605 489.396 195.98C489.142 196.345 488.777 196.629 488.3 196.832C487.824 197.035 487.256 197.137 486.596 197.137ZM494.623 189.224C495.364 189.224 496.018 189.381 496.586 189.696C497.154 190.01 497.595 190.467 497.91 191.065C498.234 191.654 498.397 192.359 498.397 193.18C498.397 194.002 498.234 194.712 497.91 195.311C497.595 195.899 497.154 196.35 496.586 196.665C496.018 196.979 495.364 197.137 494.623 197.137C493.883 197.137 493.228 196.979 492.66 196.665C492.092 196.35 491.646 195.899 491.321 195.311C490.997 194.712 490.834 194.002 490.834 193.18C490.834 192.359 490.997 191.654 491.321 191.065C491.646 190.467 492.092 190.01 492.66 189.696C493.228 189.381 493.883 189.224 494.623 189.224ZM494.623 190.502C494.167 190.502 493.776 190.609 493.452 190.822C493.137 191.025 492.894 191.324 492.721 191.72C492.549 192.115 492.463 192.602 492.463 193.18C492.463 193.748 492.549 194.235 492.721 194.641C492.894 195.037 493.137 195.341 493.452 195.554C493.776 195.757 494.167 195.858 494.623 195.858C495.08 195.858 495.465 195.757 495.78 195.554C496.094 195.341 496.338 195.037 496.51 194.641C496.682 194.235 496.769 193.748 496.769 193.18C496.769 192.602 496.682 192.115 496.51 191.72C496.338 191.324 496.094 191.025 495.78 190.822C495.465 190.609 495.08 190.502 494.623 190.502ZM501.605 185.953V194.854C501.605 195.229 501.671 195.488 501.803 195.63C501.934 195.772 502.153 195.843 502.457 195.843C502.639 195.843 502.792 195.833 502.913 195.813C503.045 195.782 503.208 195.732 503.4 195.661L503.218 196.878C503.045 196.959 502.847 197.02 502.624 197.06C502.401 197.111 502.178 197.137 501.955 197.137C501.275 197.137 500.773 196.964 500.448 196.619C500.134 196.264 499.977 195.721 499.977 194.991V185.953H501.605ZM507.261 197.137C506.632 197.137 506.059 196.979 505.542 196.665C505.035 196.35 504.634 195.899 504.34 195.311C504.046 194.722 503.898 194.017 503.898 193.196C503.898 192.344 504.056 191.623 504.37 191.035C504.685 190.447 505.106 190 505.633 189.696C506.161 189.381 506.739 189.224 507.368 189.224C508.017 189.224 508.565 189.402 509.011 189.757C509.457 190.112 509.757 190.573 509.909 191.141L509.726 191.309V185.953H511.354V196.984H509.909L509.787 194.915L510 194.93C509.929 195.387 509.762 195.782 509.498 196.117C509.234 196.442 508.905 196.695 508.509 196.878C508.123 197.05 507.708 197.137 507.261 197.137ZM507.611 195.828C508.047 195.828 508.423 195.716 508.737 195.493C509.052 195.27 509.295 194.956 509.468 194.55C509.64 194.144 509.726 193.657 509.726 193.089C509.726 192.562 509.64 192.11 509.468 191.735C509.295 191.349 509.052 191.055 508.737 190.852C508.433 190.649 508.078 190.548 507.672 190.548C506.992 190.548 506.465 190.781 506.09 191.248C505.714 191.715 505.527 192.359 505.527 193.18C505.527 194.002 505.709 194.651 506.074 195.128C506.44 195.595 506.952 195.828 507.611 195.828Z" fill="#4B5353"/>
<path d="M444.526 235.747V233.637C446.24 232.411 447.673 231.329 448.827 230.391C450 229.453 450.937 228.588 451.641 227.794C452.344 227.001 452.849 226.252 453.155 225.549C453.48 224.828 453.642 224.097 453.642 223.358C453.642 222.402 453.345 221.627 452.75 221.032C452.155 220.436 451.325 220.139 450.261 220.139C449.143 220.139 448.25 220.518 447.583 221.275C446.934 222.014 446.564 223.033 446.474 224.332L443.958 223.169C444.085 222.032 444.418 221.05 444.959 220.22C445.5 219.391 446.231 218.75 447.15 218.299C448.088 217.849 449.17 217.623 450.396 217.623C451.406 217.623 452.29 217.767 453.047 218.056C453.823 218.345 454.472 218.75 454.995 219.273C455.518 219.778 455.915 220.373 456.185 221.059C456.474 221.744 456.618 222.474 456.618 223.25C456.618 224.386 456.338 225.486 455.779 226.55C455.22 227.596 454.337 228.669 453.128 229.769C451.92 230.869 450.333 232.05 448.368 233.313V233.367C448.584 233.331 448.881 233.313 449.26 233.313C449.639 233.294 450.018 233.285 450.396 233.285C450.775 233.267 451.082 233.258 451.316 233.258H456.943V235.747H444.526ZM466.158 236.018C464.012 236.018 462.326 235.242 461.099 233.691C459.891 232.122 459.287 229.832 459.287 226.82C459.287 223.809 459.891 221.528 461.099 219.977C462.326 218.408 464.012 217.623 466.158 217.623C468.322 217.623 470.008 218.408 471.216 219.977C472.442 221.528 473.056 223.809 473.056 226.82C473.056 229.832 472.442 232.122 471.216 233.691C470.008 235.242 468.322 236.018 466.158 236.018ZM466.158 233.556C467.023 233.556 467.745 233.313 468.322 232.826C468.917 232.321 469.359 231.572 469.647 230.58C469.954 229.571 470.107 228.317 470.107 226.82C470.107 225.324 469.954 224.079 469.647 223.087C469.359 222.078 468.917 221.329 468.322 220.842C467.745 220.337 467.023 220.085 466.158 220.085C465.292 220.085 464.562 220.337 463.967 220.842C463.39 221.329 462.957 222.078 462.668 223.087C462.38 224.079 462.235 225.324 462.235 226.82C462.235 228.317 462.38 229.571 462.668 230.58C462.957 231.572 463.39 232.321 463.967 232.826C464.562 233.313 465.292 233.556 466.158 233.556Z" fill="#242828"/>
<rect x="412.107" y="250.51" width="94.0505" height="23.7626" rx="11.8813" fill="#F1FBEA"/>
<path d="M426.402 266.891V265.79C427.112 265.309 427.712 264.875 428.201 264.488C428.698 264.094 429.096 263.731 429.396 263.399C429.704 263.06 429.925 262.741 430.059 262.441C430.201 262.141 430.272 261.841 430.272 261.541C430.272 261.178 430.162 260.883 429.941 260.654C429.72 260.417 429.408 260.299 429.006 260.299C428.564 260.299 428.217 260.449 427.964 260.748C427.72 261.048 427.586 261.474 427.562 262.027L426.154 261.494C426.193 260.958 426.335 260.504 426.58 260.133C426.832 259.754 427.171 259.466 427.597 259.269C428.031 259.064 428.528 258.961 429.089 258.961C429.57 258.961 429.984 259.028 430.331 259.163C430.686 259.297 430.978 259.482 431.207 259.719C431.444 259.948 431.621 260.212 431.739 260.512C431.858 260.812 431.917 261.123 431.917 261.447C431.917 261.952 431.791 262.429 431.538 262.879C431.294 263.328 430.915 263.774 430.402 264.216C429.889 264.658 429.238 265.123 428.449 265.612V265.624C428.568 265.616 428.71 265.609 428.875 265.601C429.049 265.593 429.227 265.589 429.408 265.589C429.59 265.581 429.747 265.577 429.881 265.577H432.035V266.891H426.402ZM438.616 267.009C438.016 267.009 437.468 266.902 436.971 266.689C436.482 266.476 436.083 266.177 435.776 265.79L436.711 264.843C436.9 265.127 437.152 265.36 437.468 265.541C437.784 265.723 438.158 265.814 438.592 265.814C438.9 265.814 439.145 265.77 439.326 265.683C439.515 265.589 439.61 265.443 439.61 265.246C439.61 265.119 439.567 265.013 439.48 264.926C439.393 264.831 439.22 264.756 438.959 264.701L437.918 264.488C437.231 264.346 436.742 264.133 436.45 263.849C436.166 263.557 436.024 263.182 436.024 262.725C436.024 262.401 436.119 262.098 436.308 261.814C436.506 261.53 436.797 261.301 437.184 261.127C437.571 260.946 438.052 260.855 438.628 260.855C439.22 260.855 439.732 260.95 440.166 261.139C440.608 261.32 440.955 261.593 441.208 261.956L440.237 262.902C440.064 262.626 439.835 262.417 439.551 262.275C439.275 262.125 438.983 262.05 438.675 262.05C438.454 262.05 438.265 262.074 438.107 262.121C437.949 262.169 437.831 262.236 437.752 262.322C437.673 262.401 437.634 262.504 437.634 262.63C437.634 262.756 437.689 262.867 437.799 262.962C437.91 263.048 438.111 263.123 438.403 263.186L439.61 263.435C440.194 263.553 440.612 263.754 440.865 264.038C441.117 264.315 441.243 264.65 441.243 265.044C441.243 265.423 441.141 265.762 440.936 266.062C440.738 266.354 440.443 266.587 440.048 266.76C439.661 266.926 439.184 267.009 438.616 267.009ZM444.789 260.855C445.388 260.855 445.913 260.977 446.363 261.222C446.82 261.466 447.175 261.818 447.428 262.275C447.688 262.733 447.818 263.285 447.818 263.932C447.818 264.571 447.688 265.123 447.428 265.589C447.175 266.046 446.82 266.398 446.363 266.642C445.913 266.887 445.388 267.009 444.789 267.009C444.197 267.009 443.672 266.887 443.215 266.642C442.757 266.398 442.398 266.046 442.138 265.589C441.885 265.123 441.759 264.571 441.759 263.932C441.759 263.285 441.885 262.733 442.138 262.275C442.398 261.818 442.757 261.466 443.215 261.222C443.672 260.977 444.197 260.855 444.789 260.855ZM444.789 262.062C444.489 262.062 444.233 262.133 444.02 262.275C443.814 262.409 443.657 262.614 443.546 262.891C443.436 263.167 443.38 263.514 443.38 263.932C443.38 264.35 443.436 264.697 443.546 264.973C443.657 265.25 443.814 265.459 444.02 265.601C444.233 265.735 444.489 265.802 444.789 265.802C445.081 265.802 445.329 265.735 445.534 265.601C445.747 265.459 445.909 265.25 446.02 264.973C446.13 264.697 446.185 264.35 446.185 263.932C446.185 263.514 446.13 263.167 446.02 262.891C445.909 262.614 445.747 262.409 445.534 262.275C445.329 262.133 445.081 262.062 444.789 262.062ZM450.35 258.382V265.068C450.35 265.344 450.397 265.538 450.492 265.648C450.587 265.758 450.745 265.814 450.965 265.814C451.1 265.814 451.21 265.806 451.297 265.79C451.384 265.766 451.494 265.735 451.628 265.695L451.486 266.76C451.352 266.839 451.182 266.899 450.977 266.938C450.78 266.985 450.583 267.009 450.386 267.009C449.81 267.009 449.388 266.871 449.119 266.595C448.859 266.311 448.729 265.861 448.729 265.246V258.382H450.35ZM454.346 267.009C453.857 267.009 453.419 266.887 453.032 266.642C452.653 266.398 452.354 266.046 452.133 265.589C451.92 265.131 451.813 264.583 451.813 263.944C451.813 263.289 451.927 262.733 452.156 262.275C452.385 261.81 452.693 261.459 453.079 261.222C453.474 260.977 453.916 260.855 454.405 260.855C454.926 260.855 455.356 261.005 455.695 261.305C456.034 261.604 456.255 261.991 456.358 262.464L456.204 262.654V258.382H457.825V266.891H456.369L456.263 265.092L456.464 265.186C456.409 265.557 456.283 265.881 456.085 266.157C455.888 266.425 455.64 266.634 455.34 266.784C455.04 266.934 454.709 267.009 454.346 267.009ZM454.819 265.766C455.103 265.766 455.348 265.695 455.553 265.553C455.758 265.403 455.916 265.186 456.026 264.902C456.145 264.618 456.204 264.279 456.204 263.885C456.204 263.506 456.149 263.186 456.038 262.926C455.928 262.658 455.77 262.453 455.565 262.311C455.36 262.169 455.119 262.098 454.843 262.098C454.401 262.098 454.054 262.255 453.801 262.571C453.557 262.879 453.434 263.332 453.434 263.932C453.434 264.532 453.557 264.989 453.801 265.305C454.046 265.612 454.385 265.766 454.819 265.766ZM464.257 259.163V264.962C464.257 265.246 464.328 265.455 464.47 265.589C464.62 265.715 464.821 265.778 465.073 265.778C465.271 265.778 465.444 265.751 465.594 265.695C465.744 265.632 465.878 265.549 465.997 265.447L466.257 266.524C466.068 266.674 465.831 266.792 465.547 266.879C465.263 266.966 464.963 267.009 464.647 267.009C464.253 267.009 463.902 266.95 463.594 266.831C463.294 266.713 463.058 266.524 462.884 266.263C462.718 266.003 462.635 265.656 462.635 265.222V259.612L464.257 259.163ZM466.15 260.973V262.18H461.547V260.973H466.15ZM469.523 260.855C470.123 260.855 470.647 260.977 471.097 261.222C471.555 261.466 471.91 261.818 472.162 262.275C472.422 262.733 472.553 263.285 472.553 263.932C472.553 264.571 472.422 265.123 472.162 265.589C471.91 266.046 471.555 266.398 471.097 266.642C470.647 266.887 470.123 267.009 469.523 267.009C468.931 267.009 468.407 266.887 467.949 266.642C467.491 266.398 467.132 266.046 466.872 265.589C466.619 265.123 466.493 264.571 466.493 263.932C466.493 263.285 466.619 262.733 466.872 262.275C467.132 261.818 467.491 261.466 467.949 261.222C468.407 260.977 468.931 260.855 469.523 260.855ZM469.523 262.062C469.223 262.062 468.967 262.133 468.754 262.275C468.549 262.409 468.391 262.614 468.28 262.891C468.17 263.167 468.115 263.514 468.115 263.932C468.115 264.35 468.17 264.697 468.28 264.973C468.391 265.25 468.549 265.459 468.754 265.601C468.967 265.735 469.223 265.802 469.523 265.802C469.815 265.802 470.063 265.735 470.268 265.601C470.482 265.459 470.643 265.25 470.754 264.973C470.864 264.697 470.919 264.35 470.919 263.932C470.919 263.514 470.864 263.167 470.754 262.891C470.643 262.614 470.482 262.409 470.268 262.275C470.063 262.133 469.815 262.062 469.523 262.062ZM475.723 267.009C475.234 267.009 474.796 266.887 474.41 266.642C474.031 266.398 473.731 266.046 473.51 265.589C473.297 265.131 473.191 264.583 473.191 263.944C473.191 263.289 473.305 262.733 473.534 262.275C473.763 261.81 474.07 261.459 474.457 261.222C474.851 260.977 475.293 260.855 475.782 260.855C476.303 260.855 476.733 261.005 477.072 261.305C477.412 261.604 477.633 261.991 477.735 262.464L477.581 262.654V258.382H479.203V266.891H477.747L477.64 265.092L477.842 265.186C477.786 265.557 477.66 265.881 477.463 266.157C477.266 266.425 477.017 266.634 476.717 266.784C476.418 266.934 476.086 267.009 475.723 267.009ZM476.197 265.766C476.481 265.766 476.725 265.695 476.93 265.553C477.136 265.403 477.293 265.186 477.404 264.902C477.522 264.618 477.581 264.279 477.581 263.885C477.581 263.506 477.526 263.186 477.416 262.926C477.305 262.658 477.147 262.453 476.942 262.311C476.737 262.169 476.496 262.098 476.22 262.098C475.779 262.098 475.431 262.255 475.179 262.571C474.934 262.879 474.812 263.332 474.812 263.932C474.812 264.532 474.934 264.989 475.179 265.305C475.423 265.612 475.763 265.766 476.197 265.766ZM483.856 263.115C483.856 262.776 483.758 262.512 483.561 262.322C483.371 262.133 483.119 262.038 482.803 262.038C482.511 262.038 482.255 262.113 482.034 262.263C481.813 262.413 481.651 262.662 481.549 263.009L480.164 262.583C480.298 262.062 480.59 261.644 481.04 261.328C481.497 261.013 482.109 260.855 482.874 260.855C483.395 260.855 483.849 260.938 484.235 261.103C484.622 261.261 484.922 261.502 485.135 261.825C485.356 262.149 485.466 262.555 485.466 263.044V265.447C485.466 265.747 485.608 265.897 485.892 265.897C486.026 265.897 486.152 265.877 486.271 265.837L486.176 266.843C485.971 266.946 485.715 266.997 485.407 266.997C485.131 266.997 484.882 266.95 484.661 266.855C484.44 266.76 484.267 266.618 484.141 266.429C484.014 266.232 483.951 265.987 483.951 265.695V265.648L484.235 265.601C484.188 265.9 484.058 266.157 483.845 266.37C483.632 266.575 483.371 266.733 483.064 266.843C482.764 266.954 482.452 267.009 482.129 267.009C481.726 267.009 481.379 266.95 481.087 266.831C480.795 266.705 480.57 266.524 480.413 266.287C480.255 266.05 480.176 265.758 480.176 265.411C480.176 264.969 480.318 264.61 480.602 264.334C480.886 264.05 481.292 263.857 481.821 263.754L484.046 263.305L484.034 264.311L482.614 264.595C482.346 264.65 482.14 264.725 481.998 264.82C481.864 264.906 481.797 265.052 481.797 265.257C481.797 265.455 481.868 265.605 482.01 265.707C482.16 265.81 482.338 265.861 482.543 265.861C482.709 265.861 482.87 265.841 483.028 265.802C483.186 265.762 483.328 265.699 483.454 265.612C483.58 265.526 483.679 265.407 483.75 265.257C483.821 265.108 483.856 264.926 483.856 264.713V263.115ZM492.049 260.973L489.658 267.257C489.469 267.794 489.256 268.22 489.019 268.536C488.791 268.851 488.522 269.08 488.215 269.222C487.915 269.364 487.556 269.435 487.138 269.435C486.83 269.435 486.546 269.396 486.286 269.317C486.033 269.246 485.812 269.151 485.623 269.033L485.966 267.861C486.116 267.979 486.274 268.062 486.439 268.11C486.605 268.165 486.794 268.192 487.008 268.192C487.228 268.192 487.418 268.145 487.576 268.05C487.741 267.956 487.879 267.766 487.99 267.482L488.191 266.973L487.54 265.435L485.729 260.973H487.528L488.653 264.524L488.96 265.707L489.327 264.453L490.404 260.973H492.049Z" fill="#5FC92E"/>
</g>
<defs>
<filter id="filter0_d_1503_29766" x="0.0390472" y="0.979441" width="634.922" height="403.222" filterUnits="userSpaceOnUse" color-interpolation-filters="sRGB">
<feFlood flood-opacity="0" result="BackgroundImageFix"/>
<feColorMatrix in="SourceAlpha" type="matrix" values="0 0 0 0 0 0 0 0 0 0 0 0 0 0 0 0 0 0 127 0" result="hardAlpha"/>
<feOffset dy="17.7519"/>
<feGaussianBlur stdDeviation="39.7305"/>
<feComposite in2="hardAlpha" operator="out"/>
<feColorMatrix type="matrix" values="0 0 0 0 0 0 0 0 0 0 0 0 0 0 0 0 0 0 0.03 0"/>
<feBlend mode="normal" in2="BackgroundImageFix" result="effect1_dropShadow_1503_29766"/>
<feBlend mode="normal" in="SourceGraphic" in2="effect1_dropShadow_1503_29766" result="shape"/>
</filter>
</defs>
</svg>
