<svg width="479" height="142" viewBox="0 0 479 142" fill="none" xmlns="http://www.w3.org/2000/svg">
<path d="M9.54 17.7888C10.4867 17.7888 11.3 17.9554 11.98 18.2888C12.6733 18.6221 13.2133 19.0954 13.6 19.7088C13.9867 20.3221 14.18 21.0621 14.18 21.9288C14.18 22.7821 13.9867 23.5221 13.6 24.1488C13.2133 24.7621 12.6733 25.2354 11.98 25.5688C11.3 25.9021 10.4867 26.0688 9.54 26.0688H6.6V30.9888H4.46V17.7888H9.54ZM9.2 24.2288C10.1467 24.2288 10.84 24.0354 11.28 23.6488C11.7333 23.2488 11.96 22.6754 11.96 21.9288C11.96 21.1688 11.7333 20.5954 11.28 20.2088C10.84 19.8088 10.1467 19.6088 9.2 19.6088H6.6V24.2288H9.2ZM15.2464 30.9888V20.9888H17.0664L17.2664 22.7888C17.5331 22.1354 17.9264 21.6421 18.4464 21.3088C18.9798 20.9621 19.6331 20.7888 20.4064 20.7888C20.6064 20.7888 20.8064 20.8088 21.0064 20.8488C21.2064 20.8754 21.3731 20.9221 21.5064 20.9888L21.2064 22.8688C21.0598 22.8154 20.8931 22.7754 20.7064 22.7488C20.5331 22.7088 20.2931 22.6888 19.9864 22.6888C19.5731 22.6888 19.1664 22.8021 18.7664 23.0288C18.3664 23.2421 18.0331 23.5688 17.7664 24.0088C17.5131 24.4488 17.3864 25.0088 17.3864 25.6888V30.9888H15.2464ZM26.1611 20.7888C27.1345 20.7888 27.9945 20.9954 28.7411 21.4088C29.4878 21.8221 30.0678 22.4221 30.4811 23.2088C30.9078 23.9821 31.1211 24.9088 31.1211 25.9888C31.1211 27.0688 30.9078 28.0021 30.4811 28.7888C30.0678 29.5621 29.4878 30.1554 28.7411 30.5688C27.9945 30.9821 27.1345 31.1888 26.1611 31.1888C25.1878 31.1888 24.3278 30.9821 23.5811 30.5688C22.8345 30.1554 22.2478 29.5621 21.8211 28.7888C21.3945 28.0021 21.1811 27.0688 21.1811 25.9888C21.1811 24.9088 21.3945 23.9821 21.8211 23.2088C22.2478 22.4221 22.8345 21.8221 23.5811 21.4088C24.3278 20.9954 25.1878 20.7888 26.1611 20.7888ZM26.1611 22.4688C25.5611 22.4688 25.0478 22.6088 24.6211 22.8888C24.2078 23.1554 23.8878 23.5488 23.6611 24.0688C23.4345 24.5888 23.3211 25.2288 23.3211 25.9888C23.3211 26.7354 23.4345 27.3754 23.6611 27.9088C23.8878 28.4288 24.2078 28.8288 24.6211 29.1088C25.0478 29.3754 25.5611 29.5088 26.1611 29.5088C26.7611 29.5088 27.2678 29.3754 27.6811 29.1088C28.0945 28.8288 28.4145 28.4288 28.6411 27.9088C28.8678 27.3754 28.9811 26.7354 28.9811 25.9888C28.9811 25.2288 28.8678 24.5888 28.6411 24.0688C28.4145 23.5488 28.0945 23.1554 27.6811 22.8888C27.2678 22.6088 26.7611 22.4688 26.1611 22.4688ZM32.3607 35.1888V20.9888H34.2607L34.4207 23.7888L34.1407 23.4488C34.3007 22.9288 34.5474 22.4688 34.8807 22.0688C35.214 21.6688 35.6274 21.3554 36.1207 21.1288C36.6274 20.9021 37.1807 20.7888 37.7807 20.7888C38.594 20.7888 39.334 20.9954 40.0007 21.4088C40.6674 21.8221 41.194 22.4154 41.5807 23.1888C41.9674 23.9488 42.1607 24.8754 42.1607 25.9688C42.1607 27.0621 41.9607 28.0021 41.5607 28.7888C41.174 29.5621 40.6407 30.1554 39.9607 30.5688C39.294 30.9821 38.5474 31.1888 37.7207 31.1888C36.8674 31.1888 36.1407 30.9688 35.5407 30.5288C34.9407 30.0754 34.514 29.5021 34.2607 28.8088L34.5007 28.4688V35.1888H32.3607ZM37.2607 29.4488C38.1274 29.4488 38.8007 29.1421 39.2807 28.5288C39.774 27.9154 40.0207 27.0688 40.0207 25.9888C40.0207 24.9088 39.7807 24.0621 39.3007 23.4488C38.8207 22.8221 38.154 22.5088 37.3007 22.5088C36.7407 22.5088 36.2474 22.6554 35.8207 22.9488C35.4074 23.2288 35.0807 23.6288 34.8407 24.1488C34.614 24.6554 34.5007 25.2688 34.5007 25.9888C34.5007 26.6954 34.614 27.3088 34.8407 27.8288C35.0674 28.3488 35.3874 28.7488 35.8007 29.0288C36.214 29.3088 36.7007 29.4488 37.2607 29.4488ZM47.8471 31.1888C46.8471 31.1888 45.9671 30.9821 45.2071 30.5688C44.4471 30.1554 43.8538 29.5621 43.4271 28.7888C43.0138 28.0021 42.8071 27.0688 42.8071 25.9888C42.8071 24.9088 43.0138 23.9821 43.4271 23.2088C43.8538 22.4221 44.4405 21.8221 45.1871 21.4088C45.9338 20.9954 46.7805 20.7888 47.7271 20.7888C48.7005 20.7888 49.5271 20.9888 50.2071 21.3888C50.8871 21.7888 51.4071 22.3354 51.7671 23.0288C52.1271 23.7221 52.3071 24.5088 52.3071 25.3888C52.3071 25.6288 52.3005 25.8554 52.2871 26.0688C52.2738 26.2821 52.2538 26.4688 52.2271 26.6288H44.1871V24.9888H51.2871L50.2271 25.3088C50.2271 24.4021 50.0005 23.7088 49.5471 23.2288C49.0938 22.7354 48.4738 22.4888 47.6871 22.4888C47.1138 22.4888 46.6138 22.6221 46.1871 22.8888C45.7605 23.1554 45.4338 23.5554 45.2071 24.0888C44.9805 24.6088 44.8671 25.2488 44.8671 26.0088C44.8671 26.7554 44.9871 27.3888 45.2271 27.9088C45.4671 28.4288 45.8071 28.8221 46.2471 29.0888C46.6871 29.3554 47.2071 29.4888 47.8071 29.4888C48.4738 29.4888 49.0138 29.3621 49.4271 29.1088C49.8405 28.8554 50.1671 28.5021 50.4071 28.0488L52.1071 28.8488C51.8671 29.3288 51.5405 29.7488 51.1271 30.1088C50.7271 30.4554 50.2471 30.7221 49.6871 30.9088C49.1271 31.0954 48.5138 31.1888 47.8471 31.1888ZM53.557 30.9888V20.9888H55.377L55.577 22.7888C55.8437 22.1354 56.237 21.6421 56.757 21.3088C57.2903 20.9621 57.9437 20.7888 58.717 20.7888C58.917 20.7888 59.117 20.8088 59.317 20.8488C59.517 20.8754 59.6837 20.9221 59.817 20.9888L59.517 22.8688C59.3703 22.8154 59.2037 22.7754 59.017 22.7488C58.8437 22.7088 58.6037 22.6888 58.297 22.6888C57.8837 22.6888 57.477 22.8021 57.077 23.0288C56.677 23.2421 56.3437 23.5688 56.077 24.0088C55.8237 24.4488 55.697 25.0088 55.697 25.6888V30.9888H53.557ZM62.8173 18.0488V27.9888C62.8173 28.4821 62.944 28.8421 63.1973 29.0688C63.464 29.2954 63.8173 29.4088 64.2573 29.4088C64.6173 29.4088 64.9307 29.3554 65.1973 29.2488C65.464 29.1288 65.7107 28.9688 65.9373 28.7688L66.4173 30.3288C66.1107 30.5954 65.7307 30.8088 65.2773 30.9688C64.8373 31.1154 64.344 31.1888 63.7973 31.1888C63.224 31.1888 62.6973 31.0954 62.2173 30.9088C61.7373 30.7221 61.364 30.4221 61.0973 30.0088C60.8307 29.5821 60.6907 29.0288 60.6773 28.3488V18.6488L62.8173 18.0488ZM66.2573 20.9888V22.6688H58.7573V20.9888H66.2573ZM68.0013 19.3088C67.5346 19.3088 67.1746 19.1954 66.9213 18.9688C66.6813 18.7288 66.5613 18.3954 66.5613 17.9688C66.5613 17.5421 66.6813 17.2154 66.9213 16.9888C67.1746 16.7621 67.5346 16.6488 68.0013 16.6488C68.4546 16.6488 68.8013 16.7621 69.0413 16.9888C69.2946 17.2154 69.4213 17.5421 69.4213 17.9688C69.4213 18.3954 69.2946 18.7288 69.0413 18.9688C68.8013 19.1954 68.4546 19.3088 68.0013 19.3088ZM69.0613 20.9888V30.9888H66.9213V20.9888H69.0613ZM75.3569 31.1888C74.3569 31.1888 73.4769 30.9821 72.7169 30.5688C71.9569 30.1554 71.3636 29.5621 70.9369 28.7888C70.5236 28.0021 70.3169 27.0688 70.3169 25.9888C70.3169 24.9088 70.5236 23.9821 70.9369 23.2088C71.3636 22.4221 71.9502 21.8221 72.6969 21.4088C73.4436 20.9954 74.2902 20.7888 75.2369 20.7888C76.2102 20.7888 77.0369 20.9888 77.7169 21.3888C78.3969 21.7888 78.9169 22.3354 79.2769 23.0288C79.6369 23.7221 79.8169 24.5088 79.8169 25.3888C79.8169 25.6288 79.8102 25.8554 79.7969 26.0688C79.7836 26.2821 79.7636 26.4688 79.7369 26.6288H71.6969V24.9888H78.7969L77.7369 25.3088C77.7369 24.4021 77.5102 23.7088 77.0569 23.2288C76.6036 22.7354 75.9836 22.4888 75.1969 22.4888C74.6236 22.4888 74.1236 22.6221 73.6969 22.8888C73.2702 23.1554 72.9436 23.5554 72.7169 24.0888C72.4902 24.6088 72.3769 25.2488 72.3769 26.0088C72.3769 26.7554 72.4969 27.3888 72.7369 27.9088C72.9769 28.4288 73.3169 28.8221 73.7569 29.0888C74.1969 29.3554 74.7169 29.4888 75.3169 29.4888C75.9836 29.4888 76.5236 29.3621 76.9369 29.1088C77.3502 28.8554 77.6769 28.5021 77.9169 28.0488L79.6169 28.8488C79.3769 29.3288 79.0502 29.7488 78.6369 30.1088C78.2369 30.4554 77.7569 30.7221 77.1969 30.9088C76.6369 31.0954 76.0236 31.1888 75.3569 31.1888ZM84.8668 31.1888C83.8668 31.1888 82.9535 30.9954 82.1268 30.6088C81.3001 30.2221 80.6468 29.6754 80.1668 28.9688L81.6468 27.6888C81.9401 28.2354 82.3601 28.6754 82.9068 29.0088C83.4668 29.3288 84.1335 29.4888 84.9068 29.4888C85.5201 29.4888 86.0068 29.3821 86.3668 29.1688C86.7268 28.9554 86.9068 28.6554 86.9068 28.2688C86.9068 28.0154 86.8201 27.7954 86.6468 27.6088C86.4868 27.4088 86.1735 27.2554 85.7068 27.1488L83.6068 26.7088C82.5401 26.4954 81.7801 26.1554 81.3268 25.6888C80.8735 25.2088 80.6468 24.6021 80.6468 23.8688C80.6468 23.3221 80.8068 22.8154 81.1268 22.3488C81.4468 21.8821 81.9135 21.5088 82.5268 21.2288C83.1535 20.9354 83.9001 20.7888 84.7668 20.7888C85.7668 20.7888 86.6201 20.9688 87.3268 21.3288C88.0335 21.6754 88.5735 22.1754 88.9468 22.8288L87.4668 24.0688C87.2135 23.5354 86.8401 23.1421 86.3468 22.8888C85.8535 22.6221 85.3401 22.4888 84.8068 22.4888C84.3801 22.4888 84.0135 22.5421 83.7068 22.6488C83.4001 22.7554 83.1668 22.9021 83.0068 23.0888C82.8468 23.2754 82.7668 23.4954 82.7668 23.7488C82.7668 24.0154 82.8668 24.2488 83.0668 24.4488C83.2668 24.6488 83.6268 24.8021 84.1468 24.9088L86.4268 25.3888C87.3868 25.5754 88.0601 25.8954 88.4468 26.3488C88.8468 26.7888 89.0468 27.3288 89.0468 27.9688C89.0468 28.6088 88.8801 29.1754 88.5468 29.6688C88.2135 30.1488 87.7335 30.5221 87.1068 30.7888C86.4801 31.0554 85.7335 31.1888 84.8668 31.1888ZM100.051 17.5888C101.238 17.5888 102.265 17.8154 103.131 18.2688C103.998 18.7088 104.731 19.3621 105.331 20.2288L103.891 21.6088C103.385 20.8354 102.811 20.2821 102.171 19.9488C101.545 19.6021 100.798 19.4288 99.9314 19.4288C99.2914 19.4288 98.7647 19.5154 98.3514 19.6888C97.938 19.8621 97.6314 20.0954 97.4314 20.3888C97.2447 20.6688 97.1514 20.9888 97.1514 21.3488C97.1514 21.7621 97.2914 22.1221 97.5714 22.4288C97.8647 22.7354 98.4047 22.9754 99.1914 23.1488L101.871 23.7488C103.151 24.0288 104.058 24.4554 104.591 25.0288C105.125 25.6021 105.391 26.3288 105.391 27.2088C105.391 28.0221 105.171 28.7288 104.731 29.3288C104.291 29.9288 103.678 30.3888 102.891 30.7088C102.118 31.0288 101.205 31.1888 100.151 31.1888C99.218 31.1888 98.378 31.0688 97.6314 30.8288C96.8847 30.5888 96.2314 30.2621 95.6714 29.8488C95.1114 29.4354 94.6514 28.9621 94.2914 28.4288L95.7714 26.9488C96.0514 27.4154 96.4047 27.8354 96.8314 28.2088C97.258 28.5688 97.7514 28.8488 98.3114 29.0488C98.8847 29.2488 99.518 29.3488 100.211 29.3488C100.825 29.3488 101.351 29.2754 101.791 29.1288C102.245 28.9821 102.585 28.7688 102.811 28.4888C103.051 28.1954 103.171 27.8488 103.171 27.4488C103.171 27.0621 103.038 26.7221 102.771 26.4288C102.518 26.1354 102.038 25.9088 101.331 25.7488L98.4314 25.0888C97.6314 24.9154 96.9714 24.6688 96.4514 24.3488C95.9314 24.0288 95.5447 23.6421 95.2914 23.1888C95.038 22.7221 94.9114 22.2021 94.9114 21.6288C94.9114 20.8821 95.1114 20.2088 95.5114 19.6088C95.9247 18.9954 96.518 18.5088 97.2914 18.1488C98.0647 17.7754 98.9847 17.5888 100.051 17.5888ZM109.551 18.0488V27.9888C109.551 28.4821 109.677 28.8421 109.931 29.0688C110.197 29.2954 110.551 29.4088 110.991 29.4088C111.351 29.4088 111.664 29.3554 111.931 29.2488C112.197 29.1288 112.444 28.9688 112.671 28.7688L113.151 30.3288C112.844 30.5954 112.464 30.8088 112.011 30.9688C111.571 31.1154 111.077 31.1888 110.531 31.1888C109.957 31.1888 109.431 31.0954 108.951 30.9088C108.471 30.7221 108.097 30.4221 107.831 30.0088C107.564 29.5821 107.424 29.0288 107.411 28.3488V18.6488L109.551 18.0488ZM112.991 20.9888V22.6688H105.491V20.9888H112.991ZM119.493 24.5688C119.493 23.9021 119.307 23.3888 118.933 23.0288C118.573 22.6554 118.073 22.4688 117.433 22.4688C116.833 22.4688 116.32 22.6088 115.893 22.8888C115.467 23.1688 115.153 23.6221 114.953 24.2488L113.153 23.4888C113.407 22.6754 113.9 22.0221 114.633 21.5288C115.38 21.0354 116.34 20.7888 117.513 20.7888C118.313 20.7888 119.02 20.9221 119.633 21.1888C120.247 21.4421 120.727 21.8288 121.073 22.3488C121.433 22.8688 121.613 23.5354 121.613 24.3488V28.8088C121.613 29.3021 121.86 29.5488 122.353 29.5488C122.593 29.5488 122.827 29.5154 123.053 29.4488L122.933 30.9288C122.627 31.0754 122.24 31.1488 121.773 31.1488C121.347 31.1488 120.96 31.0754 120.613 30.9288C120.28 30.7688 120.013 30.5354 119.813 30.2288C119.627 29.9088 119.533 29.5154 119.533 29.0488V28.9088L119.973 28.8888C119.853 29.4088 119.607 29.8421 119.233 30.1888C118.86 30.5221 118.427 30.7754 117.933 30.9488C117.44 31.1088 116.94 31.1888 116.433 31.1888C115.807 31.1888 115.24 31.0888 114.733 30.8888C114.24 30.6888 113.847 30.3888 113.553 29.9888C113.273 29.5754 113.133 29.0688 113.133 28.4688C113.133 27.7221 113.373 27.1088 113.853 26.6288C114.347 26.1488 115.04 25.8221 115.933 25.6488L119.813 24.8888L119.793 26.3888L116.973 26.9688C116.413 27.0754 115.993 27.2288 115.713 27.4288C115.433 27.6288 115.293 27.9221 115.293 28.3088C115.293 28.6821 115.433 28.9821 115.713 29.2088C116.007 29.4221 116.393 29.5288 116.873 29.5288C117.207 29.5288 117.527 29.4888 117.833 29.4088C118.153 29.3288 118.44 29.2021 118.693 29.0288C118.947 28.8421 119.14 28.6088 119.273 28.3288C119.42 28.0354 119.493 27.6888 119.493 27.2888V24.5688ZM126.196 18.0488V27.9888C126.196 28.4821 126.323 28.8421 126.576 29.0688C126.843 29.2954 127.196 29.4088 127.636 29.4088C127.996 29.4088 128.31 29.3554 128.576 29.2488C128.843 29.1288 129.09 28.9688 129.316 28.7688L129.796 30.3288C129.49 30.5954 129.11 30.8088 128.656 30.9688C128.216 31.1154 127.723 31.1888 127.176 31.1888C126.603 31.1888 126.076 31.0954 125.596 30.9088C125.116 30.7221 124.743 30.4221 124.476 30.0088C124.21 29.5821 124.07 29.0288 124.056 28.3488V18.6488L126.196 18.0488ZM129.636 20.9888V22.6688H122.136V20.9888H129.636ZM134.1 31.1888C133.1 31.1888 132.187 30.9954 131.36 30.6088C130.534 30.2221 129.88 29.6754 129.4 28.9688L130.88 27.6888C131.174 28.2354 131.594 28.6754 132.14 29.0088C132.7 29.3288 133.367 29.4888 134.14 29.4888C134.754 29.4888 135.24 29.3821 135.6 29.1688C135.96 28.9554 136.14 28.6554 136.14 28.2688C136.14 28.0154 136.054 27.7954 135.88 27.6088C135.72 27.4088 135.407 27.2554 134.94 27.1488L132.84 26.7088C131.774 26.4954 131.014 26.1554 130.56 25.6888C130.107 25.2088 129.88 24.6021 129.88 23.8688C129.88 23.3221 130.04 22.8154 130.36 22.3488C130.68 21.8821 131.147 21.5088 131.76 21.2288C132.387 20.9354 133.134 20.7888 134 20.7888C135 20.7888 135.854 20.9688 136.56 21.3288C137.267 21.6754 137.807 22.1754 138.18 22.8288L136.7 24.0688C136.447 23.5354 136.074 23.1421 135.58 22.8888C135.087 22.6221 134.574 22.4888 134.04 22.4888C133.614 22.4888 133.247 22.5421 132.94 22.6488C132.634 22.7554 132.4 22.9021 132.24 23.0888C132.08 23.2754 132 23.4954 132 23.7488C132 24.0154 132.1 24.2488 132.3 24.4488C132.5 24.6488 132.86 24.8021 133.38 24.9088L135.66 25.3888C136.62 25.5754 137.294 25.8954 137.68 26.3488C138.08 26.7888 138.28 27.3288 138.28 27.9688C138.28 28.6088 138.114 29.1754 137.78 29.6688C137.447 30.1488 136.967 30.5221 136.34 30.7888C135.714 31.0554 134.967 31.1888 134.1 31.1888Z" fill="#242828"/>
<path d="M9.36804 88.7993V74.2265C9.36804 73.6919 9.36804 73.1458 9.36804 72.5879C9.39128 72.0069 9.41453 71.4142 9.43777 70.8099C8.64754 71.5304 7.76434 72.158 6.78817 72.6925C5.812 73.2271 4.81259 73.599 3.78994 73.8082L3.1624 69.764C3.69697 69.7175 4.28964 69.5665 4.94042 69.3108C5.61444 69.0319 6.28846 68.7065 6.96248 68.3346C7.65975 67.9395 8.28728 67.5328 8.84509 67.1144C9.42615 66.6728 9.86775 66.2312 10.1699 65.7896H14.0746V88.7993H9.36804ZM25.8008 65.441C27.8461 65.441 29.566 65.9175 30.9605 66.8704C32.355 67.8001 33.4009 69.1481 34.0982 70.9145C34.8187 72.6577 35.1789 74.7611 35.1789 77.2247C35.1789 79.9441 34.7954 82.1869 34.0285 83.9533C33.2615 85.6965 32.1691 86.9981 30.7513 87.858C29.3568 88.718 27.7182 89.1479 25.8356 89.1479C23.86 89.1479 22.1517 88.7296 20.7107 87.8929C19.293 87.0562 18.2238 85.7778 17.5033 84.0579L21.9309 82.1753C22.1866 83.1282 22.6282 83.8952 23.2557 84.4763C23.9065 85.0341 24.8013 85.313 25.9402 85.313C26.8466 85.313 27.6136 85.1387 28.2412 84.7901C28.8687 84.4182 29.3684 83.8952 29.7403 83.2212C30.1354 82.5472 30.4143 81.7221 30.577 80.7459C30.7629 79.7698 30.8559 78.6774 30.8559 77.4688C30.8559 77.3758 30.8559 77.2945 30.8559 77.2247C30.8559 77.155 30.8559 77.0737 30.8559 76.9807H30.7165C30.4608 77.7942 30.0192 78.4682 29.3917 79.0028C28.7874 79.5141 28.0901 79.8976 27.2999 80.1533C26.5096 80.3857 25.6962 80.5019 24.8594 80.5019C23.3952 80.5019 22.0936 80.2114 20.9548 79.6303C19.8392 79.026 18.956 78.1893 18.3052 77.1202C17.6544 76.0278 17.329 74.7611 17.329 73.3201C17.329 71.6931 17.6776 70.2986 18.3749 69.1365C19.0722 67.9511 20.0483 67.0447 21.3034 66.4172C22.5817 65.7664 24.0808 65.441 25.8008 65.441ZM25.8356 69.3457C24.6038 69.3457 23.6392 69.6943 22.942 70.3916C22.2447 71.0656 21.8961 72.0185 21.8961 73.2503C21.8961 74.3427 22.2563 75.2027 22.9768 75.8302C23.6973 76.4345 24.6503 76.7367 25.8356 76.7367C26.6026 76.7367 27.2766 76.5856 27.8577 76.2834C28.462 75.9813 28.9268 75.5513 29.2522 74.9935C29.5776 74.4357 29.7403 73.7965 29.7403 73.076C29.7403 72.309 29.5776 71.6466 29.2522 71.0888C28.9268 70.531 28.462 70.101 27.8577 69.7989C27.2766 69.4967 26.6026 69.3457 25.8356 69.3457ZM46.4579 65.5107C48.1081 65.5107 49.5375 65.7664 50.7461 66.2777C51.9779 66.7658 52.9192 67.4747 53.57 68.4044C54.244 69.3108 54.581 70.4148 54.581 71.7164C54.581 72.925 54.2789 73.9709 53.6746 74.8541C53.0935 75.7373 52.2452 76.4113 51.1296 76.8761V76.911C52.4776 77.3991 53.5351 78.1079 54.3021 79.0376C55.0691 79.9673 55.4526 81.141 55.4526 82.5588C55.4526 83.9069 55.0807 85.069 54.337 86.0451C53.6165 87.0213 52.5822 87.7883 51.2341 88.3461C49.9094 88.8807 48.3173 89.1479 46.4579 89.1479C44.6218 89.1479 43.0297 88.8807 41.6816 88.3461C40.3568 87.7883 39.3226 87.0213 38.5788 86.0451C37.8583 85.069 37.4981 83.9069 37.4981 82.5588C37.4981 81.1643 37.8816 80.0022 38.6486 79.0725C39.4155 78.1196 40.4847 77.3991 41.856 76.911V76.8761C40.7403 76.4345 39.8804 75.7721 39.2761 74.8889C38.6718 73.9825 38.3696 72.925 38.3696 71.7164C38.3696 70.4148 38.695 69.3108 39.3458 68.4044C40.0198 67.4747 40.9728 66.7658 42.2046 66.2777C43.4364 65.7664 44.8542 65.5107 46.4579 65.5107ZM46.4928 69.2062C45.4004 69.2062 44.5288 69.4735 43.878 70.0081C43.2272 70.5426 42.9019 71.2864 42.9019 72.2393C42.9019 73.1922 43.2272 73.936 43.878 74.4706C44.5288 75.0051 45.4004 75.2724 46.4928 75.2724C47.5619 75.2724 48.4102 75.0051 49.0378 74.4706C49.6885 73.936 50.0139 73.1922 50.0139 72.2393C50.0139 71.2864 49.7002 70.5426 49.0726 70.0081C48.4451 69.4735 47.5851 69.2062 46.4928 69.2062ZM46.4928 85.4176C47.376 85.4176 48.1313 85.2898 48.7589 85.0341C49.3864 84.7784 49.8629 84.3949 50.1883 83.8836C50.5369 83.3723 50.7112 82.768 50.7112 82.0707C50.7112 81.3735 50.5369 80.7692 50.1883 80.2578C49.8629 79.7465 49.3748 79.363 48.724 79.1074C48.0965 78.8285 47.3527 78.689 46.4928 78.689C45.6328 78.689 44.8774 78.8285 44.2267 79.1074C43.5759 79.363 43.0762 79.7465 42.7275 80.2578C42.3789 80.7692 42.2046 81.3735 42.2046 82.0707C42.2046 82.768 42.3789 83.3723 42.7275 83.8836C43.0762 84.3949 43.5643 84.7784 44.1918 85.0341C44.8426 85.2898 45.6096 85.4176 46.4928 85.4176ZM55.8447 65.7896H74.0781V69.4503C72.149 71.3794 70.6151 73.3666 69.4762 75.4119C68.3373 77.4572 67.5122 79.5838 67.0009 81.7918C66.5128 83.9998 66.2688 86.3357 66.2688 88.7993H61.4925C61.4925 86.2427 61.8063 83.7906 62.4338 81.4432C63.0846 79.0725 64.0724 76.818 65.3972 74.6797C66.7453 72.5182 68.4536 70.4497 70.5221 68.4741L71.4983 69.7292H55.8447V65.7896ZM92.827 75.7256H95.7555L90.5522 88.7993H87.4929L82.2634 75.7256H85.3227L89.0356 86.3676L92.827 75.7256ZM98.8265 73.5293C98.2164 73.5293 97.7457 73.3811 97.4145 73.0847C97.1007 72.771 96.9439 72.3352 96.9439 71.7774C96.9439 71.2196 97.1007 70.7925 97.4145 70.4962C97.7457 70.1998 98.2164 70.0517 98.8265 70.0517C99.4191 70.0517 99.8724 70.1998 100.186 70.4962C100.517 70.7925 100.683 71.2196 100.683 71.7774C100.683 72.3352 100.517 72.771 100.186 73.0847C99.8724 73.3811 99.4191 73.5293 98.8265 73.5293ZM100.212 75.7256V88.7993H97.4145V75.7256H100.212ZM109.616 89.0608C108.308 89.0608 107.158 88.7906 106.164 88.2502C105.171 87.7098 104.395 86.9341 103.837 85.9231C103.297 84.8946 103.027 83.6744 103.027 82.2625C103.027 80.8505 103.297 79.639 103.837 78.628C104.395 77.5995 105.162 76.8151 106.138 76.2747C107.114 75.7343 108.221 75.4642 109.459 75.4642C110.731 75.4642 111.812 75.7256 112.701 76.2486C113.59 76.7715 114.27 77.4862 114.741 78.3927C115.211 79.2991 115.447 80.3276 115.447 81.4781C115.447 81.7918 115.438 82.0882 115.421 82.3671C115.403 82.646 115.377 82.89 115.342 83.0992H104.831V80.9551H114.113L112.727 81.3735C112.727 80.1881 112.431 79.2817 111.838 78.6541C111.246 78.0092 110.435 77.6867 109.407 77.6867C108.657 77.6867 108.003 77.861 107.446 78.2096C106.888 78.5583 106.461 79.0812 106.164 79.7785C105.868 80.4583 105.72 81.295 105.72 82.2886C105.72 83.2648 105.877 84.0928 106.191 84.7726C106.504 85.4525 106.949 85.9667 107.524 86.3153C108.099 86.6639 108.779 86.8383 109.564 86.8383C110.435 86.8383 111.141 86.6727 111.681 86.3415C112.222 86.0103 112.649 85.5483 112.963 84.9557L115.185 86.0015C114.871 86.6291 114.444 87.1782 113.904 87.6488C113.381 88.1021 112.754 88.4507 112.021 88.6947C111.289 88.9388 110.487 89.0608 109.616 89.0608ZM134.551 75.7256H137.584L133.192 88.7993H130.132L126.838 79.0986L123.726 88.7993H120.667L116.3 75.7256H119.307L122.288 86.0538L125.53 75.7256H128.328L131.571 86.0538L134.551 75.7256ZM144.302 89.0608C142.994 89.0608 141.8 88.808 140.72 88.3025C139.639 87.797 138.785 87.0823 138.157 86.1584L140.092 84.485C140.475 85.1997 141.025 85.7749 141.739 86.2107C142.471 86.6291 143.343 86.8383 144.354 86.8383C145.156 86.8383 145.792 86.6988 146.263 86.4199C146.733 86.141 146.969 85.7488 146.969 85.2433C146.969 84.9121 146.855 84.6245 146.629 84.3804C146.42 84.1189 146.01 83.9185 145.4 83.779L142.654 83.2038C141.26 82.9249 140.266 82.4804 139.674 81.8703C139.081 81.2427 138.785 80.4496 138.785 79.4909C138.785 78.7762 138.994 78.1138 139.412 77.5037C139.831 76.8935 140.441 76.4055 141.242 76.0394C142.062 75.6559 143.038 75.4642 144.171 75.4642C145.478 75.4642 146.594 75.6995 147.518 76.1701C148.442 76.6234 149.148 77.277 149.636 78.1312L147.701 79.7523C147.37 79.0551 146.882 78.5408 146.237 78.2096C145.592 77.861 144.921 77.6867 144.223 77.6867C143.665 77.6867 143.186 77.7564 142.785 77.8959C142.384 78.0353 142.079 78.2271 141.87 78.4711C141.661 78.7151 141.556 79.0028 141.556 79.334C141.556 79.6826 141.687 79.9877 141.948 80.2491C142.21 80.5106 142.681 80.7111 143.36 80.8505L146.341 81.4781C147.596 81.7221 148.477 82.1405 148.982 82.7331C149.505 83.3084 149.767 84.0143 149.767 84.8511C149.767 85.6878 149.549 86.4286 149.113 87.0736C148.677 87.7011 148.05 88.1892 147.23 88.5378C146.411 88.8865 145.435 89.0608 144.302 89.0608Z" fill="#4B5353"/>
<path d="M9.08092 111.718C8.65546 111.293 7.96564 111.293 7.54017 111.718L0.606804 118.652C0.181338 119.077 0.181338 119.767 0.606804 120.193C1.03227 120.618 1.72209 120.618 2.14755 120.193L8.31055 114.03L14.4735 120.193C14.899 120.618 15.5888 120.618 16.0143 120.193C16.4398 119.767 16.4398 119.077 16.0143 118.652L9.08092 111.718ZM7.22107 112.489L7.22107 135.731L9.40002 135.731L9.40002 112.489L7.22107 112.489Z" fill="#5FC92E"/>
<path d="M21.876 131.61V129.797C23.348 128.743 24.5799 127.814 25.5715 127.008C26.5787 126.202 27.3844 125.458 27.9887 124.777C28.593 124.095 29.0268 123.452 29.2903 122.848C29.5692 122.228 29.7086 121.6 29.7086 120.965C29.7086 120.144 29.4529 119.477 28.9416 118.966C28.4303 118.455 27.7175 118.199 26.8033 118.199C25.8427 118.199 25.0757 118.525 24.5024 119.175C23.9446 119.811 23.6269 120.686 23.5495 121.802L21.3879 120.802C21.4964 119.826 21.7831 118.982 22.2479 118.269C22.7127 117.556 23.3403 117.006 24.1305 116.619C24.9362 116.231 25.8659 116.038 26.9196 116.038C27.7873 116.038 28.5465 116.162 29.1973 116.41C29.8636 116.657 30.4214 117.006 30.8707 117.455C31.3201 117.889 31.6609 118.401 31.8934 118.989C32.1413 119.578 32.2652 120.206 32.2652 120.872C32.2652 121.848 32.0251 122.793 31.5447 123.708C31.0644 124.606 30.3052 125.528 29.267 126.473C28.2289 127.419 26.8653 128.433 25.1764 129.518V129.565C25.3623 129.534 25.618 129.518 25.9434 129.518C26.2688 129.503 26.5942 129.495 26.9196 129.495C27.2449 129.479 27.5084 129.472 27.7098 129.472H32.5441V131.61H21.876ZM37.301 131.61L47.3416 116.27H49.4798L39.4625 131.61H37.301ZM37.9053 116.038C38.6955 116.038 39.3773 116.216 39.9506 116.572C40.5394 116.929 40.9887 117.424 41.2986 118.06C41.624 118.695 41.7867 119.446 41.7867 120.314C41.7867 121.166 41.624 121.918 41.2986 122.569C40.9887 123.204 40.5394 123.7 39.9506 124.056C39.3773 124.413 38.6955 124.591 37.9053 124.591C37.1305 124.591 36.4488 124.413 35.86 124.056C35.2712 123.7 34.8141 123.204 34.4887 122.569C34.1788 121.918 34.0238 121.166 34.0238 120.314C34.0238 119.446 34.1788 118.695 34.4887 118.06C34.8141 117.424 35.2712 116.929 35.86 116.572C36.4488 116.216 37.1305 116.038 37.9053 116.038ZM37.9053 117.851C37.5179 117.851 37.1848 117.951 36.9059 118.153C36.627 118.339 36.4178 118.618 36.2783 118.989C36.1389 119.346 36.0691 119.787 36.0691 120.314C36.0691 120.826 36.1389 121.267 36.2783 121.639C36.4178 122.011 36.627 122.29 36.9059 122.476C37.1848 122.662 37.5179 122.755 37.9053 122.755C38.3081 122.755 38.649 122.662 38.9279 122.476C39.2068 122.29 39.416 122.011 39.5555 121.639C39.6949 121.267 39.7646 120.826 39.7646 120.314C39.7646 119.787 39.6949 119.346 39.5555 118.989C39.416 118.618 39.2068 118.339 38.9279 118.153C38.649 117.951 38.3081 117.851 37.9053 117.851ZM48.8755 123.289C49.6658 123.289 50.3475 123.467 50.9208 123.824C51.5096 124.18 51.959 124.684 52.2689 125.334C52.5943 125.97 52.757 126.714 52.757 127.566C52.757 128.433 52.5943 129.185 52.2689 129.82C51.959 130.456 51.5096 130.951 50.9208 131.308C50.3475 131.664 49.6658 131.842 48.8755 131.842C48.1008 131.842 47.419 131.664 46.8302 131.308C46.2414 130.951 45.7843 130.456 45.459 129.82C45.1491 129.185 44.9941 128.433 44.9941 127.566C44.9941 126.714 45.1491 125.97 45.459 125.334C45.7843 124.684 46.2414 124.18 46.8302 123.824C47.419 123.467 48.1008 123.289 48.8755 123.289ZM48.8755 125.125C48.4882 125.125 48.155 125.218 47.8761 125.404C47.5972 125.59 47.388 125.869 47.2486 126.241C47.1091 126.597 47.0394 127.039 47.0394 127.566C47.0394 128.077 47.1091 128.519 47.2486 128.891C47.388 129.262 47.5972 129.549 47.8761 129.75C48.155 129.936 48.4882 130.029 48.8755 130.029C49.2784 130.029 49.6193 129.936 49.8982 129.75C50.1771 129.549 50.3863 129.262 50.5257 128.891C50.6652 128.519 50.7349 128.077 50.7349 127.566C50.7349 127.054 50.6652 126.613 50.5257 126.241C50.3863 125.869 50.1771 125.59 49.8982 125.404C49.6193 125.218 49.2784 125.125 48.8755 125.125Z" fill="#5FC92E"/>
<path d="M66.5986 114.597C67.0789 114.597 67.5128 114.651 67.9002 114.759C68.303 114.852 68.6052 114.984 68.8066 115.154L68.3418 116.944C68.1713 116.836 67.9776 116.758 67.7607 116.712C67.5438 116.65 67.2959 116.619 67.017 116.619C66.3817 116.619 65.8781 116.766 65.5062 117.06C65.1499 117.355 64.9717 117.835 64.9717 118.501V120.198L65.0414 120.826V131.61H62.5545V118.315C62.5545 117.727 62.6397 117.2 62.8101 116.735C62.9961 116.27 63.2672 115.883 63.6236 115.573C63.98 115.247 64.4061 115.007 64.9019 114.852C65.4133 114.682 65.9788 114.597 66.5986 114.597ZM68.7369 119.989V121.941H60.3697V119.989H68.7369ZM70.2509 131.61V119.989H72.3659L72.5983 122.081C72.9082 121.321 73.3653 120.748 73.9696 120.361C74.5894 119.958 75.3487 119.756 76.2474 119.756C76.4798 119.756 76.7122 119.78 76.9446 119.826C77.177 119.857 77.3707 119.911 77.5257 119.989L77.177 122.174C77.0066 122.112 76.8129 122.065 76.596 122.034C76.3946 121.988 76.1156 121.964 75.7593 121.964C75.2789 121.964 74.8063 122.096 74.3415 122.36C73.8767 122.607 73.4893 122.987 73.1794 123.498C72.885 124.01 72.7378 124.66 72.7378 125.451V131.61H70.2509ZM83.8967 119.756C85.0278 119.756 86.0273 119.997 86.895 120.477C87.7627 120.957 88.4367 121.654 88.917 122.569C89.4129 123.467 89.6608 124.544 89.6608 125.799C89.6608 127.054 89.4129 128.139 88.917 129.053C88.4367 129.952 87.7627 130.641 86.895 131.122C86.0273 131.602 85.0278 131.842 83.8967 131.842C82.7656 131.842 81.7662 131.602 80.8985 131.122C80.0308 130.641 79.349 129.952 78.8532 129.053C78.3574 128.139 78.1094 127.054 78.1094 125.799C78.1094 124.544 78.3574 123.467 78.8532 122.569C79.349 121.654 80.0308 120.957 80.8985 120.477C81.7662 119.997 82.7656 119.756 83.8967 119.756ZM83.8967 121.709C83.1995 121.709 82.6029 121.871 82.1071 122.197C81.6267 122.507 81.2549 122.964 80.9915 123.568C80.7281 124.172 80.5963 124.916 80.5963 125.799C80.5963 126.667 80.7281 127.411 80.9915 128.031C81.2549 128.635 81.6267 129.1 82.1071 129.425C82.6029 129.735 83.1995 129.89 83.8967 129.89C84.594 129.89 85.1828 129.735 85.6631 129.425C86.1435 129.1 86.5153 128.635 86.7787 128.031C87.0422 127.411 87.1739 126.667 87.1739 125.799C87.1739 124.916 87.0422 124.172 86.7787 123.568C86.5153 122.964 86.1435 122.507 85.6631 122.197C85.1828 121.871 84.594 121.709 83.8967 121.709ZM92.0631 131.61V119.989H94.2711L94.3873 121.941C94.7901 121.197 95.3247 120.647 95.991 120.291C96.6727 119.935 97.3932 119.756 98.1525 119.756C98.9892 119.756 99.7562 119.95 100.453 120.337C101.166 120.709 101.701 121.275 102.057 122.034C102.305 121.523 102.646 121.097 103.08 120.756C103.514 120.415 103.994 120.167 104.521 120.012C105.048 119.842 105.567 119.756 106.078 119.756C106.822 119.756 107.519 119.911 108.17 120.221C108.821 120.531 109.347 121.004 109.75 121.639C110.153 122.274 110.355 123.088 110.355 124.079V131.61H107.868V124.475C107.868 123.529 107.643 122.848 107.194 122.429C106.744 122.011 106.171 121.802 105.474 121.802C104.931 121.802 104.428 121.933 103.963 122.197C103.514 122.46 103.15 122.855 102.871 123.382C102.592 123.893 102.452 124.529 102.452 125.288V131.61H99.9654V124.475C99.9654 123.529 99.7407 122.848 99.2914 122.429C98.842 122.011 98.2687 121.802 97.5714 121.802C97.1066 121.802 96.6418 121.926 96.1769 122.174C95.7121 122.421 95.3247 122.809 95.0148 123.336C94.7049 123.862 94.55 124.56 94.55 125.427V131.61H92.0631ZM122.648 114.759V128.356C122.648 128.929 122.748 129.324 122.95 129.541C123.151 129.758 123.484 129.867 123.949 129.867C124.228 129.867 124.461 129.851 124.646 129.82C124.848 129.774 125.096 129.696 125.39 129.588L125.111 131.447C124.848 131.571 124.546 131.664 124.205 131.726C123.864 131.804 123.523 131.842 123.182 131.842C122.144 131.842 121.377 131.579 120.881 131.052C120.401 130.51 120.161 129.681 120.161 128.565V114.759H122.648ZM133.507 124.149C133.507 123.374 133.29 122.778 132.856 122.36C132.438 121.926 131.857 121.709 131.113 121.709C130.416 121.709 129.819 121.871 129.323 122.197C128.828 122.522 128.463 123.049 128.231 123.777L126.139 122.894C126.434 121.949 127.007 121.19 127.859 120.616C128.727 120.043 129.842 119.756 131.206 119.756C132.136 119.756 132.957 119.911 133.67 120.221C134.382 120.516 134.94 120.965 135.343 121.569C135.761 122.174 135.971 122.948 135.971 123.893V129.076C135.971 129.65 136.257 129.936 136.831 129.936C137.11 129.936 137.381 129.898 137.644 129.82L137.505 131.54C137.148 131.711 136.699 131.796 136.157 131.796C135.661 131.796 135.211 131.711 134.809 131.54C134.421 131.354 134.111 131.083 133.879 130.727C133.662 130.355 133.553 129.898 133.553 129.355V129.193L134.065 129.169C133.925 129.774 133.639 130.277 133.205 130.68C132.771 131.068 132.267 131.362 131.694 131.563C131.121 131.749 130.54 131.842 129.951 131.842C129.223 131.842 128.564 131.726 127.975 131.494C127.402 131.261 126.945 130.913 126.604 130.448C126.279 129.967 126.116 129.379 126.116 128.681C126.116 127.814 126.395 127.101 126.953 126.543C127.526 125.985 128.332 125.606 129.37 125.404L133.879 124.521L133.856 126.264L130.578 126.938C129.928 127.062 129.44 127.24 129.114 127.473C128.789 127.705 128.626 128.046 128.626 128.495C128.626 128.929 128.789 129.278 129.114 129.541C129.455 129.789 129.904 129.913 130.462 129.913C130.85 129.913 131.222 129.867 131.578 129.774C131.95 129.681 132.283 129.534 132.577 129.332C132.872 129.115 133.096 128.844 133.251 128.519C133.422 128.178 133.507 127.775 133.507 127.31V124.149ZM143.735 131.842C142.573 131.842 141.511 131.618 140.551 131.168C139.59 130.719 138.831 130.084 138.273 129.262L139.993 127.775C140.334 128.41 140.822 128.922 141.457 129.309C142.108 129.681 142.883 129.867 143.781 129.867C144.494 129.867 145.06 129.743 145.478 129.495C145.896 129.247 146.106 128.898 146.106 128.449C146.106 128.155 146.005 127.899 145.804 127.682C145.618 127.45 145.253 127.271 144.711 127.147L142.271 126.636C141.031 126.388 140.148 125.993 139.621 125.451C139.094 124.893 138.831 124.188 138.831 123.336C138.831 122.7 139.017 122.112 139.389 121.569C139.761 121.027 140.303 120.593 141.016 120.268C141.744 119.927 142.612 119.756 143.619 119.756C144.781 119.756 145.773 119.966 146.594 120.384C147.415 120.787 148.043 121.368 148.476 122.127L146.756 123.568C146.462 122.948 146.028 122.491 145.455 122.197C144.882 121.887 144.285 121.732 143.665 121.732C143.169 121.732 142.743 121.794 142.387 121.918C142.031 122.042 141.759 122.212 141.573 122.429C141.388 122.646 141.295 122.902 141.295 123.196C141.295 123.506 141.411 123.777 141.643 124.01C141.876 124.242 142.294 124.42 142.898 124.544L145.548 125.102C146.663 125.319 147.446 125.691 147.895 126.218C148.36 126.729 148.593 127.357 148.593 128.1C148.593 128.844 148.399 129.503 148.012 130.076C147.624 130.634 147.066 131.068 146.338 131.377C145.61 131.687 144.742 131.842 143.735 131.842ZM154.288 116.572V128.124C154.288 128.697 154.435 129.115 154.73 129.379C155.039 129.642 155.45 129.774 155.961 129.774C156.38 129.774 156.744 129.712 157.054 129.588C157.364 129.448 157.65 129.262 157.914 129.03L158.472 130.843C158.115 131.153 157.674 131.401 157.147 131.587C156.635 131.757 156.062 131.842 155.427 131.842C154.761 131.842 154.149 131.734 153.591 131.517C153.033 131.3 152.599 130.951 152.289 130.471C151.979 129.975 151.817 129.332 151.801 128.542V117.269L154.288 116.572ZM158.286 119.989V121.941H149.57V119.989H158.286ZM181.111 119.989H183.807L179.902 131.61H177.183L174.254 122.987L171.489 131.61H168.769L164.888 119.989H167.561L170.21 129.169L173.092 119.989H175.579L178.461 129.169L181.111 119.989ZM190.258 131.842C189.096 131.842 188.073 131.602 187.19 131.122C186.307 130.641 185.618 129.952 185.122 129.053C184.641 128.139 184.401 127.054 184.401 125.799C184.401 124.544 184.641 123.467 185.122 122.569C185.618 121.654 186.299 120.957 187.167 120.477C188.035 119.997 189.019 119.756 190.119 119.756C191.25 119.756 192.211 119.989 193.001 120.454C193.791 120.918 194.395 121.554 194.814 122.36C195.232 123.165 195.441 124.079 195.441 125.102C195.441 125.381 195.433 125.644 195.418 125.892C195.402 126.14 195.379 126.357 195.348 126.543H186.005V124.637H194.256L193.024 125.009C193.024 123.955 192.761 123.15 192.234 122.592C191.707 122.019 190.986 121.732 190.072 121.732C189.406 121.732 188.825 121.887 188.329 122.197C187.833 122.507 187.454 122.972 187.19 123.591C186.927 124.196 186.795 124.939 186.795 125.823C186.795 126.69 186.935 127.426 187.214 128.031C187.492 128.635 187.888 129.092 188.399 129.402C188.91 129.712 189.514 129.867 190.212 129.867C190.986 129.867 191.614 129.72 192.094 129.425C192.575 129.131 192.954 128.72 193.233 128.193L195.209 129.123C194.93 129.681 194.55 130.169 194.07 130.587C193.605 130.99 193.047 131.3 192.397 131.517C191.746 131.734 191.033 131.842 190.258 131.842ZM202.969 131.842C201.807 131.842 200.784 131.602 199.901 131.122C199.018 130.641 198.328 129.952 197.832 129.053C197.352 128.139 197.112 127.054 197.112 125.799C197.112 124.544 197.352 123.467 197.832 122.569C198.328 121.654 199.01 120.957 199.878 120.477C200.745 119.997 201.729 119.756 202.829 119.756C203.96 119.756 204.921 119.989 205.711 120.454C206.502 120.918 207.106 121.554 207.524 122.36C207.943 123.165 208.152 124.079 208.152 125.102C208.152 125.381 208.144 125.644 208.128 125.892C208.113 126.14 208.09 126.357 208.059 126.543H198.715V124.637H206.966L205.735 125.009C205.735 123.955 205.471 123.15 204.944 122.592C204.418 122.019 203.697 121.732 202.783 121.732C202.117 121.732 201.535 121.887 201.04 122.197C200.544 122.507 200.164 122.972 199.901 123.591C199.637 124.196 199.506 124.939 199.506 125.823C199.506 126.69 199.645 127.426 199.924 128.031C200.203 128.635 200.598 129.092 201.109 129.402C201.621 129.712 202.225 129.867 202.922 129.867C203.697 129.867 204.325 129.72 204.805 129.425C205.285 129.131 205.665 128.72 205.944 128.193L207.919 129.123C207.64 129.681 207.261 130.169 206.78 130.587C206.316 130.99 205.758 131.3 205.107 131.517C204.456 131.734 203.743 131.842 202.969 131.842ZM221.536 119.989L216.353 125.288L215.819 125.66L212.17 129.448L212.146 126.613L218.585 119.989H221.536ZM213.053 114.759V131.61H210.566V114.759H213.053ZM216.655 123.893L221.815 131.61H218.933L214.796 125.311L216.655 123.893Z" fill="#4B5353"/>
<rect x="193.784" y="0.98877" width="84.2526" height="41.6211" rx="5.81053" fill="#D6F1EF"/>
<path d="M212.925 28.7993L208.98 15.377H211.278L214.288 26.908L217.216 15.377H219.453L222.402 26.9283L225.391 15.377H227.608L223.683 28.7993H221.121L218.985 20.7459L218.314 17.6547H218.294L217.623 20.7459L215.508 28.7993H212.925ZM233.519 29.0027C232.502 29.0027 231.607 28.7925 230.834 28.3722C230.062 27.9519 229.458 27.3486 229.024 26.5623C228.604 25.7623 228.394 24.8133 228.394 23.7151C228.394 22.6169 228.604 21.6746 229.024 20.8883C229.458 20.0884 230.055 19.4783 230.814 19.058C231.573 18.6377 232.434 18.4275 233.397 18.4275C234.387 18.4275 235.227 18.6309 235.919 19.0376C236.61 19.4444 237.139 20.0002 237.505 20.7053C237.871 21.4103 238.054 22.2102 238.054 23.105C238.054 23.349 238.047 23.5795 238.034 23.7965C238.02 24.0134 238 24.2032 237.973 24.3659H229.797V22.6983H237.017L235.939 23.0237C235.939 22.1017 235.708 21.3967 235.247 20.9086C234.787 20.407 234.156 20.1562 233.356 20.1562C232.773 20.1562 232.265 20.2917 231.831 20.5629C231.397 20.8341 231.065 21.2408 230.834 21.7831C230.604 22.3119 230.489 22.9626 230.489 23.7354C230.489 24.4947 230.611 25.1387 230.855 25.6674C231.099 26.1962 231.444 26.5962 231.892 26.8673C232.339 27.1385 232.868 27.2741 233.478 27.2741C234.156 27.2741 234.705 27.1453 235.125 26.8877C235.546 26.6301 235.878 26.2708 236.122 25.8098L237.851 26.6233C237.607 27.1114 237.274 27.5384 236.854 27.9045C236.447 28.257 235.959 28.5282 235.39 28.718C234.82 28.9078 234.197 29.0027 233.519 29.0027ZM245.276 29.0027C244.259 29.0027 243.364 28.7925 242.592 28.3722C241.819 27.9519 241.215 27.3486 240.782 26.5623C240.361 25.7623 240.151 24.8133 240.151 23.7151C240.151 22.6169 240.361 21.6746 240.782 20.8883C241.215 20.0884 241.812 19.4783 242.571 19.058C243.331 18.6377 244.191 18.4275 245.154 18.4275C246.144 18.4275 246.984 18.6309 247.676 19.0376C248.367 19.4444 248.896 20.0002 249.262 20.7053C249.628 21.4103 249.811 22.2102 249.811 23.105C249.811 23.349 249.804 23.5795 249.791 23.7965C249.777 24.0134 249.757 24.2032 249.73 24.3659H241.554V22.6983H248.774L247.696 23.0237C247.696 22.1017 247.466 21.3967 247.005 20.9086C246.544 20.407 245.913 20.1562 245.113 20.1562C244.53 20.1562 244.022 20.2917 243.588 20.5629C243.154 20.8341 242.822 21.2408 242.592 21.7831C242.361 22.3119 242.246 22.9626 242.246 23.7354C242.246 24.4947 242.368 25.1387 242.612 25.6674C242.856 26.1962 243.202 26.5962 243.649 26.8673C244.097 27.1385 244.625 27.2741 245.235 27.2741C245.913 27.2741 246.462 27.1453 246.883 26.8877C247.303 26.6301 247.635 26.2708 247.879 25.8098L249.608 26.6233C249.364 27.1114 249.032 27.5384 248.611 27.9045C248.205 28.257 247.717 28.5282 247.147 28.718C246.578 28.9078 245.954 29.0027 245.276 29.0027ZM262.158 18.6309L257.623 23.2677L257.155 23.5931L253.962 26.908L253.942 24.4269L259.575 18.6309H262.158ZM254.735 14.0551V28.7993H252.559V14.0551H254.735ZM257.887 22.0475L262.402 28.7993H259.88L256.261 23.288L257.887 22.0475Z" fill="#242828"/>
<path d="M319.862 15.377V28.7993H317.849V21.0306L318.011 17.3293H317.991L313.903 28.7993H312.093L308.006 17.3293H307.985L308.148 21.0306V28.7993H306.135V15.377H309.368L312.073 23.1457L313.008 26.3386H313.049L314.005 23.1457L316.689 15.377H319.862ZM327.819 18.4275C328.809 18.4275 329.683 18.6377 330.442 19.058C331.202 19.4783 331.791 20.0884 332.212 20.8883C332.646 21.6746 332.862 22.6169 332.862 23.7151C332.862 24.8133 332.646 25.7623 332.212 26.5623C331.791 27.3486 331.202 27.9519 330.442 28.3722C329.683 28.7925 328.809 29.0027 327.819 29.0027C326.829 29.0027 325.955 28.7925 325.195 28.3722C324.436 27.9519 323.84 27.3486 323.406 26.5623C322.972 25.7623 322.755 24.8133 322.755 23.7151C322.755 22.6169 322.972 21.6746 323.406 20.8883C323.84 20.0884 324.436 19.4783 325.195 19.058C325.955 18.6377 326.829 18.4275 327.819 18.4275ZM327.819 20.1358C327.209 20.1358 326.687 20.2782 326.253 20.5629C325.833 20.8341 325.507 21.234 325.277 21.7628C325.046 22.2915 324.931 22.9423 324.931 23.7151C324.931 24.4743 325.046 25.1251 325.277 25.6674C325.507 26.1962 325.833 26.6029 326.253 26.8877C326.687 27.1588 327.209 27.2944 327.819 27.2944C328.429 27.2944 328.944 27.1588 329.365 26.8877C329.785 26.6029 330.11 26.1962 330.341 25.6674C330.571 25.1251 330.686 24.4743 330.686 23.7151C330.686 22.9423 330.571 22.2915 330.341 21.7628C330.11 21.234 329.785 20.8341 329.365 20.5629C328.944 20.2782 328.429 20.1358 327.819 20.1358ZM335.6 28.7993V18.6309H337.532L337.674 21.2747L337.39 20.99C337.579 20.407 337.851 19.9257 338.203 19.5461C338.569 19.1529 338.996 18.8682 339.484 18.6919C339.986 18.5157 340.515 18.4275 341.071 18.4275C341.789 18.4275 342.433 18.5699 343.003 18.8546C343.586 19.1258 344.047 19.5393 344.386 20.0951C344.724 20.651 344.894 21.356 344.894 22.2102V28.7993H342.718V22.8813C342.718 21.878 342.508 21.1866 342.087 20.8069C341.681 20.4138 341.166 20.2172 340.542 20.2172C340.094 20.2172 339.661 20.3256 339.24 20.5426C338.82 20.7459 338.467 21.0781 338.183 21.5391C337.912 22 337.776 22.6169 337.776 23.3897V28.7993H335.6ZM351.041 15.6414V25.7488C351.041 26.2504 351.17 26.6165 351.428 26.847C351.699 27.0775 352.058 27.1927 352.506 27.1927C352.872 27.1927 353.19 27.1385 353.461 27.03C353.733 26.908 353.983 26.7453 354.214 26.5419L354.702 28.1282C354.39 28.3994 354.004 28.6163 353.543 28.779C353.095 28.9281 352.594 29.0027 352.038 29.0027C351.455 29.0027 350.919 28.9078 350.431 28.718C349.943 28.5282 349.564 28.2231 349.292 27.8028C349.021 27.369 348.879 26.8063 348.865 26.1149V16.2515L351.041 15.6414ZM354.539 18.6309V20.3392H346.913V18.6309H354.539ZM356.771 28.7993V14.0551H358.947V20.2578C359.286 19.6206 359.74 19.1597 360.31 18.8749C360.893 18.5767 361.537 18.4275 362.242 18.4275C362.96 18.4275 363.604 18.5699 364.174 18.8546C364.757 19.1258 365.218 19.5393 365.556 20.0951C365.895 20.651 366.065 21.356 366.065 22.2102V28.7993H363.889V22.9016C363.889 21.8983 363.679 21.2001 363.258 20.8069C362.852 20.4138 362.336 20.2172 361.713 20.2172C361.279 20.2172 360.845 20.3256 360.411 20.5426C359.991 20.7459 359.638 21.0849 359.354 21.5594C359.083 22.0204 358.947 22.644 358.947 23.4304V28.7993H356.771Z" fill="#242828"/>
<path d="M426.831 15.377L422.032 23.6541V28.7993H419.856V23.6541L415.076 15.377H417.496L419.896 19.7087L420.954 21.7018L422.011 19.7087L424.391 15.377H426.831ZM431.482 29.0027C430.465 29.0027 429.57 28.7925 428.797 28.3722C428.024 27.9519 427.421 27.3486 426.987 26.5623C426.567 25.7623 426.357 24.8133 426.357 23.7151C426.357 22.6169 426.567 21.6746 426.987 20.8883C427.421 20.0884 428.018 19.4783 428.777 19.058C429.536 18.6377 430.397 18.4275 431.36 18.4275C432.349 18.4275 433.19 18.6309 433.881 19.0376C434.573 19.4444 435.102 20.0002 435.468 20.7053C435.834 21.4103 436.017 22.2102 436.017 23.105C436.017 23.349 436.01 23.5795 435.996 23.7965C435.983 24.0134 435.962 24.2032 435.935 24.3659H427.76V22.6983H434.98L433.902 23.0237C433.902 22.1017 433.671 21.3967 433.21 20.9086C432.749 20.407 432.119 20.1562 431.319 20.1562C430.736 20.1562 430.227 20.2917 429.794 20.5629C429.36 20.8341 429.028 21.2408 428.797 21.7831C428.567 22.3119 428.451 22.9626 428.451 23.7354C428.451 24.4947 428.573 25.1387 428.817 25.6674C429.061 26.1962 429.407 26.5962 429.855 26.8673C430.302 27.1385 430.831 27.2741 431.441 27.2741C432.119 27.2741 432.668 27.1453 433.088 26.8877C433.508 26.6301 433.841 26.2708 434.085 25.8098L435.813 26.6233C435.569 27.1114 435.237 27.5384 434.817 27.9045C434.41 28.257 433.922 28.5282 433.353 28.718C432.783 28.9078 432.159 29.0027 431.482 29.0027ZM444.642 22.2712C444.642 21.5933 444.452 21.0713 444.073 20.7053C443.707 20.3256 443.198 20.1358 442.547 20.1358C441.937 20.1358 441.415 20.2782 440.981 20.5629C440.548 20.8476 440.229 21.3086 440.026 21.9458L438.195 21.173C438.453 20.346 438.955 19.6816 439.7 19.18C440.459 18.6783 441.436 18.4275 442.629 18.4275C443.442 18.4275 444.161 18.5631 444.784 18.8343C445.408 19.0919 445.896 19.485 446.249 20.0138C446.615 20.5426 446.798 21.2205 446.798 22.0475V26.5826C446.798 27.0842 447.049 27.3351 447.55 27.3351C447.794 27.3351 448.032 27.3012 448.262 27.2334L448.14 28.7383C447.828 28.8874 447.435 28.962 446.96 28.962C446.527 28.962 446.133 28.8874 445.781 28.7383C445.442 28.5756 445.171 28.3383 444.967 28.0265C444.778 27.7011 444.683 27.3012 444.683 26.8266V26.6843L445.13 26.6639C445.008 27.1927 444.757 27.6333 444.378 27.9858C443.998 28.3248 443.557 28.5824 443.056 28.7586C442.554 28.9213 442.046 29.0027 441.531 29.0027C440.893 29.0027 440.317 28.901 439.802 28.6976C439.3 28.4943 438.9 28.1892 438.602 27.7825C438.317 27.3622 438.175 26.847 438.175 26.2369C438.175 25.4776 438.419 24.854 438.907 24.3659C439.409 23.8778 440.114 23.5456 441.022 23.3694L444.967 22.5966L444.947 24.1218L442.08 24.7116C441.51 24.8201 441.083 24.976 440.798 25.1794C440.514 25.3827 440.371 25.681 440.371 26.0742C440.371 26.4538 440.514 26.7589 440.798 26.9893C441.097 27.2063 441.49 27.3147 441.978 27.3147C442.317 27.3147 442.642 27.2741 442.954 27.1927C443.279 27.1114 443.571 26.9826 443.829 26.8063C444.086 26.6165 444.283 26.3792 444.418 26.0945C444.567 25.7962 444.642 25.4437 444.642 25.037V22.2712ZM450.363 28.7993V18.6309H452.214L452.417 20.4612C452.688 19.7969 453.088 19.2952 453.617 18.9563C454.159 18.6038 454.824 18.4275 455.61 18.4275C455.813 18.4275 456.017 18.4479 456.22 18.4885C456.423 18.5157 456.593 18.5631 456.728 18.6309L456.423 20.5426C456.274 20.4883 456.105 20.4477 455.915 20.4205C455.739 20.3799 455.495 20.3595 455.183 20.3595C454.763 20.3595 454.349 20.4748 453.942 20.7053C453.536 20.9222 453.197 21.2543 452.926 21.7018C452.668 22.1492 452.539 22.7186 452.539 23.4101V28.7993H450.363Z" fill="#242828"/>
<rect x="263.799" y="66.5784" width="213.975" height="39.3579" rx="5.08421" stroke="#389294" stroke-width="1.45263"/>
<path d="M282.201 78.1851C283.58 78.1851 284.773 78.4485 285.78 78.9753C286.787 79.4867 287.639 80.2459 288.336 81.2531L286.663 82.8568C286.074 81.9581 285.408 81.315 284.664 80.9277C283.936 80.5248 283.068 80.3234 282.061 80.3234C281.317 80.3234 280.705 80.4241 280.225 80.6255C279.745 80.827 279.388 81.0981 279.156 81.439C278.939 81.7644 278.83 82.1363 278.83 82.5546C278.83 83.035 278.993 83.4533 279.319 83.8097C279.659 84.1661 280.287 84.445 281.201 84.6464L284.316 85.3437C285.803 85.6691 286.857 86.1649 287.477 86.8312C288.096 87.4975 288.406 88.3419 288.406 89.3646C288.406 90.3097 288.151 91.131 287.639 91.8282C287.128 92.5255 286.415 93.0601 285.501 93.4319C284.602 93.8038 283.541 93.9897 282.317 93.9897C281.232 93.9897 280.256 93.8503 279.388 93.5714C278.521 93.2925 277.761 92.9129 277.111 92.4325C276.46 91.9522 275.925 91.4021 275.507 90.7823L277.227 89.0624C277.552 89.6047 277.963 90.0928 278.459 90.5267C278.954 90.945 279.528 91.2704 280.178 91.5028C280.845 91.7353 281.581 91.8515 282.386 91.8515C283.099 91.8515 283.711 91.7663 284.223 91.5958C284.749 91.4254 285.145 91.1775 285.408 90.8521C285.687 90.5112 285.826 90.1083 285.826 89.6435C285.826 89.1941 285.671 88.799 285.361 88.4581C285.067 88.1172 284.509 87.8538 283.688 87.6679L280.318 86.9009C279.388 86.6995 278.621 86.4128 278.017 86.0409C277.413 85.6691 276.963 85.2197 276.669 84.6929C276.375 84.1506 276.227 83.5463 276.227 82.88C276.227 82.0123 276.46 81.2298 276.925 80.5326C277.405 79.8198 278.094 79.2543 278.993 78.8359C279.892 78.402 280.961 78.1851 282.201 78.1851ZM295.922 93.9897C294.759 93.9897 293.737 93.7496 292.854 93.2692C291.97 92.7889 291.281 92.0994 290.785 91.2007C290.305 90.2865 290.065 89.2019 290.065 87.9468C290.065 86.6917 290.305 85.6148 290.785 84.7161C291.281 83.802 291.963 83.1047 292.83 82.6244C293.698 82.144 294.682 81.9038 295.782 81.9038C296.913 81.9038 297.874 82.1363 298.664 82.6011C299.454 83.066 300.059 83.7012 300.477 84.507C300.895 85.3127 301.105 86.2269 301.105 87.2495C301.105 87.5284 301.097 87.7919 301.081 88.0398C301.066 88.2877 301.043 88.5046 301.012 88.6905H291.668V86.7847H299.919L298.687 87.1566C298.687 86.1029 298.424 85.2972 297.897 84.7394C297.37 84.1661 296.65 83.8794 295.736 83.8794C295.069 83.8794 294.488 84.0344 293.992 84.3443C293.497 84.6542 293.117 85.119 292.854 85.7388C292.59 86.3431 292.458 87.0868 292.458 87.97C292.458 88.8377 292.598 89.5737 292.877 90.178C293.156 90.7823 293.551 91.2394 294.062 91.5493C294.574 91.8592 295.178 92.0142 295.875 92.0142C296.65 92.0142 297.277 91.867 297.758 91.5726C298.238 91.2782 298.618 90.8676 298.897 90.3407L300.872 91.2704C300.593 91.8282 300.214 92.3163 299.733 92.7347C299.268 93.1375 298.711 93.4474 298.06 93.6644C297.409 93.8813 296.696 93.9897 295.922 93.9897ZM303.519 98.6382V82.1363H305.727L305.913 85.3902L305.587 84.9951C305.773 84.3908 306.06 83.8562 306.447 83.3913C306.835 82.9265 307.315 82.5624 307.888 82.299C308.477 82.0356 309.12 81.9038 309.817 81.9038C310.763 81.9038 311.623 82.144 312.397 82.6244C313.172 83.1047 313.784 83.7942 314.233 84.6929C314.683 85.5761 314.907 86.653 314.907 87.9236C314.907 89.1941 314.675 90.2865 314.21 91.2007C313.761 92.0994 313.141 92.7889 312.351 93.2692C311.576 93.7496 310.708 93.9897 309.748 93.9897C308.756 93.9897 307.912 93.7341 307.214 93.2228C306.517 92.6959 306.021 92.0297 305.727 91.2239L306.006 90.8288V98.6382H303.519ZM309.213 91.9677C310.22 91.9677 311.003 91.6113 311.561 90.8985C312.134 90.1858 312.421 89.2019 312.421 87.9468C312.421 86.6917 312.142 85.7078 311.584 84.9951C311.026 84.2668 310.251 83.9027 309.26 83.9027C308.609 83.9027 308.036 84.0731 307.54 84.414C307.059 84.7394 306.68 85.2042 306.401 85.8085C306.137 86.3973 306.006 87.1101 306.006 87.9468C306.006 88.768 306.137 89.4808 306.401 90.0851C306.664 90.6894 307.036 91.1542 307.516 91.4796C307.997 91.805 308.562 91.9677 309.213 91.9677ZM320.599 78.7197V90.271C320.599 90.8443 320.746 91.2627 321.04 91.5261C321.35 91.7895 321.761 91.9212 322.272 91.9212C322.69 91.9212 323.055 91.8592 323.365 91.7353C323.674 91.5958 323.961 91.4099 324.224 91.1775L324.782 92.9903C324.426 93.3002 323.984 93.5481 323.457 93.7341C322.946 93.9045 322.373 93.9897 321.738 93.9897C321.071 93.9897 320.459 93.8813 319.901 93.6644C319.344 93.4474 318.91 93.0988 318.6 92.6185C318.29 92.1226 318.127 91.4796 318.112 90.6894V79.4169L320.599 78.7197ZM324.596 82.1363V84.0886H315.881V82.1363H324.596ZM335.587 93.7573V83.2287C335.587 82.9188 335.587 82.6011 335.587 82.2757C335.603 81.9348 335.618 81.5785 335.634 81.2066C335.107 81.7179 334.503 82.1595 333.821 82.5314C333.155 82.8878 332.465 83.1434 331.753 83.2984L331.288 81.1369C331.613 81.0904 331.993 80.9819 332.427 80.8115C332.86 80.641 333.31 80.4241 333.775 80.1607C334.239 79.8973 334.666 79.6184 335.053 79.324C335.44 79.0141 335.742 78.7119 335.959 78.4175H338.051V93.7573H335.587ZM344.212 93.7573V83.2287C344.212 82.9188 344.212 82.6011 344.212 82.2757C344.228 81.9348 344.243 81.5785 344.259 81.2066C343.732 81.7179 343.128 82.1595 342.446 82.5314C341.78 82.8878 341.09 83.1434 340.378 83.2984L339.913 81.1369C340.238 81.0904 340.618 80.9819 341.052 80.8115C341.485 80.641 341.935 80.4241 342.4 80.1607C342.864 79.8973 343.291 79.6184 343.678 79.324C344.065 79.0141 344.367 78.7119 344.584 78.4175H346.676V93.7573H344.212ZM358.067 86.4825V88.7835H350.141V86.4825H358.067ZM366.317 78.1851C367.696 78.1851 368.889 78.4485 369.896 78.9753C370.903 79.4867 371.756 80.2459 372.453 81.2531L370.779 82.8568C370.191 81.9581 369.524 81.315 368.781 80.9277C368.052 80.5248 367.185 80.3234 366.178 80.3234C365.434 80.3234 364.822 80.4241 364.341 80.6255C363.861 80.827 363.505 81.0981 363.272 81.439C363.055 81.7644 362.947 82.1363 362.947 82.5546C362.947 83.035 363.11 83.4533 363.435 83.8097C363.776 84.1661 364.403 84.445 365.318 84.6464L368.432 85.3437C369.92 85.6691 370.973 86.1649 371.593 86.8312C372.213 87.4975 372.523 88.3419 372.523 89.3646C372.523 90.3097 372.267 91.131 371.756 91.8282C371.244 92.5255 370.532 93.0601 369.617 93.4319C368.719 93.8038 367.657 93.9897 366.433 93.9897C365.349 93.9897 364.372 93.8503 363.505 93.5714C362.637 93.2925 361.878 92.9129 361.227 92.4325C360.576 91.9522 360.042 91.4021 359.623 90.7823L361.343 89.0624C361.669 89.6047 362.079 90.0928 362.575 90.5267C363.071 90.945 363.644 91.2704 364.295 91.5028C364.961 91.7353 365.697 91.8515 366.503 91.8515C367.216 91.8515 367.828 91.7663 368.339 91.5958C368.866 91.4254 369.261 91.1775 369.524 90.8521C369.803 90.5112 369.943 90.1083 369.943 89.6435C369.943 89.1941 369.788 88.799 369.478 88.4581C369.184 88.1172 368.626 87.8538 367.805 87.6679L364.434 86.9009C363.505 86.6995 362.738 86.4128 362.133 86.0409C361.529 85.6691 361.08 85.2197 360.785 84.6929C360.491 84.1506 360.344 83.5463 360.344 82.88C360.344 82.0123 360.576 81.2298 361.041 80.5326C361.521 79.8198 362.211 79.2543 363.11 78.8359C364.008 78.402 365.077 78.1851 366.317 78.1851ZM380.038 93.9897C378.876 93.9897 377.853 93.7496 376.97 93.2692C376.087 92.7889 375.397 92.0994 374.902 91.2007C374.421 90.2865 374.181 89.2019 374.181 87.9468C374.181 86.6917 374.421 85.6148 374.902 84.7161C375.397 83.802 376.079 83.1047 376.947 82.6244C377.815 82.144 378.798 81.9038 379.899 81.9038C381.03 81.9038 381.99 82.1363 382.781 82.6011C383.571 83.066 384.175 83.7012 384.593 84.507C385.012 85.3127 385.221 86.2269 385.221 87.2495C385.221 87.5284 385.213 87.7919 385.198 88.0398C385.182 88.2877 385.159 88.5046 385.128 88.6905H375.785V86.7847H384.036L382.804 87.1566C382.804 86.1029 382.54 85.2972 382.014 84.7394C381.487 84.1661 380.766 83.8794 379.852 83.8794C379.186 83.8794 378.605 84.0344 378.109 84.3443C377.613 84.6542 377.233 85.119 376.97 85.7388C376.707 86.3431 376.575 87.0868 376.575 87.97C376.575 88.8377 376.714 89.5737 376.993 90.178C377.272 90.7823 377.667 91.2394 378.179 91.5493C378.69 91.8592 379.294 92.0142 379.992 92.0142C380.766 92.0142 381.394 91.867 381.874 91.5726C382.354 91.2782 382.734 90.8676 383.013 90.3407L384.989 91.2704C384.71 91.8282 384.33 92.3163 383.85 92.7347C383.385 93.1375 382.827 93.4474 382.176 93.6644C381.526 93.8813 380.813 93.9897 380.038 93.9897ZM387.635 98.6382V82.1363H389.843L390.029 85.3902L389.704 84.9951C389.89 84.3908 390.176 83.8562 390.564 83.3913C390.951 82.9265 391.431 82.5624 392.005 82.299C392.594 82.0356 393.237 81.9038 393.934 81.9038C394.879 81.9038 395.739 82.144 396.514 82.6244C397.289 83.1047 397.901 83.7942 398.35 84.6929C398.799 85.5761 399.024 86.653 399.024 87.9236C399.024 89.1941 398.791 90.2865 398.327 91.2007C397.877 92.0994 397.258 92.7889 396.467 93.2692C395.693 93.7496 394.825 93.9897 393.864 93.9897C392.873 93.9897 392.028 93.7341 391.331 93.2228C390.634 92.6959 390.138 92.0297 389.843 91.2239L390.122 90.8288V98.6382H387.635ZM393.33 91.9677C394.337 91.9677 395.119 91.6113 395.677 90.8985C396.25 90.1858 396.537 89.2019 396.537 87.9468C396.537 86.6917 396.258 85.7078 395.7 84.9951C395.142 84.2668 394.368 83.9027 393.376 83.9027C392.725 83.9027 392.152 84.0731 391.656 84.414C391.176 84.7394 390.796 85.2042 390.517 85.8085C390.254 86.3973 390.122 87.1101 390.122 87.9468C390.122 88.768 390.254 89.4808 390.517 90.0851C390.781 90.6894 391.153 91.1542 391.633 91.4796C392.113 91.805 392.679 91.9677 393.33 91.9677ZM404.715 78.7197V90.271C404.715 90.8443 404.862 91.2627 405.157 91.5261C405.467 91.7895 405.877 91.9212 406.389 91.9212C406.807 91.9212 407.171 91.8592 407.481 91.7353C407.791 91.5958 408.078 91.4099 408.341 91.1775L408.899 92.9903C408.542 93.3002 408.101 93.5481 407.574 93.7341C407.063 93.9045 406.489 93.9897 405.854 93.9897C405.188 93.9897 404.576 93.8813 404.018 93.6644C403.46 93.4474 403.026 93.0988 402.716 92.6185C402.406 92.1226 402.244 91.4796 402.228 90.6894V79.4169L404.715 78.7197ZM408.713 82.1363V84.0886H399.997V82.1363H408.713ZM419.704 93.7573V83.2287C419.704 82.9188 419.704 82.6011 419.704 82.2757C419.719 81.9348 419.735 81.5785 419.75 81.2066C419.224 81.7179 418.619 82.1595 417.938 82.5314C417.271 82.8878 416.582 83.1434 415.869 83.2984L415.404 81.1369C415.73 81.0904 416.109 80.9819 416.543 80.8115C416.977 80.641 417.426 80.4241 417.891 80.1607C418.356 79.8973 418.782 79.6184 419.169 79.324C419.557 79.0141 419.859 78.7119 420.076 78.4175H422.168V93.7573H419.704ZM430.816 78.2084C431.854 78.2084 432.753 78.3788 433.512 78.7197C434.287 79.0451 434.883 79.5099 435.302 80.1142C435.72 80.7185 435.929 81.4468 435.929 82.299C435.929 83.0892 435.735 83.7865 435.348 84.3908C434.976 84.9796 434.426 85.4289 433.698 85.7388V85.762C434.581 86.0874 435.278 86.5755 435.79 87.2263C436.316 87.8616 436.58 88.6518 436.58 89.597C436.58 90.5112 436.34 91.2937 435.859 91.9444C435.395 92.5952 434.728 93.0988 433.861 93.4552C433.008 93.8116 431.993 93.9897 430.816 93.9897C429.638 93.9897 428.616 93.8116 427.748 93.4552C426.896 93.0988 426.229 92.5952 425.749 91.9444C425.269 91.2937 425.029 90.5112 425.029 89.597C425.029 88.6673 425.284 87.8771 425.796 87.2263C426.307 86.5755 427.02 86.0874 427.934 85.762V85.7388C427.237 85.4444 426.686 85.0028 426.284 84.414C425.881 83.8097 425.679 83.1047 425.679 82.299C425.679 81.4468 425.889 80.7185 426.307 80.1142C426.725 79.5099 427.322 79.0451 428.097 78.7197C428.871 78.3788 429.778 78.2084 430.816 78.2084ZM430.816 80.3001C429.995 80.3001 429.336 80.5016 428.84 80.9044C428.36 81.3073 428.12 81.8574 428.12 82.5546C428.12 83.2519 428.368 83.802 428.864 84.2048C429.359 84.5922 430.01 84.7859 430.816 84.7859C431.622 84.7859 432.265 84.5922 432.745 84.2048C433.241 83.802 433.489 83.2519 433.489 82.5546C433.489 81.8574 433.249 81.3073 432.768 80.9044C432.288 80.5016 431.637 80.3001 430.816 80.3001ZM430.816 91.898C431.498 91.898 432.079 91.7972 432.559 91.5958C433.039 91.3944 433.411 91.1 433.675 90.7126C433.938 90.3252 434.07 89.8759 434.07 89.3646C434.07 88.8223 433.93 88.3652 433.651 87.9933C433.388 87.6059 433.016 87.3115 432.536 87.1101C432.055 86.9086 431.482 86.8079 430.816 86.8079C430.165 86.8079 429.592 86.9086 429.096 87.1101C428.6 87.3115 428.213 87.6059 427.934 87.9933C427.67 88.3652 427.539 88.8223 427.539 89.3646C427.539 89.8759 427.67 90.3252 427.934 90.7126C428.197 91.1 428.577 91.3944 429.073 91.5958C429.569 91.7972 430.15 91.898 430.816 91.898Z" fill="#4B5353"/>
<path d="M463.075 83.4155L456.997 89.4941C456.279 90.212 455.104 90.212 454.386 89.4941L448.308 83.4155" stroke="#389294" stroke-width="2.09768" stroke-miterlimit="10" stroke-linecap="round" stroke-linejoin="round"/>
</svg>
